<mxfile host="app.diagrams.net" modified="2021-11-30T13:49:42.296Z" agent="5.0 (Windows NT 10.0; Win64; x64) AppleWebKit/537.36 (KHTML, like Gecko) Chrome/96.0.4664.45 Safari/537.36" etag="oii-VSCwwxxrzJSFQi81" version="15.8.6" type="github">
  <diagram id="R2lEEEUBdFMjLlhIrx00" name="Page-1">
    <mxGraphModel dx="3652" dy="2782" grid="1" gridSize="10" guides="1" tooltips="1" connect="1" arrows="1" fold="1" page="1" pageScale="1" pageWidth="850" pageHeight="1100" math="0" shadow="0" extFonts="Permanent Marker^https://fonts.googleapis.com/css?family=Permanent+Marker">
      <root>
        <mxCell id="0" />
        <mxCell id="1" parent="0" />
        <mxCell id="99nmjj4Q9bfn7_SC2MuP-7" value="employee" style="swimlane;fontStyle=0;childLayout=stackLayout;horizontal=1;startSize=26;fillColor=none;horizontalStack=0;resizeParent=1;resizeParentMax=0;resizeLast=0;collapsible=1;marginBottom=0;" parent="1" vertex="1">
          <mxGeometry x="-470" y="924" width="230" height="338" as="geometry" />
        </mxCell>
        <mxCell id="99nmjj4Q9bfn7_SC2MuP-8" value="+ id_employee: bigint(20)" style="text;strokeColor=none;fillColor=none;align=left;verticalAlign=top;spacingLeft=4;spacingRight=4;overflow=hidden;rotatable=0;points=[[0,0.5],[1,0.5]];portConstraint=eastwest;" parent="99nmjj4Q9bfn7_SC2MuP-7" vertex="1">
          <mxGeometry y="26" width="230" height="26" as="geometry" />
        </mxCell>
        <mxCell id="99nmjj4Q9bfn7_SC2MuP-9" value="+ firstname: string(100)" style="text;strokeColor=none;fillColor=none;align=left;verticalAlign=top;spacingLeft=4;spacingRight=4;overflow=hidden;rotatable=0;points=[[0,0.5],[1,0.5]];portConstraint=eastwest;" parent="99nmjj4Q9bfn7_SC2MuP-7" vertex="1">
          <mxGeometry y="52" width="230" height="26" as="geometry" />
        </mxCell>
        <mxCell id="99nmjj4Q9bfn7_SC2MuP-10" value="+ lastname: string(100)" style="text;strokeColor=none;fillColor=none;align=left;verticalAlign=top;spacingLeft=4;spacingRight=4;overflow=hidden;rotatable=0;points=[[0,0.5],[1,0.5]];portConstraint=eastwest;" parent="99nmjj4Q9bfn7_SC2MuP-7" vertex="1">
          <mxGeometry y="78" width="230" height="26" as="geometry" />
        </mxCell>
        <mxCell id="99nmjj4Q9bfn7_SC2MuP-12" value="+ email: string(255)" style="text;strokeColor=none;fillColor=none;align=left;verticalAlign=top;spacingLeft=4;spacingRight=4;overflow=hidden;rotatable=0;points=[[0,0.5],[1,0.5]];portConstraint=eastwest;" parent="99nmjj4Q9bfn7_SC2MuP-7" vertex="1">
          <mxGeometry y="104" width="230" height="26" as="geometry" />
        </mxCell>
        <mxCell id="99nmjj4Q9bfn7_SC2MuP-11" value="+ password: string(255)" style="text;strokeColor=none;fillColor=none;align=left;verticalAlign=top;spacingLeft=4;spacingRight=4;overflow=hidden;rotatable=0;points=[[0,0.5],[1,0.5]];portConstraint=eastwest;fontColor=default;" parent="99nmjj4Q9bfn7_SC2MuP-7" vertex="1">
          <mxGeometry y="130" width="230" height="26" as="geometry" />
        </mxCell>
        <mxCell id="99nmjj4Q9bfn7_SC2MuP-13" value="+ id_job_title: int(11)" style="text;strokeColor=none;fillColor=none;align=left;verticalAlign=top;spacingLeft=4;spacingRight=4;overflow=hidden;rotatable=0;points=[[0,0.5],[1,0.5]];portConstraint=eastwest;" parent="99nmjj4Q9bfn7_SC2MuP-7" vertex="1">
          <mxGeometry y="156" width="230" height="26" as="geometry" />
        </mxCell>
        <mxCell id="TnUPyRHLWNfPNA_BWNht-5" value="+ id_profession: int(11)" style="text;strokeColor=none;fillColor=none;align=left;verticalAlign=top;spacingLeft=4;spacingRight=4;overflow=hidden;rotatable=0;points=[[0,0.5],[1,0.5]];portConstraint=eastwest;" parent="99nmjj4Q9bfn7_SC2MuP-7" vertex="1">
          <mxGeometry y="182" width="230" height="26" as="geometry" />
        </mxCell>
        <mxCell id="99nmjj4Q9bfn7_SC2MuP-16" value="+ id_profile: int(11)" style="text;strokeColor=none;fillColor=none;align=left;verticalAlign=top;spacingLeft=4;spacingRight=4;overflow=hidden;rotatable=0;points=[[0,0.5],[1,0.5]];portConstraint=eastwest;" parent="99nmjj4Q9bfn7_SC2MuP-7" vertex="1">
          <mxGeometry y="208" width="230" height="26" as="geometry" />
        </mxCell>
        <mxCell id="99nmjj4Q9bfn7_SC2MuP-14" value="+ enable_employee: boolean" style="text;strokeColor=none;fillColor=none;align=left;verticalAlign=top;spacingLeft=4;spacingRight=4;overflow=hidden;rotatable=0;points=[[0,0.5],[1,0.5]];portConstraint=eastwest;" parent="99nmjj4Q9bfn7_SC2MuP-7" vertex="1">
          <mxGeometry y="234" width="230" height="26" as="geometry" />
        </mxCell>
        <mxCell id="99nmjj4Q9bfn7_SC2MuP-15" value="+ employee_image: string(255)" style="text;strokeColor=none;fillColor=none;align=left;verticalAlign=top;spacingLeft=4;spacingRight=4;overflow=hidden;rotatable=0;points=[[0,0.5],[1,0.5]];portConstraint=eastwest;" parent="99nmjj4Q9bfn7_SC2MuP-7" vertex="1">
          <mxGeometry y="260" width="230" height="26" as="geometry" />
        </mxCell>
        <mxCell id="WMeFY94fwu9JhdbWC9ym-3" value="+ employee_registered_date: datetime" style="text;strokeColor=none;fillColor=none;align=left;verticalAlign=top;spacingLeft=4;spacingRight=4;overflow=hidden;rotatable=0;points=[[0,0.5],[1,0.5]];portConstraint=eastwest;" parent="99nmjj4Q9bfn7_SC2MuP-7" vertex="1">
          <mxGeometry y="286" width="230" height="26" as="geometry" />
        </mxCell>
        <mxCell id="WMeFY94fwu9JhdbWC9ym-4" value="+ employee_modified_date: datetime" style="text;strokeColor=none;fillColor=none;align=left;verticalAlign=top;spacingLeft=4;spacingRight=4;overflow=hidden;rotatable=0;points=[[0,0.5],[1,0.5]];portConstraint=eastwest;" parent="99nmjj4Q9bfn7_SC2MuP-7" vertex="1">
          <mxGeometry y="312" width="230" height="26" as="geometry" />
        </mxCell>
        <mxCell id="99nmjj4Q9bfn7_SC2MuP-24" value="job_title" style="swimlane;fontStyle=0;childLayout=stackLayout;horizontal=1;startSize=26;fillColor=none;horizontalStack=0;resizeParent=1;resizeParentMax=0;resizeLast=0;collapsible=1;marginBottom=0;" parent="1" vertex="1">
          <mxGeometry x="-770" y="1030" width="180" height="104" as="geometry" />
        </mxCell>
        <mxCell id="99nmjj4Q9bfn7_SC2MuP-25" value="+ id_job_title: int(11)" style="text;strokeColor=none;fillColor=none;align=left;verticalAlign=top;spacingLeft=4;spacingRight=4;overflow=hidden;rotatable=0;points=[[0,0.5],[1,0.5]];portConstraint=eastwest;" parent="99nmjj4Q9bfn7_SC2MuP-24" vertex="1">
          <mxGeometry y="26" width="180" height="26" as="geometry" />
        </mxCell>
        <mxCell id="99nmjj4Q9bfn7_SC2MuP-26" value="+ job_title_name: string(255)" style="text;strokeColor=none;fillColor=none;align=left;verticalAlign=top;spacingLeft=4;spacingRight=4;overflow=hidden;rotatable=0;points=[[0,0.5],[1,0.5]];portConstraint=eastwest;" parent="99nmjj4Q9bfn7_SC2MuP-24" vertex="1">
          <mxGeometry y="52" width="180" height="26" as="geometry" />
        </mxCell>
        <mxCell id="99nmjj4Q9bfn7_SC2MuP-27" value="+ job_title_description: text" style="text;strokeColor=none;fillColor=none;align=left;verticalAlign=top;spacingLeft=4;spacingRight=4;overflow=hidden;rotatable=0;points=[[0,0.5],[1,0.5]];portConstraint=eastwest;" parent="99nmjj4Q9bfn7_SC2MuP-24" vertex="1">
          <mxGeometry y="78" width="180" height="26" as="geometry" />
        </mxCell>
        <mxCell id="99nmjj4Q9bfn7_SC2MuP-28" value="" style="edgeStyle=entityRelationEdgeStyle;fontSize=12;html=1;endArrow=ERoneToMany;startArrow=ERmandOne;" parent="1" source="99nmjj4Q9bfn7_SC2MuP-25" target="99nmjj4Q9bfn7_SC2MuP-13" edge="1">
          <mxGeometry width="100" height="100" relative="1" as="geometry">
            <mxPoint x="285" y="522" as="sourcePoint" />
            <mxPoint x="295" y="400" as="targetPoint" />
          </mxGeometry>
        </mxCell>
        <mxCell id="99nmjj4Q9bfn7_SC2MuP-29" value="profile" style="swimlane;fontStyle=0;childLayout=stackLayout;horizontal=1;startSize=26;fillColor=none;horizontalStack=0;resizeParent=1;resizeParentMax=0;resizeLast=0;collapsible=1;marginBottom=0;" parent="1" vertex="1">
          <mxGeometry x="-770" y="1280" width="180" height="104" as="geometry" />
        </mxCell>
        <mxCell id="99nmjj4Q9bfn7_SC2MuP-30" value="+ id_profile: int(11)" style="text;strokeColor=none;fillColor=none;align=left;verticalAlign=top;spacingLeft=4;spacingRight=4;overflow=hidden;rotatable=0;points=[[0,0.5],[1,0.5]];portConstraint=eastwest;" parent="99nmjj4Q9bfn7_SC2MuP-29" vertex="1">
          <mxGeometry y="26" width="180" height="26" as="geometry" />
        </mxCell>
        <mxCell id="99nmjj4Q9bfn7_SC2MuP-31" value="+ profile_name: string(255)" style="text;strokeColor=none;fillColor=none;align=left;verticalAlign=top;spacingLeft=4;spacingRight=4;overflow=hidden;rotatable=0;points=[[0,0.5],[1,0.5]];portConstraint=eastwest;" parent="99nmjj4Q9bfn7_SC2MuP-29" vertex="1">
          <mxGeometry y="52" width="180" height="26" as="geometry" />
        </mxCell>
        <mxCell id="99nmjj4Q9bfn7_SC2MuP-32" value="+ profile_description: text" style="text;strokeColor=none;fillColor=none;align=left;verticalAlign=top;spacingLeft=4;spacingRight=4;overflow=hidden;rotatable=0;points=[[0,0.5],[1,0.5]];portConstraint=eastwest;" parent="99nmjj4Q9bfn7_SC2MuP-29" vertex="1">
          <mxGeometry y="78" width="180" height="26" as="geometry" />
        </mxCell>
        <mxCell id="99nmjj4Q9bfn7_SC2MuP-33" value="" style="edgeStyle=entityRelationEdgeStyle;fontSize=12;html=1;endArrow=ERoneToMany;startArrow=ERmandOne;" parent="1" source="99nmjj4Q9bfn7_SC2MuP-30" target="99nmjj4Q9bfn7_SC2MuP-16" edge="1">
          <mxGeometry width="100" height="100" relative="1" as="geometry">
            <mxPoint x="535" y="532" as="sourcePoint" />
            <mxPoint x="560" y="289" as="targetPoint" />
          </mxGeometry>
        </mxCell>
        <mxCell id="99nmjj4Q9bfn7_SC2MuP-34" value="defendant (demandado_accionado)" style="swimlane;fontStyle=0;childLayout=stackLayout;horizontal=1;startSize=26;fillColor=none;horizontalStack=0;resizeParent=1;resizeParentMax=0;resizeLast=0;collapsible=1;marginBottom=0;" parent="1" vertex="1">
          <mxGeometry x="860" y="550" width="220" height="104" as="geometry" />
        </mxCell>
        <mxCell id="99nmjj4Q9bfn7_SC2MuP-35" value="+ id_defendant: bigint(20)" style="text;strokeColor=none;fillColor=none;align=left;verticalAlign=top;spacingLeft=4;spacingRight=4;overflow=hidden;rotatable=0;points=[[0,0.5],[1,0.5]];portConstraint=eastwest;" parent="99nmjj4Q9bfn7_SC2MuP-34" vertex="1">
          <mxGeometry y="26" width="220" height="26" as="geometry" />
        </mxCell>
        <mxCell id="99nmjj4Q9bfn7_SC2MuP-36" value="+ defendant_identification: string(255)" style="text;strokeColor=none;fillColor=none;align=left;verticalAlign=top;spacingLeft=4;spacingRight=4;overflow=hidden;rotatable=0;points=[[0,0.5],[1,0.5]];portConstraint=eastwest;" parent="99nmjj4Q9bfn7_SC2MuP-34" vertex="1">
          <mxGeometry y="52" width="220" height="26" as="geometry" />
        </mxCell>
        <mxCell id="kAV78_8R-8U5BCedtc6I-1" value="+ defendant_name: string(255)" style="text;strokeColor=none;fillColor=none;align=left;verticalAlign=top;spacingLeft=4;spacingRight=4;overflow=hidden;rotatable=0;points=[[0,0.5],[1,0.5]];portConstraint=eastwest;" parent="99nmjj4Q9bfn7_SC2MuP-34" vertex="1">
          <mxGeometry y="78" width="220" height="26" as="geometry" />
        </mxCell>
        <mxCell id="99nmjj4Q9bfn7_SC2MuP-38" value="plaintiff (demandante_accionante)" style="swimlane;fontStyle=0;childLayout=stackLayout;horizontal=1;startSize=26;fillColor=none;horizontalStack=0;resizeParent=1;resizeParentMax=0;resizeLast=0;collapsible=1;marginBottom=0;" parent="1" vertex="1">
          <mxGeometry x="860" y="420" width="220" height="104" as="geometry" />
        </mxCell>
        <mxCell id="99nmjj4Q9bfn7_SC2MuP-39" value="+ id_plaintiff: bigint(20)" style="text;strokeColor=none;fillColor=none;align=left;verticalAlign=top;spacingLeft=4;spacingRight=4;overflow=hidden;rotatable=0;points=[[0,0.5],[1,0.5]];portConstraint=eastwest;" parent="99nmjj4Q9bfn7_SC2MuP-38" vertex="1">
          <mxGeometry y="26" width="220" height="26" as="geometry" />
        </mxCell>
        <mxCell id="99nmjj4Q9bfn7_SC2MuP-40" value="+ plaintiff_identification: string(255)" style="text;strokeColor=none;fillColor=none;align=left;verticalAlign=top;spacingLeft=4;spacingRight=4;overflow=hidden;rotatable=0;points=[[0,0.5],[1,0.5]];portConstraint=eastwest;" parent="99nmjj4Q9bfn7_SC2MuP-38" vertex="1">
          <mxGeometry y="52" width="220" height="26" as="geometry" />
        </mxCell>
        <mxCell id="kAV78_8R-8U5BCedtc6I-2" value="+ plaintiff_name: string(255)" style="text;strokeColor=none;fillColor=none;align=left;verticalAlign=top;spacingLeft=4;spacingRight=4;overflow=hidden;rotatable=0;points=[[0,0.5],[1,0.5]];portConstraint=eastwest;" parent="99nmjj4Q9bfn7_SC2MuP-38" vertex="1">
          <mxGeometry y="78" width="220" height="26" as="geometry" />
        </mxCell>
        <mxCell id="99nmjj4Q9bfn7_SC2MuP-47" value="dossier (ubicacion_expediente)" style="swimlane;fontStyle=0;childLayout=stackLayout;horizontal=1;startSize=26;fillColor=none;horizontalStack=0;resizeParent=1;resizeParentMax=0;resizeLast=0;collapsible=1;marginBottom=0;" parent="1" vertex="1">
          <mxGeometry x="185" y="546" width="240" height="728" as="geometry" />
        </mxCell>
        <mxCell id="99nmjj4Q9bfn7_SC2MuP-48" value="+ id_dossier: bigint(20)" style="text;strokeColor=none;fillColor=none;align=left;verticalAlign=top;spacingLeft=4;spacingRight=4;overflow=hidden;rotatable=0;points=[[0,0.5],[1,0.5]];portConstraint=eastwest;" parent="99nmjj4Q9bfn7_SC2MuP-47" vertex="1">
          <mxGeometry y="26" width="240" height="26" as="geometry" />
        </mxCell>
        <mxCell id="99nmjj4Q9bfn7_SC2MuP-57" value="+ radicado: string(255)" style="text;strokeColor=none;fillColor=none;align=left;verticalAlign=top;spacingLeft=4;spacingRight=4;overflow=hidden;rotatable=0;points=[[0,0.5],[1,0.5]];portConstraint=eastwest;" parent="99nmjj4Q9bfn7_SC2MuP-47" vertex="1">
          <mxGeometry y="52" width="240" height="26" as="geometry" />
        </mxCell>
        <mxCell id="kAV78_8R-8U5BCedtc6I-35" value="+ instance: string(255)" style="text;strokeColor=none;fillColor=none;align=left;verticalAlign=top;spacingLeft=4;spacingRight=4;overflow=hidden;rotatable=0;points=[[0,0.5],[1,0.5]];portConstraint=eastwest;" parent="99nmjj4Q9bfn7_SC2MuP-47" vertex="1">
          <mxGeometry y="78" width="240" height="26" as="geometry" />
        </mxCell>
        <mxCell id="99nmjj4Q9bfn7_SC2MuP-49" value="+ date_last_action: datetime" style="text;strokeColor=none;fillColor=none;align=left;verticalAlign=top;spacingLeft=4;spacingRight=4;overflow=hidden;rotatable=0;points=[[0,0.5],[1,0.5]];portConstraint=eastwest;" parent="99nmjj4Q9bfn7_SC2MuP-47" vertex="1">
          <mxGeometry y="104" width="240" height="26" as="geometry" />
        </mxCell>
        <mxCell id="99nmjj4Q9bfn7_SC2MuP-55" value="+ delivery_date: datetime" style="text;strokeColor=none;fillColor=#FFCC99;align=left;verticalAlign=top;spacingLeft=4;spacingRight=4;overflow=hidden;rotatable=0;points=[[0,0.5],[1,0.5]];portConstraint=eastwest;" parent="99nmjj4Q9bfn7_SC2MuP-47" vertex="1">
          <mxGeometry y="130" width="240" height="26" as="geometry" />
        </mxCell>
        <mxCell id="99nmjj4Q9bfn7_SC2MuP-50" value="+ date_in_dispach: datetime" style="text;strokeColor=none;fillColor=none;align=left;verticalAlign=top;spacingLeft=4;spacingRight=4;overflow=hidden;rotatable=0;points=[[0,0.5],[1,0.5]];portConstraint=eastwest;" parent="99nmjj4Q9bfn7_SC2MuP-47" vertex="1">
          <mxGeometry y="156" width="240" height="26" as="geometry" />
        </mxCell>
        <mxCell id="99nmjj4Q9bfn7_SC2MuP-56" value="+ date_out_dispach: datetime" style="text;strokeColor=none;fillColor=none;align=left;verticalAlign=top;spacingLeft=4;spacingRight=4;overflow=hidden;rotatable=0;points=[[0,0.5],[1,0.5]];portConstraint=eastwest;" parent="99nmjj4Q9bfn7_SC2MuP-47" vertex="1">
          <mxGeometry y="182" width="240" height="26" as="geometry" />
        </mxCell>
        <mxCell id="kAV78_8R-8U5BCedtc6I-120" value="+ fault_dossier: string(255)" style="text;strokeColor=none;fillColor=none;align=left;verticalAlign=top;spacingLeft=4;spacingRight=4;overflow=hidden;rotatable=0;points=[[0,0.5],[1,0.5]];portConstraint=eastwest;" parent="99nmjj4Q9bfn7_SC2MuP-47" vertex="1">
          <mxGeometry y="208" width="240" height="26" as="geometry" />
        </mxCell>
        <mxCell id="99nmjj4Q9bfn7_SC2MuP-69" value="+ fault_dossier_date: datetime" style="text;strokeColor=none;fillColor=none;align=left;verticalAlign=top;spacingLeft=4;spacingRight=4;overflow=hidden;rotatable=0;points=[[0,0.5],[1,0.5]];portConstraint=eastwest;" parent="99nmjj4Q9bfn7_SC2MuP-47" vertex="1">
          <mxGeometry y="234" width="240" height="26" as="geometry" />
        </mxCell>
        <mxCell id="99nmjj4Q9bfn7_SC2MuP-70" value="+ end_settlement_date: datetime" style="text;strokeColor=none;fillColor=#FFCC99;align=left;verticalAlign=top;spacingLeft=4;spacingRight=4;overflow=hidden;rotatable=0;points=[[0,0.5],[1,0.5]];portConstraint=eastwest;" parent="99nmjj4Q9bfn7_SC2MuP-47" vertex="1">
          <mxGeometry y="260" width="240" height="26" as="geometry" />
        </mxCell>
        <mxCell id="kAV78_8R-8U5BCedtc6I-31" value="+ id_location_dossier: int(11)" style="text;strokeColor=none;fillColor=none;align=left;verticalAlign=top;spacingLeft=4;spacingRight=4;overflow=hidden;rotatable=0;points=[[0,0.5],[1,0.5]];portConstraint=eastwest;" parent="99nmjj4Q9bfn7_SC2MuP-47" vertex="1">
          <mxGeometry y="286" width="240" height="26" as="geometry" />
        </mxCell>
        <mxCell id="99nmjj4Q9bfn7_SC2MuP-53" value="+ id_court_origin: int(11)" style="text;strokeColor=none;fillColor=#FFCCCC;align=left;verticalAlign=top;spacingLeft=4;spacingRight=4;overflow=hidden;rotatable=0;points=[[0,0.5],[1,0.5]];portConstraint=eastwest;" parent="99nmjj4Q9bfn7_SC2MuP-47" vertex="1">
          <mxGeometry y="312" width="240" height="26" as="geometry" />
        </mxCell>
        <mxCell id="99nmjj4Q9bfn7_SC2MuP-54" value="+ id_court_destination: int(11)" style="text;strokeColor=none;fillColor=#FFCCCC;align=left;verticalAlign=top;spacingLeft=4;spacingRight=4;overflow=hidden;rotatable=0;points=[[0,0.5],[1,0.5]];portConstraint=eastwest;" parent="99nmjj4Q9bfn7_SC2MuP-47" vertex="1">
          <mxGeometry y="338" width="240" height="26" as="geometry" />
        </mxCell>
        <mxCell id="uwlaLx61UvlyAh1Fpi0u-1" value="+ id_employee_registered: bigint(20)" style="text;strokeColor=none;fillColor=#CCCCCC;align=left;verticalAlign=top;spacingLeft=4;spacingRight=4;overflow=hidden;rotatable=0;points=[[0,0.5],[1,0.5]];portConstraint=eastwest;" vertex="1" parent="99nmjj4Q9bfn7_SC2MuP-47">
          <mxGeometry y="364" width="240" height="26" as="geometry" />
        </mxCell>
        <mxCell id="uwlaLx61UvlyAh1Fpi0u-2" value="+ dossier_registered_date: datetime" style="text;strokeColor=none;fillColor=#CCCCCC;align=left;verticalAlign=top;spacingLeft=4;spacingRight=4;overflow=hidden;rotatable=0;points=[[0,0.5],[1,0.5]];portConstraint=eastwest;" vertex="1" parent="99nmjj4Q9bfn7_SC2MuP-47">
          <mxGeometry y="390" width="240" height="26" as="geometry" />
        </mxCell>
        <mxCell id="uwlaLx61UvlyAh1Fpi0u-3" value="+ id_employee_archived: bigint(20)" style="text;strokeColor=none;fillColor=#CCCCCC;align=left;verticalAlign=top;spacingLeft=4;spacingRight=4;overflow=hidden;rotatable=0;points=[[0,0.5],[1,0.5]];portConstraint=eastwest;" vertex="1" parent="99nmjj4Q9bfn7_SC2MuP-47">
          <mxGeometry y="416" width="240" height="26" as="geometry" />
        </mxCell>
        <mxCell id="uwlaLx61UvlyAh1Fpi0u-4" value="+ dossier_archived_date: datetime" style="text;strokeColor=none;fillColor=#CCCCCC;align=left;verticalAlign=top;spacingLeft=4;spacingRight=4;overflow=hidden;rotatable=0;points=[[0,0.5],[1,0.5]];portConstraint=eastwest;" vertex="1" parent="99nmjj4Q9bfn7_SC2MuP-47">
          <mxGeometry y="442" width="240" height="26" as="geometry" />
        </mxCell>
        <mxCell id="uwlaLx61UvlyAh1Fpi0u-5" value="+ dossier_archived: boolean" style="text;strokeColor=none;fillColor=#CCCCCC;align=left;verticalAlign=top;spacingLeft=4;spacingRight=4;overflow=hidden;rotatable=0;points=[[0,0.5],[1,0.5]];portConstraint=eastwest;" vertex="1" parent="99nmjj4Q9bfn7_SC2MuP-47">
          <mxGeometry y="468" width="240" height="26" as="geometry" />
        </mxCell>
        <mxCell id="uwlaLx61UvlyAh1Fpi0u-6" value="+ id_employee_blocked: bigint(20)" style="text;strokeColor=none;fillColor=#CCCCCC;align=left;verticalAlign=top;spacingLeft=4;spacingRight=4;overflow=hidden;rotatable=0;points=[[0,0.5],[1,0.5]];portConstraint=eastwest;" vertex="1" parent="99nmjj4Q9bfn7_SC2MuP-47">
          <mxGeometry y="494" width="240" height="26" as="geometry" />
        </mxCell>
        <mxCell id="uwlaLx61UvlyAh1Fpi0u-7" value="+ dossier_blocked_date: datetime" style="text;strokeColor=none;fillColor=#CCCCCC;align=left;verticalAlign=top;spacingLeft=4;spacingRight=4;overflow=hidden;rotatable=0;points=[[0,0.5],[1,0.5]];portConstraint=eastwest;" vertex="1" parent="99nmjj4Q9bfn7_SC2MuP-47">
          <mxGeometry y="520" width="240" height="26" as="geometry" />
        </mxCell>
        <mxCell id="uwlaLx61UvlyAh1Fpi0u-11" value="+ id_employee_unblocked: bigint(20)" style="text;strokeColor=none;fillColor=#CCCCCC;align=left;verticalAlign=top;spacingLeft=4;spacingRight=4;overflow=hidden;rotatable=0;points=[[0,0.5],[1,0.5]];portConstraint=eastwest;" vertex="1" parent="99nmjj4Q9bfn7_SC2MuP-47">
          <mxGeometry y="546" width="240" height="26" as="geometry" />
        </mxCell>
        <mxCell id="uwlaLx61UvlyAh1Fpi0u-8" value="+ dossier_unblocked_date: datetime" style="text;strokeColor=none;fillColor=#CCCCCC;align=left;verticalAlign=top;spacingLeft=4;spacingRight=4;overflow=hidden;rotatable=0;points=[[0,0.5],[1,0.5]];portConstraint=eastwest;" vertex="1" parent="99nmjj4Q9bfn7_SC2MuP-47">
          <mxGeometry y="572" width="240" height="26" as="geometry" />
        </mxCell>
        <mxCell id="uwlaLx61UvlyAh1Fpi0u-9" value="+ dossier_bloqued: boolean" style="text;strokeColor=none;fillColor=#CCCCCC;align=left;verticalAlign=top;spacingLeft=4;spacingRight=4;overflow=hidden;rotatable=0;points=[[0,0.5],[1,0.5]];portConstraint=eastwest;" vertex="1" parent="99nmjj4Q9bfn7_SC2MuP-47">
          <mxGeometry y="598" width="240" height="26" as="geometry" />
        </mxCell>
        <mxCell id="uwlaLx61UvlyAh1Fpi0u-10" value="+ id_blocked_type: int(11)" style="text;strokeColor=none;fillColor=#CCCCCC;align=left;verticalAlign=top;spacingLeft=4;spacingRight=4;overflow=hidden;rotatable=0;points=[[0,0.5],[1,0.5]];portConstraint=eastwest;" vertex="1" parent="99nmjj4Q9bfn7_SC2MuP-47">
          <mxGeometry y="624" width="240" height="26" as="geometry" />
        </mxCell>
        <mxCell id="99nmjj4Q9bfn7_SC2MuP-91" value="+ id_dossier_type: int(11)" style="text;strokeColor=none;fillColor=none;align=left;verticalAlign=top;spacingLeft=4;spacingRight=4;overflow=hidden;rotatable=0;points=[[0,0.5],[1,0.5]];portConstraint=eastwest;" parent="99nmjj4Q9bfn7_SC2MuP-47" vertex="1">
          <mxGeometry y="650" width="240" height="26" as="geometry" />
        </mxCell>
        <mxCell id="99nmjj4Q9bfn7_SC2MuP-61" value="+ digital_dossier: boolean" style="text;strokeColor=none;fillColor=none;align=left;verticalAlign=top;spacingLeft=4;spacingRight=4;overflow=hidden;rotatable=0;points=[[0,0.5],[1,0.5]];portConstraint=eastwest;" parent="99nmjj4Q9bfn7_SC2MuP-47" vertex="1">
          <mxGeometry y="676" width="240" height="26" as="geometry" />
        </mxCell>
        <mxCell id="zX6q9PSeDQ9ZzKakYrvz-15" value="+ electronic_dossier: boolean" style="text;strokeColor=none;fillColor=none;align=left;verticalAlign=top;spacingLeft=4;spacingRight=4;overflow=hidden;rotatable=0;points=[[0,0.5],[1,0.5]];portConstraint=eastwest;" parent="99nmjj4Q9bfn7_SC2MuP-47" vertex="1">
          <mxGeometry y="702" width="240" height="26" as="geometry" />
        </mxCell>
        <mxCell id="99nmjj4Q9bfn7_SC2MuP-72" value="" style="edgeStyle=entityRelationEdgeStyle;fontSize=12;html=1;endArrow=ERoneToMany;startArrow=ERmandOne;" parent="1" source="mON6WonRohZX_aaUOoLF-20" target="99nmjj4Q9bfn7_SC2MuP-53" edge="1">
          <mxGeometry width="100" height="100" relative="1" as="geometry">
            <mxPoint x="590" y="740" as="sourcePoint" />
            <mxPoint x="690" y="640" as="targetPoint" />
          </mxGeometry>
        </mxCell>
        <mxCell id="99nmjj4Q9bfn7_SC2MuP-73" value="" style="edgeStyle=entityRelationEdgeStyle;fontSize=12;html=1;endArrow=ERoneToMany;startArrow=ERmandOne;" parent="1" source="mON6WonRohZX_aaUOoLF-20" target="99nmjj4Q9bfn7_SC2MuP-54" edge="1">
          <mxGeometry width="100" height="100" relative="1" as="geometry">
            <mxPoint x="620" y="129" as="sourcePoint" />
            <mxPoint x="610" y="700" as="targetPoint" />
          </mxGeometry>
        </mxCell>
        <mxCell id="99nmjj4Q9bfn7_SC2MuP-76" value="" style="edgeStyle=entityRelationEdgeStyle;fontSize=12;html=1;endArrow=ERoneToMany;startArrow=ERmandOne;" parent="1" source="99nmjj4Q9bfn7_SC2MuP-8" target="uwlaLx61UvlyAh1Fpi0u-3" edge="1">
          <mxGeometry width="100" height="100" relative="1" as="geometry">
            <mxPoint x="280" y="975" as="sourcePoint" />
            <mxPoint x="-140" y="1135" as="targetPoint" />
          </mxGeometry>
        </mxCell>
        <mxCell id="99nmjj4Q9bfn7_SC2MuP-77" value="dossier_type" style="swimlane;fontStyle=0;childLayout=stackLayout;horizontal=1;startSize=26;fillColor=none;horizontalStack=0;resizeParent=1;resizeParentMax=0;resizeLast=0;collapsible=1;marginBottom=0;" parent="1" vertex="1">
          <mxGeometry x="545" y="1260" width="220" height="104" as="geometry" />
        </mxCell>
        <mxCell id="99nmjj4Q9bfn7_SC2MuP-78" value="+ id_dossier_type: int(11)" style="text;strokeColor=none;fillColor=none;align=left;verticalAlign=top;spacingLeft=4;spacingRight=4;overflow=hidden;rotatable=0;points=[[0,0.5],[1,0.5]];portConstraint=eastwest;" parent="99nmjj4Q9bfn7_SC2MuP-77" vertex="1">
          <mxGeometry y="26" width="220" height="26" as="geometry" />
        </mxCell>
        <mxCell id="99nmjj4Q9bfn7_SC2MuP-79" value="+ dossier_type_name: string(255)" style="text;strokeColor=none;fillColor=none;align=left;verticalAlign=top;spacingLeft=4;spacingRight=4;overflow=hidden;rotatable=0;points=[[0,0.5],[1,0.5]];portConstraint=eastwest;" parent="99nmjj4Q9bfn7_SC2MuP-77" vertex="1">
          <mxGeometry y="52" width="220" height="26" as="geometry" />
        </mxCell>
        <mxCell id="WWjFzzvigEe-oElvQ5hi-5" value="+ dossier_type_description: text" style="text;strokeColor=none;fillColor=none;align=left;verticalAlign=top;spacingLeft=4;spacingRight=4;overflow=hidden;rotatable=0;points=[[0,0.5],[1,0.5]];portConstraint=eastwest;" parent="99nmjj4Q9bfn7_SC2MuP-77" vertex="1">
          <mxGeometry y="78" width="220" height="26" as="geometry" />
        </mxCell>
        <mxCell id="99nmjj4Q9bfn7_SC2MuP-80" value="log" style="swimlane;fontStyle=0;childLayout=stackLayout;horizontal=1;startSize=26;fillColor=none;horizontalStack=0;resizeParent=1;resizeParentMax=0;resizeLast=0;collapsible=1;marginBottom=0;" parent="1" vertex="1">
          <mxGeometry x="-950" y="573" width="220" height="182" as="geometry" />
        </mxCell>
        <mxCell id="99nmjj4Q9bfn7_SC2MuP-81" value="+ id_log: bigint(20)" style="text;strokeColor=none;fillColor=none;align=left;verticalAlign=top;spacingLeft=4;spacingRight=4;overflow=hidden;rotatable=0;points=[[0,0.5],[1,0.5]];portConstraint=eastwest;" parent="99nmjj4Q9bfn7_SC2MuP-80" vertex="1">
          <mxGeometry y="26" width="220" height="26" as="geometry" />
        </mxCell>
        <mxCell id="99nmjj4Q9bfn7_SC2MuP-82" value="+ log_date: datetime" style="text;strokeColor=none;fillColor=none;align=left;verticalAlign=top;spacingLeft=4;spacingRight=4;overflow=hidden;rotatable=0;points=[[0,0.5],[1,0.5]];portConstraint=eastwest;" parent="99nmjj4Q9bfn7_SC2MuP-80" vertex="1">
          <mxGeometry y="52" width="220" height="26" as="geometry" />
        </mxCell>
        <mxCell id="99nmjj4Q9bfn7_SC2MuP-83" value="+ log_action: string(255)" style="text;strokeColor=none;fillColor=none;align=left;verticalAlign=top;spacingLeft=4;spacingRight=4;overflow=hidden;rotatable=0;points=[[0,0.5],[1,0.5]];portConstraint=eastwest;" parent="99nmjj4Q9bfn7_SC2MuP-80" vertex="1">
          <mxGeometry y="78" width="220" height="26" as="geometry" />
        </mxCell>
        <mxCell id="99nmjj4Q9bfn7_SC2MuP-84" value="+ log_detail: string(255)" style="text;strokeColor=none;fillColor=none;align=left;verticalAlign=top;spacingLeft=4;spacingRight=4;overflow=hidden;rotatable=0;points=[[0,0.5],[1,0.5]];portConstraint=eastwest;" parent="99nmjj4Q9bfn7_SC2MuP-80" vertex="1">
          <mxGeometry y="104" width="220" height="26" as="geometry" />
        </mxCell>
        <mxCell id="99nmjj4Q9bfn7_SC2MuP-86" value="+ id_log_type: int(11)" style="text;strokeColor=none;fillColor=none;align=left;verticalAlign=top;spacingLeft=4;spacingRight=4;overflow=hidden;rotatable=0;points=[[0,0.5],[1,0.5]];portConstraint=eastwest;" parent="99nmjj4Q9bfn7_SC2MuP-80" vertex="1">
          <mxGeometry y="130" width="220" height="26" as="geometry" />
        </mxCell>
        <mxCell id="99nmjj4Q9bfn7_SC2MuP-85" value="+ id_employee: bigint(20)" style="text;strokeColor=none;fillColor=none;align=left;verticalAlign=top;spacingLeft=4;spacingRight=4;overflow=hidden;rotatable=0;points=[[0,0.5],[1,0.5]];portConstraint=eastwest;" parent="99nmjj4Q9bfn7_SC2MuP-80" vertex="1">
          <mxGeometry y="156" width="220" height="26" as="geometry" />
        </mxCell>
        <mxCell id="99nmjj4Q9bfn7_SC2MuP-87" value="" style="edgeStyle=entityRelationEdgeStyle;fontSize=12;html=1;endArrow=ERoneToMany;startArrow=ERmandOne;" parent="1" source="99nmjj4Q9bfn7_SC2MuP-89" target="99nmjj4Q9bfn7_SC2MuP-86" edge="1">
          <mxGeometry width="100" height="100" relative="1" as="geometry">
            <mxPoint x="-410" y="513" as="sourcePoint" />
            <mxPoint x="-310" y="413" as="targetPoint" />
          </mxGeometry>
        </mxCell>
        <mxCell id="99nmjj4Q9bfn7_SC2MuP-88" value="log_type (pa_tipolog)" style="swimlane;fontStyle=0;childLayout=stackLayout;horizontal=1;startSize=26;fillColor=none;horizontalStack=0;resizeParent=1;resizeParentMax=0;resizeLast=0;collapsible=1;marginBottom=0;" parent="1" vertex="1">
          <mxGeometry x="-950" y="440" width="220" height="104" as="geometry" />
        </mxCell>
        <mxCell id="99nmjj4Q9bfn7_SC2MuP-89" value="+ id_log_type: int(20)" style="text;strokeColor=none;fillColor=none;align=left;verticalAlign=top;spacingLeft=4;spacingRight=4;overflow=hidden;rotatable=0;points=[[0,0.5],[1,0.5]];portConstraint=eastwest;" parent="99nmjj4Q9bfn7_SC2MuP-88" vertex="1">
          <mxGeometry y="26" width="220" height="26" as="geometry" />
        </mxCell>
        <mxCell id="99nmjj4Q9bfn7_SC2MuP-90" value="+ log_type_name: string(255)" style="text;strokeColor=none;fillColor=none;align=left;verticalAlign=top;spacingLeft=4;spacingRight=4;overflow=hidden;rotatable=0;points=[[0,0.5],[1,0.5]];portConstraint=eastwest;" parent="99nmjj4Q9bfn7_SC2MuP-88" vertex="1">
          <mxGeometry y="52" width="220" height="26" as="geometry" />
        </mxCell>
        <mxCell id="WWjFzzvigEe-oElvQ5hi-3" value="+ log_type_description: text" style="text;strokeColor=none;fillColor=none;align=left;verticalAlign=top;spacingLeft=4;spacingRight=4;overflow=hidden;rotatable=0;points=[[0,0.5],[1,0.5]];portConstraint=eastwest;" parent="99nmjj4Q9bfn7_SC2MuP-88" vertex="1">
          <mxGeometry y="78" width="220" height="26" as="geometry" />
        </mxCell>
        <mxCell id="99nmjj4Q9bfn7_SC2MuP-92" value="" style="edgeStyle=entityRelationEdgeStyle;fontSize=12;html=1;endArrow=ERoneToMany;startArrow=ERmandOne;" parent="1" source="99nmjj4Q9bfn7_SC2MuP-78" target="99nmjj4Q9bfn7_SC2MuP-91" edge="1">
          <mxGeometry width="100" height="100" relative="1" as="geometry">
            <mxPoint x="440" y="1130" as="sourcePoint" />
            <mxPoint x="80" y="1010" as="targetPoint" />
          </mxGeometry>
        </mxCell>
        <mxCell id="kAV78_8R-8U5BCedtc6I-7" value="dossier_annotation (detalle_correspondencia)" style="swimlane;fontStyle=0;childLayout=stackLayout;horizontal=1;startSize=26;fillColor=none;horizontalStack=0;resizeParent=1;resizeParentMax=0;resizeLast=0;collapsible=1;marginBottom=0;" parent="1" vertex="1">
          <mxGeometry x="512.5" y="270" width="310" height="130" as="geometry" />
        </mxCell>
        <mxCell id="kAV78_8R-8U5BCedtc6I-8" value="+ id_dossier_annotation: int(11)" style="text;strokeColor=none;fillColor=none;align=left;verticalAlign=top;spacingLeft=4;spacingRight=4;overflow=hidden;rotatable=0;points=[[0,0.5],[1,0.5]];portConstraint=eastwest;" parent="kAV78_8R-8U5BCedtc6I-7" vertex="1">
          <mxGeometry y="26" width="310" height="26" as="geometry" />
        </mxCell>
        <mxCell id="kAV78_8R-8U5BCedtc6I-10" value="+ dossier_annotation_date: datetime" style="text;strokeColor=none;fillColor=none;align=left;verticalAlign=top;spacingLeft=4;spacingRight=4;overflow=hidden;rotatable=0;points=[[0,0.5],[1,0.5]];portConstraint=eastwest;" parent="kAV78_8R-8U5BCedtc6I-7" vertex="1">
          <mxGeometry y="52" width="310" height="26" as="geometry" />
        </mxCell>
        <mxCell id="kAV78_8R-8U5BCedtc6I-11" value="+ id_annotation_type: int(11)" style="text;strokeColor=none;fillColor=none;align=left;verticalAlign=top;spacingLeft=4;spacingRight=4;overflow=hidden;rotatable=0;points=[[0,0.5],[1,0.5]];portConstraint=eastwest;" parent="kAV78_8R-8U5BCedtc6I-7" vertex="1">
          <mxGeometry y="78" width="310" height="26" as="geometry" />
        </mxCell>
        <mxCell id="kAV78_8R-8U5BCedtc6I-9" value="+ id_dossier: bigint(20)" style="text;strokeColor=none;fillColor=none;align=left;verticalAlign=top;spacingLeft=4;spacingRight=4;overflow=hidden;rotatable=0;points=[[0,0.5],[1,0.5]];portConstraint=eastwest;" parent="kAV78_8R-8U5BCedtc6I-7" vertex="1">
          <mxGeometry y="104" width="310" height="26" as="geometry" />
        </mxCell>
        <mxCell id="kAV78_8R-8U5BCedtc6I-13" value="" style="edgeStyle=entityRelationEdgeStyle;fontSize=12;html=1;endArrow=ERoneToMany;startArrow=ERmandOne;" parent="1" source="99nmjj4Q9bfn7_SC2MuP-48" target="kAV78_8R-8U5BCedtc6I-9" edge="1">
          <mxGeometry width="100" height="100" relative="1" as="geometry">
            <mxPoint x="340" y="350" as="sourcePoint" />
            <mxPoint x="490" y="460" as="targetPoint" />
          </mxGeometry>
        </mxCell>
        <mxCell id="kAV78_8R-8U5BCedtc6I-14" value="location_type" style="swimlane;fontStyle=0;childLayout=stackLayout;horizontal=1;startSize=26;fillColor=none;horizontalStack=0;resizeParent=1;resizeParentMax=0;resizeLast=0;collapsible=1;marginBottom=0;" parent="1" vertex="1">
          <mxGeometry x="520" y="676" width="250" height="104" as="geometry" />
        </mxCell>
        <mxCell id="kAV78_8R-8U5BCedtc6I-15" value="+ id_location_type: int(11)" style="text;strokeColor=none;fillColor=none;align=left;verticalAlign=top;spacingLeft=4;spacingRight=4;overflow=hidden;rotatable=0;points=[[0,0.5],[1,0.5]];portConstraint=eastwest;" parent="kAV78_8R-8U5BCedtc6I-14" vertex="1">
          <mxGeometry y="26" width="250" height="26" as="geometry" />
        </mxCell>
        <mxCell id="99nmjj4Q9bfn7_SC2MuP-52" value="+ location_type_name: string(255)" style="text;strokeColor=none;fillColor=none;align=left;verticalAlign=top;spacingLeft=4;spacingRight=4;overflow=hidden;rotatable=0;points=[[0,0.5],[1,0.5]];portConstraint=eastwest;" parent="kAV78_8R-8U5BCedtc6I-14" vertex="1">
          <mxGeometry y="52" width="250" height="26" as="geometry" />
        </mxCell>
        <mxCell id="99nmjj4Q9bfn7_SC2MuP-60" value="+ location_type_description: text" style="text;strokeColor=none;fillColor=none;align=left;verticalAlign=top;spacingLeft=4;spacingRight=4;overflow=hidden;rotatable=0;points=[[0,0.5],[1,0.5]];portConstraint=eastwest;" parent="kAV78_8R-8U5BCedtc6I-14" vertex="1">
          <mxGeometry y="78" width="250" height="26" as="geometry" />
        </mxCell>
        <mxCell id="kAV78_8R-8U5BCedtc6I-19" value="dossier_term" style="swimlane;fontStyle=0;childLayout=stackLayout;horizontal=1;startSize=26;fillColor=none;horizontalStack=0;resizeParent=1;resizeParentMax=0;resizeLast=0;collapsible=1;marginBottom=0;" parent="1" vertex="1">
          <mxGeometry x="-140" y="510" width="250" height="234" as="geometry">
            <mxRectangle x="-130" y="370" width="100" height="26" as="alternateBounds" />
          </mxGeometry>
        </mxCell>
        <mxCell id="kAV78_8R-8U5BCedtc6I-20" value="+ id_dossier_term: int(11)" style="text;strokeColor=none;fillColor=none;align=left;verticalAlign=top;spacingLeft=4;spacingRight=4;overflow=hidden;rotatable=0;points=[[0,0.5],[1,0.5]];portConstraint=eastwest;" parent="kAV78_8R-8U5BCedtc6I-19" vertex="1">
          <mxGeometry y="26" width="250" height="26" as="geometry" />
        </mxCell>
        <mxCell id="99nmjj4Q9bfn7_SC2MuP-64" value="+ dossier_term_date: datetime" style="text;strokeColor=none;fillColor=none;align=left;verticalAlign=top;spacingLeft=4;spacingRight=4;overflow=hidden;rotatable=0;points=[[0,0.5],[1,0.5]];portConstraint=eastwest;" parent="kAV78_8R-8U5BCedtc6I-19" vertex="1">
          <mxGeometry y="52" width="250" height="26" as="geometry" />
        </mxCell>
        <mxCell id="WWjFzzvigEe-oElvQ5hi-4" value="+ dossier_term_registered_date: datetime" style="text;strokeColor=none;fillColor=none;align=left;verticalAlign=top;spacingLeft=4;spacingRight=4;overflow=hidden;rotatable=0;points=[[0,0.5],[1,0.5]];portConstraint=eastwest;" parent="kAV78_8R-8U5BCedtc6I-19" vertex="1">
          <mxGeometry y="78" width="250" height="26" as="geometry" />
        </mxCell>
        <mxCell id="99nmjj4Q9bfn7_SC2MuP-67" value="+ dossier_term_observation: text" style="text;strokeColor=none;fillColor=none;align=left;verticalAlign=top;spacingLeft=4;spacingRight=4;overflow=hidden;rotatable=0;points=[[0,0.5],[1,0.5]];portConstraint=eastwest;" parent="kAV78_8R-8U5BCedtc6I-19" vertex="1">
          <mxGeometry y="104" width="250" height="26" as="geometry" />
        </mxCell>
        <mxCell id="99nmjj4Q9bfn7_SC2MuP-66" value="+ dossier_term_revised: boolean" style="text;strokeColor=none;fillColor=none;align=left;verticalAlign=top;spacingLeft=4;spacingRight=4;overflow=hidden;rotatable=0;points=[[0,0.5],[1,0.5]];portConstraint=eastwest;" parent="kAV78_8R-8U5BCedtc6I-19" vertex="1">
          <mxGeometry y="130" width="250" height="26" as="geometry" />
        </mxCell>
        <mxCell id="WWjFzzvigEe-oElvQ5hi-6" value="+ id_dossier: bigint(20)" style="text;strokeColor=none;fillColor=none;align=left;verticalAlign=top;spacingLeft=4;spacingRight=4;overflow=hidden;rotatable=0;points=[[0,0.5],[1,0.5]];portConstraint=eastwest;" parent="kAV78_8R-8U5BCedtc6I-19" vertex="1">
          <mxGeometry y="156" width="250" height="26" as="geometry" />
        </mxCell>
        <mxCell id="kAV78_8R-8U5BCedtc6I-175" value="+ id_employee: bigint(20)" style="text;strokeColor=none;fillColor=none;align=left;verticalAlign=top;spacingLeft=4;spacingRight=4;overflow=hidden;rotatable=0;points=[[0,0.5],[1,0.5]];portConstraint=eastwest;" parent="kAV78_8R-8U5BCedtc6I-19" vertex="1">
          <mxGeometry y="182" width="250" height="26" as="geometry" />
        </mxCell>
        <mxCell id="kAV78_8R-8U5BCedtc6I-41" value="+ id_term_type: int(11)" style="text;strokeColor=none;fillColor=none;align=left;verticalAlign=top;spacingLeft=4;spacingRight=4;overflow=hidden;rotatable=0;points=[[0,0.5],[1,0.5]];portConstraint=eastwest;" parent="kAV78_8R-8U5BCedtc6I-19" vertex="1">
          <mxGeometry y="208" width="250" height="26" as="geometry" />
        </mxCell>
        <mxCell id="kAV78_8R-8U5BCedtc6I-24" value="location_dossier" style="swimlane;fontStyle=0;childLayout=stackLayout;horizontal=1;startSize=26;fillColor=none;horizontalStack=0;resizeParent=1;resizeParentMax=0;resizeLast=0;collapsible=1;marginBottom=0;" parent="1" vertex="1">
          <mxGeometry x="520" y="820" width="250" height="182" as="geometry" />
        </mxCell>
        <mxCell id="kAV78_8R-8U5BCedtc6I-25" value="+ id_location_dossier: int(11)" style="text;strokeColor=none;fillColor=none;align=left;verticalAlign=top;spacingLeft=4;spacingRight=4;overflow=hidden;rotatable=0;points=[[0,0.5],[1,0.5]];portConstraint=eastwest;" parent="kAV78_8R-8U5BCedtc6I-24" vertex="1">
          <mxGeometry y="26" width="250" height="26" as="geometry" />
        </mxCell>
        <mxCell id="kAV78_8R-8U5BCedtc6I-26" value="+ floor_location_dossier: int(11)" style="text;strokeColor=none;fillColor=none;align=left;verticalAlign=top;spacingLeft=4;spacingRight=4;overflow=hidden;rotatable=0;points=[[0,0.5],[1,0.5]];portConstraint=eastwest;" parent="kAV78_8R-8U5BCedtc6I-24" vertex="1">
          <mxGeometry y="52" width="250" height="26" as="geometry" />
        </mxCell>
        <mxCell id="kAV78_8R-8U5BCedtc6I-27" value="+ location_dossier_observation: text" style="text;strokeColor=none;fillColor=none;align=left;verticalAlign=top;spacingLeft=4;spacingRight=4;overflow=hidden;rotatable=0;points=[[0,0.5],[1,0.5]];portConstraint=eastwest;" parent="kAV78_8R-8U5BCedtc6I-24" vertex="1">
          <mxGeometry y="78" width="250" height="26" as="geometry" />
        </mxCell>
        <mxCell id="kAV78_8R-8U5BCedtc6I-28" value="+ position: string(255)" style="text;strokeColor=none;fillColor=none;align=left;verticalAlign=top;spacingLeft=4;spacingRight=4;overflow=hidden;rotatable=0;points=[[0,0.5],[1,0.5]];portConstraint=eastwest;" parent="kAV78_8R-8U5BCedtc6I-24" vertex="1">
          <mxGeometry y="104" width="250" height="26" as="geometry" />
        </mxCell>
        <mxCell id="99nmjj4Q9bfn7_SC2MuP-63" value="+ location_dossier_date: datetime" style="text;strokeColor=none;fillColor=none;align=left;verticalAlign=top;spacingLeft=4;spacingRight=4;overflow=hidden;rotatable=0;points=[[0,0.5],[1,0.5]];portConstraint=eastwest;" parent="kAV78_8R-8U5BCedtc6I-24" vertex="1">
          <mxGeometry y="130" width="250" height="26" as="geometry" />
        </mxCell>
        <mxCell id="kAV78_8R-8U5BCedtc6I-29" value="+ id_location_type: int(11)" style="text;strokeColor=none;fillColor=none;align=left;verticalAlign=top;spacingLeft=4;spacingRight=4;overflow=hidden;rotatable=0;points=[[0,0.5],[1,0.5]];portConstraint=eastwest;" parent="kAV78_8R-8U5BCedtc6I-24" vertex="1">
          <mxGeometry y="156" width="250" height="26" as="geometry" />
        </mxCell>
        <mxCell id="kAV78_8R-8U5BCedtc6I-30" value="" style="edgeStyle=entityRelationEdgeStyle;fontSize=12;html=1;endArrow=ERoneToMany;startArrow=ERmandOne;" parent="1" source="kAV78_8R-8U5BCedtc6I-15" target="kAV78_8R-8U5BCedtc6I-29" edge="1">
          <mxGeometry width="100" height="100" relative="1" as="geometry">
            <mxPoint x="410" y="710" as="sourcePoint" />
            <mxPoint x="510" y="610" as="targetPoint" />
          </mxGeometry>
        </mxCell>
        <mxCell id="kAV78_8R-8U5BCedtc6I-33" value="" style="edgeStyle=entityRelationEdgeStyle;fontSize=12;html=1;endArrow=ERoneToMany;startArrow=ERmandOne;" parent="1" source="kAV78_8R-8U5BCedtc6I-25" target="kAV78_8R-8U5BCedtc6I-31" edge="1">
          <mxGeometry width="100" height="100" relative="1" as="geometry">
            <mxPoint x="480" y="760" as="sourcePoint" />
            <mxPoint x="440" y="750" as="targetPoint" />
          </mxGeometry>
        </mxCell>
        <mxCell id="kAV78_8R-8U5BCedtc6I-34" value="" style="edgeStyle=entityRelationEdgeStyle;fontSize=12;html=1;endArrow=ERoneToMany;startArrow=ERmandOne;" parent="1" source="99nmjj4Q9bfn7_SC2MuP-48" target="WWjFzzvigEe-oElvQ5hi-6" edge="1">
          <mxGeometry width="100" height="100" relative="1" as="geometry">
            <mxPoint x="340" y="750" as="sourcePoint" />
            <mxPoint x="440" y="650" as="targetPoint" />
          </mxGeometry>
        </mxCell>
        <mxCell id="kAV78_8R-8U5BCedtc6I-36" value="term_type" style="swimlane;fontStyle=0;childLayout=stackLayout;horizontal=1;startSize=26;fillColor=none;horizontalStack=0;resizeParent=1;resizeParentMax=0;resizeLast=0;collapsible=1;marginBottom=0;" parent="1" vertex="1">
          <mxGeometry x="-140" y="772" width="250" height="130" as="geometry" />
        </mxCell>
        <mxCell id="kAV78_8R-8U5BCedtc6I-37" value="+ id_term_type: int(11)" style="text;strokeColor=none;fillColor=none;align=left;verticalAlign=top;spacingLeft=4;spacingRight=4;overflow=hidden;rotatable=0;points=[[0,0.5],[1,0.5]];portConstraint=eastwest;" parent="kAV78_8R-8U5BCedtc6I-36" vertex="1">
          <mxGeometry y="26" width="250" height="26" as="geometry" />
        </mxCell>
        <mxCell id="kAV78_8R-8U5BCedtc6I-38" value="+ term_name: string(255)" style="text;strokeColor=none;fillColor=none;align=left;verticalAlign=top;spacingLeft=4;spacingRight=4;overflow=hidden;rotatable=0;points=[[0,0.5],[1,0.5]];portConstraint=eastwest;" parent="kAV78_8R-8U5BCedtc6I-36" vertex="1">
          <mxGeometry y="52" width="250" height="26" as="geometry" />
        </mxCell>
        <mxCell id="kAV78_8R-8U5BCedtc6I-40" value="+ term_type_days: int(11)" style="text;strokeColor=none;fillColor=none;align=left;verticalAlign=top;spacingLeft=4;spacingRight=4;overflow=hidden;rotatable=0;points=[[0,0.5],[1,0.5]];portConstraint=eastwest;" parent="kAV78_8R-8U5BCedtc6I-36" vertex="1">
          <mxGeometry y="78" width="250" height="26" as="geometry" />
        </mxCell>
        <mxCell id="kAV78_8R-8U5BCedtc6I-39" value="+ term_type_description: text" style="text;strokeColor=none;fillColor=none;align=left;verticalAlign=top;spacingLeft=4;spacingRight=4;overflow=hidden;rotatable=0;points=[[0,0.5],[1,0.5]];portConstraint=eastwest;" parent="kAV78_8R-8U5BCedtc6I-36" vertex="1">
          <mxGeometry y="104" width="250" height="26" as="geometry" />
        </mxCell>
        <mxCell id="kAV78_8R-8U5BCedtc6I-42" value="" style="edgeStyle=entityRelationEdgeStyle;fontSize=12;html=1;endArrow=ERoneToMany;startArrow=ERmandOne;" parent="1" source="kAV78_8R-8U5BCedtc6I-37" target="kAV78_8R-8U5BCedtc6I-41" edge="1">
          <mxGeometry width="100" height="100" relative="1" as="geometry">
            <mxPoint x="-260" y="420" as="sourcePoint" />
            <mxPoint x="-160" y="320" as="targetPoint" />
          </mxGeometry>
        </mxCell>
        <mxCell id="kAV78_8R-8U5BCedtc6I-43" value="correspondence (correspondencia)" style="swimlane;fontStyle=0;childLayout=stackLayout;horizontal=1;startSize=26;fillColor=none;horizontalStack=0;resizeParent=1;resizeParentMax=0;resizeLast=0;collapsible=1;marginBottom=0;" parent="1" vertex="1">
          <mxGeometry x="-135" y="-275" width="240" height="312" as="geometry" />
        </mxCell>
        <mxCell id="kAV78_8R-8U5BCedtc6I-44" value="+ id_correspondence: int(11)" style="text;strokeColor=none;fillColor=none;align=left;verticalAlign=top;spacingLeft=4;spacingRight=4;overflow=hidden;rotatable=0;points=[[0,0.5],[1,0.5]];portConstraint=eastwest;" parent="kAV78_8R-8U5BCedtc6I-43" vertex="1">
          <mxGeometry y="26" width="240" height="26" as="geometry" />
        </mxCell>
        <mxCell id="kAV78_8R-8U5BCedtc6I-45" value="+ correspondence_date: datetime" style="text;strokeColor=none;fillColor=none;align=left;verticalAlign=top;spacingLeft=4;spacingRight=4;overflow=hidden;rotatable=0;points=[[0,0.5],[1,0.5]];portConstraint=eastwest;" parent="kAV78_8R-8U5BCedtc6I-43" vertex="1">
          <mxGeometry y="52" width="240" height="26" as="geometry" />
        </mxCell>
        <mxCell id="kAV78_8R-8U5BCedtc6I-47" value="+ pettioner_identification: string(255)" style="text;strokeColor=none;fillColor=none;align=left;verticalAlign=top;spacingLeft=4;spacingRight=4;overflow=hidden;rotatable=0;points=[[0,0.5],[1,0.5]];portConstraint=eastwest;" parent="kAV78_8R-8U5BCedtc6I-43" vertex="1">
          <mxGeometry y="78" width="240" height="26" as="geometry" />
        </mxCell>
        <mxCell id="kAV78_8R-8U5BCedtc6I-46" value="+ petitioner: string(255)" style="text;strokeColor=none;fillColor=none;align=left;verticalAlign=top;spacingLeft=4;spacingRight=4;overflow=hidden;rotatable=0;points=[[0,0.5],[1,0.5]];portConstraint=eastwest;" parent="kAV78_8R-8U5BCedtc6I-43" vertex="1">
          <mxGeometry y="104" width="240" height="26" as="geometry" />
        </mxCell>
        <mxCell id="kAV78_8R-8U5BCedtc6I-49" value="+ pettioner_phone: string(255)" style="text;strokeColor=none;fillColor=none;align=left;verticalAlign=top;spacingLeft=4;spacingRight=4;overflow=hidden;rotatable=0;points=[[0,0.5],[1,0.5]];portConstraint=eastwest;" parent="kAV78_8R-8U5BCedtc6I-43" vertex="1">
          <mxGeometry y="130" width="240" height="26" as="geometry" />
        </mxCell>
        <mxCell id="kAV78_8R-8U5BCedtc6I-79" value="+ pages_correspondence: int(11)" style="text;strokeColor=none;fillColor=none;align=left;verticalAlign=top;spacingLeft=4;spacingRight=4;overflow=hidden;rotatable=0;points=[[0,0.5],[1,0.5]];portConstraint=eastwest;" parent="kAV78_8R-8U5BCedtc6I-43" vertex="1">
          <mxGeometry y="156" width="240" height="26" as="geometry" />
        </mxCell>
        <mxCell id="kAV78_8R-8U5BCedtc6I-48" value="+ id_document_type: int(11)" style="text;strokeColor=none;fillColor=none;align=left;verticalAlign=top;spacingLeft=4;spacingRight=4;overflow=hidden;rotatable=0;points=[[0,0.5],[1,0.5]];portConstraint=eastwest;" parent="kAV78_8R-8U5BCedtc6I-43" vertex="1">
          <mxGeometry y="182" width="240" height="26" as="geometry" />
        </mxCell>
        <mxCell id="kAV78_8R-8U5BCedtc6I-80" value="+ id_request_type: int(11)" style="text;strokeColor=none;fillColor=none;align=left;verticalAlign=top;spacingLeft=4;spacingRight=4;overflow=hidden;rotatable=0;points=[[0,0.5],[1,0.5]];portConstraint=eastwest;" parent="kAV78_8R-8U5BCedtc6I-43" vertex="1">
          <mxGeometry y="208" width="240" height="26" as="geometry" />
        </mxCell>
        <mxCell id="WWjFzzvigEe-oElvQ5hi-7" value="+ id_dossier: bigint(20)" style="text;strokeColor=none;fillColor=none;align=left;verticalAlign=top;spacingLeft=4;spacingRight=4;overflow=hidden;rotatable=0;points=[[0,0.5],[1,0.5]];portConstraint=eastwest;" parent="kAV78_8R-8U5BCedtc6I-43" vertex="1">
          <mxGeometry y="234" width="240" height="26" as="geometry" />
        </mxCell>
        <mxCell id="mpsy4wO5Bwl3DI2ihhuN-30" value="+ id_user: bigint(20)" style="text;strokeColor=none;fillColor=#FFCC99;align=left;verticalAlign=top;spacingLeft=4;spacingRight=4;overflow=hidden;rotatable=0;points=[[0,0.5],[1,0.5]];portConstraint=eastwest;" parent="kAV78_8R-8U5BCedtc6I-43" vertex="1">
          <mxGeometry y="260" width="240" height="26" as="geometry" />
        </mxCell>
        <mxCell id="WWjFzzvigEe-oElvQ5hi-8" value="+ id_employee_registered: bigint(20)" style="text;strokeColor=none;fillColor=none;align=left;verticalAlign=top;spacingLeft=4;spacingRight=4;overflow=hidden;rotatable=0;points=[[0,0.5],[1,0.5]];portConstraint=eastwest;" parent="kAV78_8R-8U5BCedtc6I-43" vertex="1">
          <mxGeometry y="286" width="240" height="26" as="geometry" />
        </mxCell>
        <mxCell id="kAV78_8R-8U5BCedtc6I-51" value="document_type" style="swimlane;fontStyle=0;childLayout=stackLayout;horizontal=1;startSize=26;fillColor=none;horizontalStack=0;resizeParent=1;resizeParentMax=0;resizeLast=0;collapsible=1;marginBottom=0;" parent="1" vertex="1">
          <mxGeometry x="532.5" y="10" width="245" height="104" as="geometry" />
        </mxCell>
        <mxCell id="kAV78_8R-8U5BCedtc6I-57" value="+ id_document_type: int(11)" style="text;strokeColor=none;fillColor=none;align=left;verticalAlign=top;spacingLeft=4;spacingRight=4;overflow=hidden;rotatable=0;points=[[0,0.5],[1,0.5]];portConstraint=eastwest;" parent="kAV78_8R-8U5BCedtc6I-51" vertex="1">
          <mxGeometry y="26" width="245" height="26" as="geometry" />
        </mxCell>
        <mxCell id="kAV78_8R-8U5BCedtc6I-58" value="+ document_type_name: string(255)" style="text;strokeColor=none;fillColor=none;align=left;verticalAlign=top;spacingLeft=4;spacingRight=4;overflow=hidden;rotatable=0;points=[[0,0.5],[1,0.5]];portConstraint=eastwest;" parent="kAV78_8R-8U5BCedtc6I-51" vertex="1">
          <mxGeometry y="52" width="245" height="26" as="geometry" />
        </mxCell>
        <mxCell id="kAV78_8R-8U5BCedtc6I-59" value="+ document_type_description: text" style="text;strokeColor=none;fillColor=none;align=left;verticalAlign=top;spacingLeft=4;spacingRight=4;overflow=hidden;rotatable=0;points=[[0,0.5],[1,0.5]];portConstraint=eastwest;" parent="kAV78_8R-8U5BCedtc6I-51" vertex="1">
          <mxGeometry y="78" width="245" height="26" as="geometry" />
        </mxCell>
        <mxCell id="kAV78_8R-8U5BCedtc6I-60" value="" style="edgeStyle=entityRelationEdgeStyle;fontSize=12;html=1;endArrow=ERoneToMany;startArrow=ERmandOne;" parent="1" source="kAV78_8R-8U5BCedtc6I-57" target="kAV78_8R-8U5BCedtc6I-48" edge="1">
          <mxGeometry width="100" height="100" relative="1" as="geometry">
            <mxPoint x="240" y="320" as="sourcePoint" />
            <mxPoint x="340" y="220" as="targetPoint" />
          </mxGeometry>
        </mxCell>
        <mxCell id="kAV78_8R-8U5BCedtc6I-62" value="" style="edgeStyle=entityRelationEdgeStyle;fontSize=12;html=1;endArrow=ERoneToMany;startArrow=ERmandOne;" parent="1" source="99nmjj4Q9bfn7_SC2MuP-48" target="WWjFzzvigEe-oElvQ5hi-7" edge="1">
          <mxGeometry width="100" height="100" relative="1" as="geometry">
            <mxPoint x="240" y="520" as="sourcePoint" />
            <mxPoint x="370" y="470" as="targetPoint" />
          </mxGeometry>
        </mxCell>
        <mxCell id="kAV78_8R-8U5BCedtc6I-64" value="" style="edgeStyle=entityRelationEdgeStyle;fontSize=12;html=1;endArrow=ERoneToMany;startArrow=ERmandOne;" parent="1" source="99nmjj4Q9bfn7_SC2MuP-8" target="uwlaLx61UvlyAh1Fpi0u-1" edge="1">
          <mxGeometry width="100" height="100" relative="1" as="geometry">
            <mxPoint y="1170" as="sourcePoint" />
            <mxPoint x="-140" y="1005" as="targetPoint" />
          </mxGeometry>
        </mxCell>
        <mxCell id="kAV78_8R-8U5BCedtc6I-67" value="" style="edgeStyle=entityRelationEdgeStyle;fontSize=12;html=1;endArrow=ERoneToMany;startArrow=ERmandOne;" parent="1" source="99nmjj4Q9bfn7_SC2MuP-8" target="uwlaLx61UvlyAh1Fpi0u-6" edge="1">
          <mxGeometry width="100" height="100" relative="1" as="geometry">
            <mxPoint x="195" y="1115" as="sourcePoint" />
            <mxPoint x="-140" y="1299" as="targetPoint" />
          </mxGeometry>
        </mxCell>
        <mxCell id="kAV78_8R-8U5BCedtc6I-81" value="request_type" style="swimlane;fontStyle=0;childLayout=stackLayout;horizontal=1;startSize=26;fillColor=none;horizontalStack=0;resizeParent=1;resizeParentMax=0;resizeLast=0;collapsible=1;marginBottom=0;" parent="1" vertex="1">
          <mxGeometry x="530" y="130" width="245" height="104" as="geometry" />
        </mxCell>
        <mxCell id="kAV78_8R-8U5BCedtc6I-82" value="+ id_request_type: int(11)" style="text;strokeColor=none;fillColor=none;align=left;verticalAlign=top;spacingLeft=4;spacingRight=4;overflow=hidden;rotatable=0;points=[[0,0.5],[1,0.5]];portConstraint=eastwest;" parent="kAV78_8R-8U5BCedtc6I-81" vertex="1">
          <mxGeometry y="26" width="245" height="26" as="geometry" />
        </mxCell>
        <mxCell id="kAV78_8R-8U5BCedtc6I-83" value="+ request_type_name: string(255)" style="text;strokeColor=none;fillColor=none;align=left;verticalAlign=top;spacingLeft=4;spacingRight=4;overflow=hidden;rotatable=0;points=[[0,0.5],[1,0.5]];portConstraint=eastwest;" parent="kAV78_8R-8U5BCedtc6I-81" vertex="1">
          <mxGeometry y="52" width="245" height="26" as="geometry" />
        </mxCell>
        <mxCell id="kAV78_8R-8U5BCedtc6I-84" value="+ request_type_description: text" style="text;strokeColor=none;fillColor=none;align=left;verticalAlign=top;spacingLeft=4;spacingRight=4;overflow=hidden;rotatable=0;points=[[0,0.5],[1,0.5]];portConstraint=eastwest;" parent="kAV78_8R-8U5BCedtc6I-81" vertex="1">
          <mxGeometry y="78" width="245" height="26" as="geometry" />
        </mxCell>
        <mxCell id="kAV78_8R-8U5BCedtc6I-85" value="" style="edgeStyle=entityRelationEdgeStyle;fontSize=12;html=1;endArrow=ERoneToMany;startArrow=ERmandOne;" parent="1" source="kAV78_8R-8U5BCedtc6I-84" target="kAV78_8R-8U5BCedtc6I-80" edge="1">
          <mxGeometry width="100" height="100" relative="1" as="geometry">
            <mxPoint x="240" y="1520" as="sourcePoint" />
            <mxPoint x="340" y="1420" as="targetPoint" />
          </mxGeometry>
        </mxCell>
        <mxCell id="kAV78_8R-8U5BCedtc6I-101" value="" style="edgeStyle=entityRelationEdgeStyle;fontSize=12;html=1;endArrow=ERoneToMany;startArrow=ERmandOne;" parent="1" source="99nmjj4Q9bfn7_SC2MuP-8" target="99nmjj4Q9bfn7_SC2MuP-85" edge="1">
          <mxGeometry width="100" height="100" relative="1" as="geometry">
            <mxPoint x="-120" y="990" as="sourcePoint" />
            <mxPoint x="-20" y="890" as="targetPoint" />
          </mxGeometry>
        </mxCell>
        <mxCell id="kAV78_8R-8U5BCedtc6I-103" value="blocked_type" style="swimlane;fontStyle=0;childLayout=stackLayout;horizontal=1;startSize=26;fillColor=none;horizontalStack=0;resizeParent=1;resizeParentMax=0;resizeLast=0;collapsible=1;marginBottom=0;" parent="1" vertex="1">
          <mxGeometry x="-180" y="1090" width="250" height="104" as="geometry" />
        </mxCell>
        <mxCell id="kAV78_8R-8U5BCedtc6I-104" value="+ id_blocked_type: int(11)" style="text;strokeColor=none;fillColor=none;align=left;verticalAlign=top;spacingLeft=4;spacingRight=4;overflow=hidden;rotatable=0;points=[[0,0.5],[1,0.5]];portConstraint=eastwest;" parent="kAV78_8R-8U5BCedtc6I-103" vertex="1">
          <mxGeometry y="26" width="250" height="26" as="geometry" />
        </mxCell>
        <mxCell id="kAV78_8R-8U5BCedtc6I-105" value="+ blocked_type_name: string(255)" style="text;strokeColor=none;fillColor=none;align=left;verticalAlign=top;spacingLeft=4;spacingRight=4;overflow=hidden;rotatable=0;points=[[0,0.5],[1,0.5]];portConstraint=eastwest;" parent="kAV78_8R-8U5BCedtc6I-103" vertex="1">
          <mxGeometry y="52" width="250" height="26" as="geometry" />
        </mxCell>
        <mxCell id="kAV78_8R-8U5BCedtc6I-106" value="+ blocked_type_description: text" style="text;strokeColor=none;fillColor=none;align=left;verticalAlign=top;spacingLeft=4;spacingRight=4;overflow=hidden;rotatable=0;points=[[0,0.5],[1,0.5]];portConstraint=eastwest;" parent="kAV78_8R-8U5BCedtc6I-103" vertex="1">
          <mxGeometry y="78" width="250" height="26" as="geometry" />
        </mxCell>
        <mxCell id="kAV78_8R-8U5BCedtc6I-113" value="" style="edgeStyle=entityRelationEdgeStyle;fontSize=12;html=1;endArrow=ERoneToMany;startArrow=ERmandOne;" parent="1" source="kAV78_8R-8U5BCedtc6I-104" target="uwlaLx61UvlyAh1Fpi0u-10" edge="1">
          <mxGeometry width="100" height="100" relative="1" as="geometry">
            <mxPoint x="10" y="1470" as="sourcePoint" />
            <mxPoint x="110" y="1403" as="targetPoint" />
          </mxGeometry>
        </mxCell>
        <mxCell id="kAV78_8R-8U5BCedtc6I-121" style="edgeStyle=orthogonalEdgeStyle;rounded=0;orthogonalLoop=1;jettySize=auto;html=1;" parent="1" source="99nmjj4Q9bfn7_SC2MuP-77" target="kAV78_8R-8U5BCedtc6I-125" edge="1">
          <mxGeometry relative="1" as="geometry">
            <mxPoint x="880" y="1325" as="targetPoint" />
          </mxGeometry>
        </mxCell>
        <mxCell id="kAV78_8R-8U5BCedtc6I-125" value="- Tutela&lt;br&gt;- Demanda" style="whiteSpace=wrap;html=1;align=left;fillColor=#99FF99;" parent="1" vertex="1">
          <mxGeometry x="920" y="1305" width="100" height="40" as="geometry" />
        </mxCell>
        <mxCell id="kAV78_8R-8U5BCedtc6I-128" style="edgeStyle=orthogonalEdgeStyle;rounded=0;orthogonalLoop=1;jettySize=auto;html=1;" parent="1" source="kAV78_8R-8U5BCedtc6I-81" target="kAV78_8R-8U5BCedtc6I-129" edge="1">
          <mxGeometry relative="1" as="geometry">
            <mxPoint x="950" y="1475" as="targetPoint" />
            <mxPoint x="797.5" y="1462" as="sourcePoint" />
          </mxGeometry>
        </mxCell>
        <mxCell id="kAV78_8R-8U5BCedtc6I-129" value="&lt;div&gt;SOLICITUDES MEMORIAL&lt;/div&gt;&lt;div&gt;&lt;br&gt;&lt;/div&gt;&lt;div&gt;Acepta Cargo Secuestre&lt;/div&gt;&lt;div&gt;Acepta Designación Como Curador AD LITEM&lt;/div&gt;&lt;div&gt;Acta De Entrega Secuestre&lt;/div&gt;&lt;div&gt;Acumulaciones&lt;/div&gt;&lt;div&gt;Agregar Despacho Comisorio&lt;/div&gt;&lt;div&gt;Apoderados&lt;/div&gt;&lt;div&gt;Aporta Abono&lt;/div&gt;&lt;div&gt;Aporta AvalÃºo&lt;/div&gt;&lt;div&gt;Aporta Caución Póliza Judicial&lt;/div&gt;&lt;div&gt;Aporta Certificado Catastral&lt;/div&gt;&lt;div&gt;Aporta Certificado de Tradición Remate&lt;/div&gt;&lt;div&gt;Aporta Gastos&lt;/div&gt;&lt;div&gt;Aporta Liquidación de Crédito&lt;/div&gt;&lt;div&gt;Aporta Poder&lt;/div&gt;&lt;div&gt;Aporta Publicaciones De Remate&lt;/div&gt;&lt;div&gt;Autorización para Retirar Documentos&lt;/div&gt;&lt;div&gt;Autorización para Revisar Proceso&lt;/div&gt;&lt;div&gt;Bancos&lt;/div&gt;&lt;div&gt;Cambio Dirección Apoderado&lt;/div&gt;&lt;div&gt;Cancelación de Embargo&lt;/div&gt;&lt;div&gt;Cancelación Honorarios&lt;/div&gt;&lt;div&gt;Cancelación Honorarios Secuestre&lt;/div&gt;&lt;div&gt;Certificado De Existencia Y Representación&lt;/div&gt;&lt;div&gt;Certificado De Tradición&lt;/div&gt;&lt;div&gt;Cesión de Crédito&lt;/div&gt;&lt;div&gt;Citación a Tercer Acreedor&lt;/div&gt;&lt;div&gt;Comunicación Embargo&lt;/div&gt;&lt;div&gt;Consignación Excedente Remate&lt;/div&gt;&lt;div&gt;Constancia de Consignación&lt;/div&gt;&lt;div&gt;Constancia Entrega Oficio&lt;/div&gt;&lt;div&gt;Constancia Envío Oficio&lt;/div&gt;&lt;div&gt;Contestación Demanda&lt;/div&gt;&lt;div&gt;Copias&lt;/div&gt;&lt;div&gt;Créditos y Costas&lt;/div&gt;&lt;div&gt;Dependencia Judicial&lt;/div&gt;&lt;div&gt;MemorialDerechoPeticion&lt;/div&gt;&lt;div&gt;Derecho Petición&lt;/div&gt;&lt;div&gt;Desistimiento Tácito&lt;/div&gt;&lt;div&gt;Devolución Expediente&lt;/div&gt;&lt;div&gt;Devolución Incidente de Desacato Circuito&lt;/div&gt;&lt;div&gt;Devolución Notificación Tutela&lt;/div&gt;&lt;div&gt;Devolución Oficio&lt;/div&gt;&lt;div&gt;Devolución Oficio Tutela 472&lt;/div&gt;&lt;div&gt;Direccion Notificaciones&lt;/div&gt;&lt;div&gt;Direccion para Notificación Acreedor Hipotecario&lt;/div&gt;&lt;div&gt;Emplazamiento&lt;/div&gt;&lt;div&gt;Entrega de Inmuebles&lt;/div&gt;&lt;div&gt;Expediente Digital&lt;/div&gt;&lt;div&gt;Fijar Fecha para Remate&lt;/div&gt;&lt;div&gt;Fijar Honorarios&lt;/div&gt;&lt;div&gt;Impugnación Tutela&lt;/div&gt;&lt;div&gt;Incidente&lt;/div&gt;&lt;div&gt;Incidente de Desacato Respuesta&lt;/div&gt;&lt;div&gt;Incidente de Desacato Solicitud&lt;/div&gt;&lt;div&gt;Incidente Desacato en Salud&lt;/div&gt;&lt;div&gt;Incidente Desacato Ingreso&lt;/div&gt;&lt;div&gt;Informe Final&lt;/div&gt;&lt;div&gt;Informe Mensual&lt;/div&gt;&lt;div&gt;Levantamiento de Medidas&lt;/div&gt;&lt;div&gt;Medidas Cautelares&lt;/div&gt;&lt;div&gt;No Acepta Designación Como Curador AD LITEM&lt;/div&gt;&lt;div&gt;Notificaciones&lt;/div&gt;&lt;div&gt;Nueva Dirección Notificaciones&lt;/div&gt;&lt;div&gt;Objecion al Dictamen Pericial&lt;/div&gt;&lt;div&gt;Objeta Liquidación&lt;/div&gt;&lt;div&gt;Otra Solicitudes a Despacho&lt;/div&gt;&lt;div&gt;Otras&lt;/div&gt;&lt;div&gt;Pago Honorarios&lt;/div&gt;&lt;div&gt;Préstamo Expediente&lt;/div&gt;&lt;div&gt;Reanuda Proceso&lt;/div&gt;&lt;div&gt;Reconocimiento de Personería&lt;/div&gt;&lt;div&gt;Recurso de Reposición&lt;/div&gt;&lt;div&gt;Reexpedición Oficios&lt;/div&gt;&lt;div&gt;Remanentes&lt;/div&gt;&lt;div&gt;Renuncia de Poder&lt;/div&gt;&lt;div&gt;Reporte 472&lt;/div&gt;&lt;div&gt;Requerir Al IGAC&lt;/div&gt;&lt;div&gt;Requerir EPS Información Empleado&lt;/div&gt;&lt;div&gt;Requerir Secuestre&lt;/div&gt;&lt;div&gt;Requiere Ordenar Comisión&lt;/div&gt;&lt;div&gt;Requiere Pagador&lt;/div&gt;&lt;div&gt;Respuesta Remanentes&lt;/div&gt;&lt;div&gt;Respuesta Requerimiento&lt;/div&gt;&lt;div&gt;Respuesta Requerimiento Despacho&lt;/div&gt;&lt;div&gt;Respuesta Tutela&lt;/div&gt;&lt;div&gt;Sanción Pagador&lt;/div&gt;&lt;div&gt;Solicita Desglose&lt;/div&gt;&lt;div&gt;Solicita Envío de Expediente para Acumulación&lt;/div&gt;&lt;div&gt;Solicita Que Se Nombre Curador AD LITEM&lt;/div&gt;&lt;div&gt;Solicitud Información&lt;/div&gt;&lt;div&gt;Solicitud Oficios&lt;/div&gt;&lt;div&gt;Subrogación&lt;/div&gt;&lt;div&gt;Suspensión de Remate&lt;/div&gt;&lt;div&gt;Suspensión Proceso&lt;/div&gt;&lt;div&gt;Sustitución de Poder&lt;/div&gt;&lt;div&gt;Terminaciones&lt;/div&gt;&lt;div&gt;Títulos&lt;/div&gt;&lt;div&gt;Tramite Derivado Remate&lt;/div&gt;" style="whiteSpace=wrap;html=1;align=left;fillColor=#FFCC99;" parent="1" vertex="1">
          <mxGeometry x="1580" y="-528" width="300" height="1452" as="geometry" />
        </mxCell>
        <mxCell id="kAV78_8R-8U5BCedtc6I-130" style="edgeStyle=orthogonalEdgeStyle;rounded=0;orthogonalLoop=1;jettySize=auto;html=1;" parent="1" source="kAV78_8R-8U5BCedtc6I-51" target="kAV78_8R-8U5BCedtc6I-131" edge="1">
          <mxGeometry relative="1" as="geometry">
            <mxPoint x="948.53" y="1620" as="targetPoint" />
            <mxPoint x="797.4999999999998" y="1613.9940000000001" as="sourcePoint" />
          </mxGeometry>
        </mxCell>
        <mxCell id="kAV78_8R-8U5BCedtc6I-131" value="- Memorial - entrada&lt;br&gt;- Oficio - salida&lt;br&gt;- Auto&lt;br&gt;- Despachos comisorios" style="whiteSpace=wrap;html=1;align=left;fillColor=#99FF99;" parent="1" vertex="1">
          <mxGeometry x="900" y="37" width="140" height="73" as="geometry" />
        </mxCell>
        <mxCell id="kAV78_8R-8U5BCedtc6I-132" style="edgeStyle=orthogonalEdgeStyle;rounded=0;orthogonalLoop=1;jettySize=auto;html=1;" parent="1" source="kAV78_8R-8U5BCedtc6I-103" target="kAV78_8R-8U5BCedtc6I-133" edge="1">
          <mxGeometry relative="1" as="geometry">
            <mxPoint x="-320" y="1573" as="targetPoint" />
            <mxPoint x="-472.5" y="1560" as="sourcePoint" />
          </mxGeometry>
        </mxCell>
        <mxCell id="kAV78_8R-8U5BCedtc6I-133" value="- Reorganización&lt;br&gt;- Perdida de competencia&lt;br&gt;- Liquidación&lt;br&gt;- Negociación de deudas&lt;br&gt;- Insolvencia" style="whiteSpace=wrap;html=1;align=left;fillColor=#99FF99;" parent="1" vertex="1">
          <mxGeometry x="-135" y="1364" width="160" height="72" as="geometry" />
        </mxCell>
        <mxCell id="kAV78_8R-8U5BCedtc6I-134" style="edgeStyle=orthogonalEdgeStyle;rounded=0;orthogonalLoop=1;jettySize=auto;html=1;" parent="1" source="99nmjj4Q9bfn7_SC2MuP-88" target="kAV78_8R-8U5BCedtc6I-135" edge="1">
          <mxGeometry relative="1" as="geometry">
            <mxPoint x="-530" y="619" as="targetPoint" />
            <mxPoint x="-350" y="588" as="sourcePoint" />
          </mxGeometry>
        </mxCell>
        <mxCell id="kAV78_8R-8U5BCedtc6I-135" value="- Archivo&lt;br&gt;- Correspondencia&lt;br&gt;- Arancel&lt;br&gt;- SIREG&lt;br&gt;- Administrar&lt;br&gt;- MOLIC&lt;br&gt;- Hoja de vida&lt;br&gt;- Expediente digital" style="whiteSpace=wrap;html=1;align=left;fillColor=#99FF99;" parent="1" vertex="1">
          <mxGeometry x="-1160" y="440" width="140" height="128.5" as="geometry" />
        </mxCell>
        <mxCell id="kAV78_8R-8U5BCedtc6I-136" style="edgeStyle=orthogonalEdgeStyle;rounded=0;orthogonalLoop=1;jettySize=auto;html=1;" parent="1" source="kAV78_8R-8U5BCedtc6I-14" target="kAV78_8R-8U5BCedtc6I-137" edge="1">
          <mxGeometry relative="1" as="geometry">
            <mxPoint x="932.5" y="532" as="targetPoint" />
            <mxPoint x="780" y="590" as="sourcePoint" />
          </mxGeometry>
        </mxCell>
        <mxCell id="kAV78_8R-8U5BCedtc6I-137" value="- Caja de origen - activos&lt;br&gt;- Caja de archivo - archivados" style="whiteSpace=wrap;html=1;align=left;fillColor=#99FF99;" parent="1" vertex="1">
          <mxGeometry x="875" y="686.5" width="170" height="83" as="geometry" />
        </mxCell>
        <mxCell id="kAV78_8R-8U5BCedtc6I-138" style="edgeStyle=orthogonalEdgeStyle;rounded=0;orthogonalLoop=1;jettySize=auto;html=1;" parent="1" source="kAV78_8R-8U5BCedtc6I-36" target="kAV78_8R-8U5BCedtc6I-139" edge="1">
          <mxGeometry relative="1" as="geometry">
            <mxPoint x="-600" y="640" as="targetPoint" />
            <mxPoint x="-480" y="560" as="sourcePoint" />
          </mxGeometry>
        </mxCell>
        <mxCell id="kAV78_8R-8U5BCedtc6I-139" value="TÉRMINOS&lt;br&gt;- Notificación de términos&lt;br&gt;&lt;br&gt;COSAS QUE PASAN CON LOS TERMINOS&lt;br&gt;- Perentoriedad de los términos y oportunidades procesales&lt;br&gt;- Cómputo de términos&lt;br&gt;- Renuncia de términos&lt;br&gt;- Términos para dictar las provincias judiciales por fuera de la audiencia&lt;br&gt;- Duración del proceso" style="whiteSpace=wrap;html=1;align=left;fillColor=#FFCCCC;" parent="1" vertex="1">
          <mxGeometry x="-640" y="510" width="390" height="152" as="geometry" />
        </mxCell>
        <mxCell id="kAV78_8R-8U5BCedtc6I-140" style="edgeStyle=orthogonalEdgeStyle;rounded=0;orthogonalLoop=1;jettySize=auto;html=1;" parent="1" source="99nmjj4Q9bfn7_SC2MuP-29" target="kAV78_8R-8U5BCedtc6I-141" edge="1">
          <mxGeometry relative="1" as="geometry">
            <mxPoint x="-785" y="1472" as="targetPoint" />
            <mxPoint x="-605" y="1345" as="sourcePoint" />
          </mxGeometry>
        </mxCell>
        <mxCell id="kAV78_8R-8U5BCedtc6I-141" value="- Superadministrador&lt;br&gt;- Administrador&lt;br&gt;- Archivador&lt;br&gt;- Correspondencia" style="whiteSpace=wrap;html=1;align=left;fillColor=#99FF99;" parent="1" vertex="1">
          <mxGeometry x="-970" y="1294" width="140" height="76" as="geometry" />
        </mxCell>
        <mxCell id="kAV78_8R-8U5BCedtc6I-142" value="OFICIOS&lt;br&gt;&lt;br&gt;&lt;div&gt;Oficio a Juzgados y Otros&lt;/div&gt;&lt;div&gt;Oficio Acumulacion de Embargo&lt;/div&gt;&lt;div&gt;Oficio Cambio de Cuenta pagador&lt;/div&gt;&lt;div&gt;Oficio Cancelacion de Embargo Bancos&lt;/div&gt;&lt;div&gt;Oficio Cancelacion de Embargo Bancos y Vigencia Otro Juzgado&lt;/div&gt;&lt;div&gt;Oficio Cancelacion de Embargo Camara Comercio&lt;/div&gt;&lt;div&gt;Oficio Cancelacion de Embargo Camara Comercio y Vigencia Otro Juzgado&lt;/div&gt;&lt;div&gt;Oficio Cancelacion de Embargo Pagador&lt;/div&gt;&lt;div&gt;Oficio Cancelacion de Embargo Pagador y Vigencia&lt;/div&gt;&lt;div&gt;Oficio Cancelacion de Embargo Registro&lt;/div&gt;&lt;div&gt;Oficio Cancelacion de Embargo Registro y Vigencia&lt;/div&gt;&lt;div&gt;Oficio Cancelacion de Embargo Transito&lt;/div&gt;&lt;div&gt;Oficio Cancelacion de Embargo Transito y Prenda&lt;/div&gt;&lt;div&gt;Oficio Cancelacion de Embargo Transito y Vigencia&lt;/div&gt;&lt;div&gt;Oficio Cancelacion Embargo de Remanentes&lt;/div&gt;&lt;div&gt;Oficio Cancelacion Embargo de Remanentes y Vigencia&lt;/div&gt;&lt;div&gt;Oficio Cancelacion Hipoteca Notario&lt;/div&gt;&lt;div&gt;Oficio Cancelacion Hipoteca y Patrimonio o Afectacion a Vivienda Notaria&lt;/div&gt;&lt;div&gt;Oficio Comunicacion Camara de Comercio&lt;/div&gt;&lt;div&gt;Oficio Comunicacion Embargo Bancos&lt;/div&gt;&lt;div&gt;Oficio Comunicacion Embargo Contrato&lt;/div&gt;&lt;div&gt;Oficio Comunicacion Embargo de Acciones&lt;/div&gt;&lt;div&gt;Oficio Comunicacion Embargo Pagador&lt;/div&gt;&lt;div&gt;Oficio Comunicacion Embargo Registro&lt;/div&gt;&lt;div&gt;Oficio Comunicacion Embargo Transito&lt;/div&gt;&lt;div&gt;Oficio deja a Disposicion Remanentes&lt;/div&gt;&lt;div&gt;Oficio Designacion Amparo de Pobreza&lt;/div&gt;&lt;div&gt;Oficio Designacion Curador&lt;/div&gt;&lt;div&gt;Oficio Designacion Perito&lt;/div&gt;&lt;div&gt;Oficio Designacion Secuestre&lt;/div&gt;&lt;div&gt;Oficio Embargo del Credito&lt;/div&gt;&lt;div&gt;Oficio Embargo Remanentes&lt;/div&gt;&lt;div&gt;Oficio General&lt;/div&gt;&lt;div&gt;Oficio Reitera Cambio Cuenta Pagador&lt;/div&gt;&lt;div&gt;Oficio Remanentes no Surte Efecto&lt;/div&gt;&lt;div&gt;Oficio Remanentes Surte Efecto&lt;/div&gt;&lt;div&gt;Oficio Requiere Designe Apoderado&lt;/div&gt;&lt;div&gt;Oficio Requiere Pagador&lt;/div&gt;&lt;div&gt;Oficio Requiere Secuestre Entrega&lt;/div&gt;&lt;div&gt;Oficio Requiere Secuestre Notificacion Personal&lt;/div&gt;&lt;div&gt;Oficio Requiere Secuestre Preste Poliza&lt;/div&gt;&lt;div&gt;Oficio Requiere Secuestre Rinda Informes&lt;/div&gt;" style="whiteSpace=wrap;html=1;align=left;fillColor=#FFCC99;" parent="1" vertex="1">
          <mxGeometry x="1900" y="-528" width="305" height="690" as="geometry" />
        </mxCell>
        <mxCell id="kAV78_8R-8U5BCedtc6I-144" value="&lt;div&gt;AUTOS&lt;/div&gt;&lt;div&gt;&lt;br&gt;&lt;/div&gt;&lt;div&gt;AGREGA DESPACHO COMISORIO SIN DILIGENECIAR&lt;/div&gt;&lt;div&gt;ACEPTA CESION DE CREDITO AV VILLAS&lt;/div&gt;&lt;div&gt;ACEPTA RENUNCIA PODER&lt;/div&gt;&lt;div&gt;AGREGA INFORMES DE SECUESTRE&lt;/div&gt;&lt;div&gt;AGREGA Y PONE EN CONOCIMIENTO OFICIOS ORIPAM&lt;/div&gt;&lt;div&gt;Auto Agrega y Pone en Conocimiento&lt;/div&gt;&lt;div&gt;AUTO APRUEBA AVALUO Y&amp;nbsp; FIJA FECHA REMATE INMUEBLE&lt;/div&gt;&lt;div&gt;CORRE TRASLADO AVALUO COMERCIAL Y OTRO&lt;/div&gt;&lt;div&gt;CORRE TRASLADO AVALUO IGAC&lt;/div&gt;&lt;div&gt;CORRE TRASLADO CUENTAS FINALES SECUESTRE&lt;/div&gt;&lt;div&gt;CORRE TRASLADO DICTAMEN PERITO&lt;/div&gt;&lt;div&gt;DECRETA MEDIDAS BANCOS&lt;/div&gt;&lt;div&gt;DESPACHO COMISORIO DILIGENCIADO&lt;/div&gt;&lt;div&gt;FIJA FECHA REMATE BIENES MUEBLES&lt;/div&gt;&lt;div&gt;FIJA FECHA REMATE VEHICULO&lt;/div&gt;&lt;div&gt;FIJA HONORARIOS SECUESTRE&lt;/div&gt;&lt;div&gt;LEVANTA MEDIDA CAUTELAR&lt;/div&gt;&lt;div&gt;ORDENA COMISION INMUEBLE O MUEBLES&lt;/div&gt;&lt;div&gt;ORDENA COMISION VEHICULO&lt;/div&gt;&lt;div&gt;RECONOCE PERSONERIA&lt;/div&gt;&lt;div&gt;REQUIERE PAGADOR&lt;/div&gt;&lt;div&gt;RESUELVE REMANENTES SI SURTE EFECTOS&lt;/div&gt;&lt;div&gt;REVOCA PODER&lt;/div&gt;&lt;div&gt;SUSPENDE PROCESO&lt;/div&gt;&lt;div&gt;SUSTITUYE PODER NUEVO&lt;/div&gt;&lt;div&gt;TERMINA PROCESO HIPOTECARIO&lt;/div&gt;&lt;div&gt;TERMINA PROCESO POR PAGO SALARIO&lt;/div&gt;&lt;div&gt;TRASLADO DE INCIDENTE A SECUESTRE PREVIO APERTURA&lt;/div&gt;" style="whiteSpace=wrap;html=1;align=left;fillColor=#FFCC99;" parent="1" vertex="1">
          <mxGeometry x="2225" y="-528" width="380" height="455" as="geometry" />
        </mxCell>
        <mxCell id="kAV78_8R-8U5BCedtc6I-146" value="AVISO DE REMATE&lt;br&gt;&lt;br&gt;- Aviso de remate inmueble&lt;br&gt;- Aviso de remate mueble&lt;br&gt;- Aviso de remate&amp;nbsp; vehículo" style="whiteSpace=wrap;html=1;align=left;fillColor=#FFCC99;" parent="1" vertex="1">
          <mxGeometry x="1100" y="1275" width="230" height="100" as="geometry" />
        </mxCell>
        <mxCell id="kAV78_8R-8U5BCedtc6I-147" value="COMISORIO&lt;br&gt;&lt;br&gt;&lt;div&gt;Comisorio Entrega a Secuestre&lt;/div&gt;&lt;div&gt;Comisorio Entrega Inmueble&lt;/div&gt;&lt;div&gt;Comisorio Entrega Mueble&lt;/div&gt;&lt;div&gt;Comisorio Entrega Vehiculo&lt;/div&gt;&lt;div&gt;Comisorio Recepcion de Testimonios&lt;/div&gt;&lt;div&gt;Comisorio Secuestro Establecimiento de comercio&lt;/div&gt;&lt;div&gt;Comisorio Secuestro Inmueble&lt;/div&gt;&lt;div&gt;Comisorio Secuestro Muebles&lt;/div&gt;&lt;div&gt;Comisorio Secuestro Vehiculo&lt;/div&gt;" style="whiteSpace=wrap;html=1;align=left;fillColor=#FFCC99;" parent="1" vertex="1">
          <mxGeometry x="1350" y="1275" width="330" height="200" as="geometry" />
        </mxCell>
        <mxCell id="kAV78_8R-8U5BCedtc6I-150" value="dossier_title" style="swimlane;fontStyle=0;childLayout=stackLayout;horizontal=1;startSize=26;fillColor=none;horizontalStack=0;resizeParent=1;resizeParentMax=0;resizeLast=0;collapsible=1;marginBottom=0;" parent="1" vertex="1">
          <mxGeometry x="-140" y="200" width="240" height="286" as="geometry">
            <mxRectangle x="-130" y="370" width="100" height="26" as="alternateBounds" />
          </mxGeometry>
        </mxCell>
        <mxCell id="kAV78_8R-8U5BCedtc6I-151" value="+ id_dossier_title: int(11)" style="text;strokeColor=none;fillColor=none;align=left;verticalAlign=top;spacingLeft=4;spacingRight=4;overflow=hidden;rotatable=0;points=[[0,0.5],[1,0.5]];portConstraint=eastwest;" parent="kAV78_8R-8U5BCedtc6I-150" vertex="1">
          <mxGeometry y="26" width="240" height="26" as="geometry" />
        </mxCell>
        <mxCell id="kAV78_8R-8U5BCedtc6I-152" value="+ title_dossier_registered_date: datetime" style="text;strokeColor=none;fillColor=none;align=left;verticalAlign=top;spacingLeft=4;spacingRight=4;overflow=hidden;rotatable=0;points=[[0,0.5],[1,0.5]];portConstraint=eastwest;" parent="kAV78_8R-8U5BCedtc6I-150" vertex="1">
          <mxGeometry y="52" width="240" height="26" as="geometry" />
        </mxCell>
        <mxCell id="kAV78_8R-8U5BCedtc6I-153" value="+ title_dossier_value: bigint(20)" style="text;strokeColor=none;fillColor=none;align=left;verticalAlign=top;spacingLeft=4;spacingRight=4;overflow=hidden;rotatable=0;points=[[0,0.5],[1,0.5]];portConstraint=eastwest;" parent="kAV78_8R-8U5BCedtc6I-150" vertex="1">
          <mxGeometry y="78" width="240" height="26" as="geometry" />
        </mxCell>
        <mxCell id="kAV78_8R-8U5BCedtc6I-154" value="+ title_dossier_beneficiary: string(255)" style="text;strokeColor=none;fillColor=none;align=left;verticalAlign=top;spacingLeft=4;spacingRight=4;overflow=hidden;rotatable=0;points=[[0,0.5],[1,0.5]];portConstraint=eastwest;" parent="kAV78_8R-8U5BCedtc6I-150" vertex="1">
          <mxGeometry y="104" width="240" height="26" as="geometry" />
        </mxCell>
        <mxCell id="kAV78_8R-8U5BCedtc6I-157" value="+ title_dossier_quantity: int(11)" style="text;strokeColor=none;fillColor=none;align=left;verticalAlign=top;spacingLeft=4;spacingRight=4;overflow=hidden;rotatable=0;points=[[0,0.5],[1,0.5]];portConstraint=eastwest;" parent="kAV78_8R-8U5BCedtc6I-150" vertex="1">
          <mxGeometry y="130" width="240" height="26" as="geometry" />
        </mxCell>
        <mxCell id="kAV78_8R-8U5BCedtc6I-158" value="+ title_dossier_payment_date: datetime" style="text;strokeColor=none;fillColor=none;align=left;verticalAlign=top;spacingLeft=4;spacingRight=4;overflow=hidden;rotatable=0;points=[[0,0.5],[1,0.5]];portConstraint=eastwest;" parent="kAV78_8R-8U5BCedtc6I-150" vertex="1">
          <mxGeometry y="156" width="240" height="26" as="geometry" />
        </mxCell>
        <mxCell id="kAV78_8R-8U5BCedtc6I-159" value="+ title_dossier_modified_date: datetime" style="text;strokeColor=none;fillColor=none;align=left;verticalAlign=top;spacingLeft=4;spacingRight=4;overflow=hidden;rotatable=0;points=[[0,0.5],[1,0.5]];portConstraint=eastwest;" parent="kAV78_8R-8U5BCedtc6I-150" vertex="1">
          <mxGeometry y="182" width="240" height="26" as="geometry" />
        </mxCell>
        <mxCell id="kAV78_8R-8U5BCedtc6I-168" value="+ id_title_type: int(11)" style="text;strokeColor=none;fillColor=none;align=left;verticalAlign=top;spacingLeft=4;spacingRight=4;overflow=hidden;rotatable=0;points=[[0,0.5],[1,0.5]];portConstraint=eastwest;" parent="kAV78_8R-8U5BCedtc6I-150" vertex="1">
          <mxGeometry y="208" width="240" height="26" as="geometry" />
        </mxCell>
        <mxCell id="kAV78_8R-8U5BCedtc6I-160" value="+ id_dossier: bigint(20)" style="text;strokeColor=none;fillColor=none;align=left;verticalAlign=top;spacingLeft=4;spacingRight=4;overflow=hidden;rotatable=0;points=[[0,0.5],[1,0.5]];portConstraint=eastwest;" parent="kAV78_8R-8U5BCedtc6I-150" vertex="1">
          <mxGeometry y="234" width="240" height="26" as="geometry" />
        </mxCell>
        <mxCell id="kAV78_8R-8U5BCedtc6I-155" value="+ id_employee: bigint(20)" style="text;strokeColor=none;fillColor=none;align=left;verticalAlign=top;spacingLeft=4;spacingRight=4;overflow=hidden;rotatable=0;points=[[0,0.5],[1,0.5]];portConstraint=eastwest;" parent="kAV78_8R-8U5BCedtc6I-150" vertex="1">
          <mxGeometry y="260" width="240" height="26" as="geometry" />
        </mxCell>
        <mxCell id="kAV78_8R-8U5BCedtc6I-161" value="" style="edgeStyle=entityRelationEdgeStyle;fontSize=12;html=1;endArrow=ERoneToMany;startArrow=ERmandOne;" parent="1" source="99nmjj4Q9bfn7_SC2MuP-48" target="kAV78_8R-8U5BCedtc6I-160" edge="1">
          <mxGeometry width="100" height="100" relative="1" as="geometry">
            <mxPoint x="420" y="530" as="sourcePoint" />
            <mxPoint x="520" y="430" as="targetPoint" />
          </mxGeometry>
        </mxCell>
        <mxCell id="kAV78_8R-8U5BCedtc6I-163" value="title_type" style="swimlane;fontStyle=0;childLayout=stackLayout;horizontal=1;startSize=26;fillColor=none;horizontalStack=0;resizeParent=1;resizeParentMax=0;resizeLast=0;collapsible=1;marginBottom=0;" parent="1" vertex="1">
          <mxGeometry x="-145" y="70" width="250" height="104" as="geometry" />
        </mxCell>
        <mxCell id="kAV78_8R-8U5BCedtc6I-164" value="+ id_title_type: int(11)" style="text;strokeColor=none;fillColor=none;align=left;verticalAlign=top;spacingLeft=4;spacingRight=4;overflow=hidden;rotatable=0;points=[[0,0.5],[1,0.5]];portConstraint=eastwest;" parent="kAV78_8R-8U5BCedtc6I-163" vertex="1">
          <mxGeometry y="26" width="250" height="26" as="geometry" />
        </mxCell>
        <mxCell id="kAV78_8R-8U5BCedtc6I-165" value="+ title_type_name: string(255)" style="text;strokeColor=none;fillColor=none;align=left;verticalAlign=top;spacingLeft=4;spacingRight=4;overflow=hidden;rotatable=0;points=[[0,0.5],[1,0.5]];portConstraint=eastwest;" parent="kAV78_8R-8U5BCedtc6I-163" vertex="1">
          <mxGeometry y="52" width="250" height="26" as="geometry" />
        </mxCell>
        <mxCell id="kAV78_8R-8U5BCedtc6I-167" value="+ title_type_description: text" style="text;strokeColor=none;fillColor=none;align=left;verticalAlign=top;spacingLeft=4;spacingRight=4;overflow=hidden;rotatable=0;points=[[0,0.5],[1,0.5]];portConstraint=eastwest;" parent="kAV78_8R-8U5BCedtc6I-163" vertex="1">
          <mxGeometry y="78" width="250" height="26" as="geometry" />
        </mxCell>
        <mxCell id="kAV78_8R-8U5BCedtc6I-170" value="" style="edgeStyle=entityRelationEdgeStyle;fontSize=12;html=1;endArrow=ERoneToMany;startArrow=ERmandOne;" parent="1" source="kAV78_8R-8U5BCedtc6I-164" target="kAV78_8R-8U5BCedtc6I-168" edge="1">
          <mxGeometry width="100" height="100" relative="1" as="geometry">
            <mxPoint y="530" as="sourcePoint" />
            <mxPoint x="150" y="460" as="targetPoint" />
          </mxGeometry>
        </mxCell>
        <mxCell id="kAV78_8R-8U5BCedtc6I-171" style="edgeStyle=orthogonalEdgeStyle;rounded=0;orthogonalLoop=1;jettySize=auto;html=1;" parent="1" source="kAV78_8R-8U5BCedtc6I-163" target="kAV78_8R-8U5BCedtc6I-172" edge="1">
          <mxGeometry relative="1" as="geometry">
            <mxPoint x="422.5" y="232" as="targetPoint" />
            <mxPoint x="270" y="198" as="sourcePoint" />
          </mxGeometry>
        </mxCell>
        <mxCell id="kAV78_8R-8U5BCedtc6I-172" value="- Títulos valores (Letras)&lt;br&gt;- Títulos judiciales (Se pagan)" style="whiteSpace=wrap;html=1;align=left;fillColor=#99FF99;" parent="1" vertex="1">
          <mxGeometry x="-460" y="151" width="170" height="83" as="geometry" />
        </mxCell>
        <mxCell id="kAV78_8R-8U5BCedtc6I-173" value="" style="edgeStyle=entityRelationEdgeStyle;fontSize=12;html=1;endArrow=ERoneToMany;startArrow=ERmandOne;" parent="1" source="99nmjj4Q9bfn7_SC2MuP-8" target="kAV78_8R-8U5BCedtc6I-155" edge="1">
          <mxGeometry width="100" height="100" relative="1" as="geometry">
            <mxPoint x="-330" y="520" as="sourcePoint" />
            <mxPoint x="-370" y="430" as="targetPoint" />
          </mxGeometry>
        </mxCell>
        <mxCell id="kAV78_8R-8U5BCedtc6I-176" value="" style="edgeStyle=entityRelationEdgeStyle;fontSize=12;html=1;endArrow=ERoneToMany;startArrow=ERmandOne;" parent="1" source="99nmjj4Q9bfn7_SC2MuP-8" target="kAV78_8R-8U5BCedtc6I-175" edge="1">
          <mxGeometry width="100" height="100" relative="1" as="geometry">
            <mxPoint y="800" as="sourcePoint" />
            <mxPoint x="100" y="700" as="targetPoint" />
          </mxGeometry>
        </mxCell>
        <mxCell id="WWjFzzvigEe-oElvQ5hi-1" value="- Profesional Universitario Grado 20&lt;br&gt;-&amp;nbsp;Profesional Universitario Grado 17&lt;br&gt;-&amp;nbsp;Profesional Universitario Grado 11&lt;br&gt;- Técnico en Sistemas Grado 10&lt;br&gt;-&amp;nbsp;Asistente Administrativo Grado 5" style="whiteSpace=wrap;html=1;align=left;fillColor=#99FF99;" parent="1" vertex="1">
          <mxGeometry x="-1080" y="1035.5" width="220" height="93" as="geometry" />
        </mxCell>
        <mxCell id="WWjFzzvigEe-oElvQ5hi-2" style="edgeStyle=orthogonalEdgeStyle;rounded=0;orthogonalLoop=1;jettySize=auto;html=1;" parent="1" source="99nmjj4Q9bfn7_SC2MuP-24" target="WWjFzzvigEe-oElvQ5hi-1" edge="1">
          <mxGeometry relative="1" as="geometry">
            <mxPoint x="-810" y="1272" as="targetPoint" />
            <mxPoint x="-750" y="1272" as="sourcePoint" />
          </mxGeometry>
        </mxCell>
        <mxCell id="WWjFzzvigEe-oElvQ5hi-9" value="" style="edgeStyle=entityRelationEdgeStyle;fontSize=12;html=1;endArrow=ERoneToMany;startArrow=ERmandOne;rounded=0;" parent="1" source="99nmjj4Q9bfn7_SC2MuP-8" target="WWjFzzvigEe-oElvQ5hi-8" edge="1">
          <mxGeometry width="100" height="100" relative="1" as="geometry">
            <mxPoint x="60" y="1110" as="sourcePoint" />
            <mxPoint x="160" y="860" as="targetPoint" />
          </mxGeometry>
        </mxCell>
        <mxCell id="mpsy4wO5Bwl3DI2ihhuN-1" value="user" style="swimlane;fontStyle=0;childLayout=stackLayout;horizontal=1;startSize=26;fillColor=#FFCC99;horizontalStack=0;resizeParent=1;resizeParentMax=0;resizeLast=0;collapsible=1;marginBottom=0;" parent="1" vertex="1">
          <mxGeometry x="-510" y="-190" width="240" height="312" as="geometry" />
        </mxCell>
        <mxCell id="mpsy4wO5Bwl3DI2ihhuN-2" value="+ id_user: bigint(20)" style="text;strokeColor=none;fillColor=#FFCC99;align=left;verticalAlign=top;spacingLeft=4;spacingRight=4;overflow=hidden;rotatable=0;points=[[0,0.5],[1,0.5]];portConstraint=eastwest;" parent="mpsy4wO5Bwl3DI2ihhuN-1" vertex="1">
          <mxGeometry y="26" width="240" height="26" as="geometry" />
        </mxCell>
        <mxCell id="mpsy4wO5Bwl3DI2ihhuN-29" value="+ user_identification: string(255)" style="text;strokeColor=none;fillColor=#FFCC99;align=left;verticalAlign=top;spacingLeft=4;spacingRight=4;overflow=hidden;rotatable=0;points=[[0,0.5],[1,0.5]];portConstraint=eastwest;" parent="mpsy4wO5Bwl3DI2ihhuN-1" vertex="1">
          <mxGeometry y="52" width="240" height="26" as="geometry" />
        </mxCell>
        <mxCell id="mpsy4wO5Bwl3DI2ihhuN-3" value="+ fullname: string(255)" style="text;strokeColor=none;fillColor=#FFCC99;align=left;verticalAlign=top;spacingLeft=4;spacingRight=4;overflow=hidden;rotatable=0;points=[[0,0.5],[1,0.5]];portConstraint=eastwest;" parent="mpsy4wO5Bwl3DI2ihhuN-1" vertex="1">
          <mxGeometry y="78" width="240" height="26" as="geometry" />
        </mxCell>
        <mxCell id="mpsy4wO5Bwl3DI2ihhuN-4" value="+ phone: string(255)" style="text;strokeColor=none;fillColor=#FFCC99;align=left;verticalAlign=top;spacingLeft=4;spacingRight=4;overflow=hidden;rotatable=0;points=[[0,0.5],[1,0.5]];portConstraint=eastwest;" parent="mpsy4wO5Bwl3DI2ihhuN-1" vertex="1">
          <mxGeometry y="104" width="240" height="26" as="geometry" />
        </mxCell>
        <mxCell id="mpsy4wO5Bwl3DI2ihhuN-5" value="+ email: string(255)" style="text;strokeColor=none;fillColor=#FFCC99;align=left;verticalAlign=top;spacingLeft=4;spacingRight=4;overflow=hidden;rotatable=0;points=[[0,0.5],[1,0.5]];portConstraint=eastwest;" parent="mpsy4wO5Bwl3DI2ihhuN-1" vertex="1">
          <mxGeometry y="130" width="240" height="26" as="geometry" />
        </mxCell>
        <mxCell id="mpsy4wO5Bwl3DI2ihhuN-12" value="+ password: string(255)" style="text;strokeColor=none;fillColor=#FFCC99;align=left;verticalAlign=top;spacingLeft=4;spacingRight=4;overflow=hidden;rotatable=0;points=[[0,0.5],[1,0.5]];portConstraint=eastwest;" parent="mpsy4wO5Bwl3DI2ihhuN-1" vertex="1">
          <mxGeometry y="156" width="240" height="26" as="geometry" />
        </mxCell>
        <mxCell id="mpsy4wO5Bwl3DI2ihhuN-6" value="+ registered_date: datetime" style="text;strokeColor=none;fillColor=#FFCC99;align=left;verticalAlign=top;spacingLeft=4;spacingRight=4;overflow=hidden;rotatable=0;points=[[0,0.5],[1,0.5]];portConstraint=eastwest;" parent="mpsy4wO5Bwl3DI2ihhuN-1" vertex="1">
          <mxGeometry y="182" width="240" height="26" as="geometry" />
        </mxCell>
        <mxCell id="mpsy4wO5Bwl3DI2ihhuN-7" value="+ update_date: datetime" style="text;strokeColor=none;fillColor=#FFCC99;align=left;verticalAlign=top;spacingLeft=4;spacingRight=4;overflow=hidden;rotatable=0;points=[[0,0.5],[1,0.5]];portConstraint=eastwest;" parent="mpsy4wO5Bwl3DI2ihhuN-1" vertex="1">
          <mxGeometry y="208" width="240" height="26" as="geometry" />
        </mxCell>
        <mxCell id="mpsy4wO5Bwl3DI2ihhuN-9" value="+ enable_user: int(11)" style="text;strokeColor=none;fillColor=#FFCC99;align=left;verticalAlign=top;spacingLeft=4;spacingRight=4;overflow=hidden;rotatable=0;points=[[0,0.5],[1,0.5]];portConstraint=eastwest;" parent="mpsy4wO5Bwl3DI2ihhuN-1" vertex="1">
          <mxGeometry y="234" width="240" height="26" as="geometry" />
        </mxCell>
        <mxCell id="mpsy4wO5Bwl3DI2ihhuN-10" value="+ id_user_type: int(11)" style="text;strokeColor=none;fillColor=#FFCC99;align=left;verticalAlign=top;spacingLeft=4;spacingRight=4;overflow=hidden;rotatable=0;points=[[0,0.5],[1,0.5]];portConstraint=eastwest;" parent="mpsy4wO5Bwl3DI2ihhuN-1" vertex="1">
          <mxGeometry y="260" width="240" height="26" as="geometry" />
        </mxCell>
        <mxCell id="mpsy4wO5Bwl3DI2ihhuN-8" value="+ id_employee_registered: bigint(20)" style="text;strokeColor=none;fillColor=#FFCC99;align=left;verticalAlign=top;spacingLeft=4;spacingRight=4;overflow=hidden;rotatable=0;points=[[0,0.5],[1,0.5]];portConstraint=eastwest;" parent="mpsy4wO5Bwl3DI2ihhuN-1" vertex="1">
          <mxGeometry y="286" width="240" height="26" as="geometry" />
        </mxCell>
        <mxCell id="mpsy4wO5Bwl3DI2ihhuN-24" value="user_type" style="swimlane;fontStyle=0;childLayout=stackLayout;horizontal=1;startSize=26;fillColor=#FFCC99;horizontalStack=0;resizeParent=1;resizeParentMax=0;resizeLast=0;collapsible=1;marginBottom=0;" parent="1" vertex="1">
          <mxGeometry x="-850" y="26" width="250" height="104" as="geometry" />
        </mxCell>
        <mxCell id="mpsy4wO5Bwl3DI2ihhuN-25" value="+ id_user_type: int(11)" style="text;strokeColor=none;fillColor=#FFCC99;align=left;verticalAlign=top;spacingLeft=4;spacingRight=4;overflow=hidden;rotatable=0;points=[[0,0.5],[1,0.5]];portConstraint=eastwest;" parent="mpsy4wO5Bwl3DI2ihhuN-24" vertex="1">
          <mxGeometry y="26" width="250" height="26" as="geometry" />
        </mxCell>
        <mxCell id="mpsy4wO5Bwl3DI2ihhuN-26" value="+ user_type_name: string(255)" style="text;strokeColor=none;fillColor=#FFCC99;align=left;verticalAlign=top;spacingLeft=4;spacingRight=4;overflow=hidden;rotatable=0;points=[[0,0.5],[1,0.5]];portConstraint=eastwest;" parent="mpsy4wO5Bwl3DI2ihhuN-24" vertex="1">
          <mxGeometry y="52" width="250" height="26" as="geometry" />
        </mxCell>
        <mxCell id="mpsy4wO5Bwl3DI2ihhuN-27" value="+ user_type_description: text" style="text;strokeColor=none;fillColor=#FFCC99;align=left;verticalAlign=top;spacingLeft=4;spacingRight=4;overflow=hidden;rotatable=0;points=[[0,0.5],[1,0.5]];portConstraint=eastwest;" parent="mpsy4wO5Bwl3DI2ihhuN-24" vertex="1">
          <mxGeometry y="78" width="250" height="26" as="geometry" />
        </mxCell>
        <mxCell id="mpsy4wO5Bwl3DI2ihhuN-28" value="" style="edgeStyle=entityRelationEdgeStyle;fontSize=12;html=1;endArrow=ERoneToMany;startArrow=ERmandOne;" parent="1" source="mpsy4wO5Bwl3DI2ihhuN-25" target="mpsy4wO5Bwl3DI2ihhuN-10" edge="1">
          <mxGeometry width="100" height="100" relative="1" as="geometry">
            <mxPoint x="-570" y="-60" as="sourcePoint" />
            <mxPoint x="-470" y="-160" as="targetPoint" />
          </mxGeometry>
        </mxCell>
        <mxCell id="mpsy4wO5Bwl3DI2ihhuN-31" value="" style="edgeStyle=entityRelationEdgeStyle;fontSize=12;html=1;endArrow=ERoneToMany;startArrow=ERmandOne;" parent="1" source="mpsy4wO5Bwl3DI2ihhuN-2" target="mpsy4wO5Bwl3DI2ihhuN-30" edge="1">
          <mxGeometry width="100" height="100" relative="1" as="geometry">
            <mxPoint x="-240" y="20" as="sourcePoint" />
            <mxPoint x="-220" y="-290" as="targetPoint" />
          </mxGeometry>
        </mxCell>
        <mxCell id="mpsy4wO5Bwl3DI2ihhuN-32" value="" style="edgeStyle=entityRelationEdgeStyle;fontSize=12;html=1;endArrow=ERoneToMany;startArrow=ERmandOne;" parent="1" source="99nmjj4Q9bfn7_SC2MuP-8" target="mpsy4wO5Bwl3DI2ihhuN-8" edge="1">
          <mxGeometry width="100" height="100" relative="1" as="geometry">
            <mxPoint x="-390" y="880" as="sourcePoint" />
            <mxPoint x="-290" y="780" as="targetPoint" />
          </mxGeometry>
        </mxCell>
        <mxCell id="mpsy4wO5Bwl3DI2ihhuN-33" style="edgeStyle=orthogonalEdgeStyle;rounded=0;orthogonalLoop=1;jettySize=auto;html=1;" parent="1" source="mpsy4wO5Bwl3DI2ihhuN-24" target="mpsy4wO5Bwl3DI2ihhuN-34" edge="1">
          <mxGeometry relative="1" as="geometry">
            <mxPoint x="-530" y="270" as="targetPoint" />
            <mxPoint x="-815" y="160" as="sourcePoint" />
          </mxGeometry>
        </mxCell>
        <mxCell id="mpsy4wO5Bwl3DI2ihhuN-34" value="- Abogado&lt;br&gt;- Empresa" style="whiteSpace=wrap;html=1;align=left;fillColor=#99FF99;" parent="1" vertex="1">
          <mxGeometry x="-785" y="220" width="120" height="70" as="geometry" />
        </mxCell>
        <mxCell id="TnUPyRHLWNfPNA_BWNht-1" value="profession" style="swimlane;fontStyle=0;childLayout=stackLayout;horizontal=1;startSize=26;fillColor=none;horizontalStack=0;resizeParent=1;resizeParentMax=0;resizeLast=0;collapsible=1;marginBottom=0;" parent="1" vertex="1">
          <mxGeometry x="-770" y="1156" width="180" height="104" as="geometry" />
        </mxCell>
        <mxCell id="TnUPyRHLWNfPNA_BWNht-2" value="+ id_profession: int(11)" style="text;strokeColor=none;fillColor=none;align=left;verticalAlign=top;spacingLeft=4;spacingRight=4;overflow=hidden;rotatable=0;points=[[0,0.5],[1,0.5]];portConstraint=eastwest;" parent="TnUPyRHLWNfPNA_BWNht-1" vertex="1">
          <mxGeometry y="26" width="180" height="26" as="geometry" />
        </mxCell>
        <mxCell id="TnUPyRHLWNfPNA_BWNht-3" value="+ profession_name: string(255)" style="text;strokeColor=none;fillColor=none;align=left;verticalAlign=top;spacingLeft=4;spacingRight=4;overflow=hidden;rotatable=0;points=[[0,0.5],[1,0.5]];portConstraint=eastwest;" parent="TnUPyRHLWNfPNA_BWNht-1" vertex="1">
          <mxGeometry y="52" width="180" height="26" as="geometry" />
        </mxCell>
        <mxCell id="TnUPyRHLWNfPNA_BWNht-4" value="+ profession_description: text" style="text;strokeColor=none;fillColor=none;align=left;verticalAlign=top;spacingLeft=4;spacingRight=4;overflow=hidden;rotatable=0;points=[[0,0.5],[1,0.5]];portConstraint=eastwest;" parent="TnUPyRHLWNfPNA_BWNht-1" vertex="1">
          <mxGeometry y="78" width="180" height="26" as="geometry" />
        </mxCell>
        <mxCell id="TnUPyRHLWNfPNA_BWNht-6" value="" style="edgeStyle=entityRelationEdgeStyle;fontSize=12;html=1;endArrow=ERoneToMany;startArrow=ERmandOne;rounded=0;" parent="1" source="TnUPyRHLWNfPNA_BWNht-2" target="TnUPyRHLWNfPNA_BWNht-5" edge="1">
          <mxGeometry width="100" height="100" relative="1" as="geometry">
            <mxPoint x="-520" y="1319" as="sourcePoint" />
            <mxPoint x="-420" y="1219" as="targetPoint" />
          </mxGeometry>
        </mxCell>
        <mxCell id="TnUPyRHLWNfPNA_BWNht-7" style="edgeStyle=orthogonalEdgeStyle;rounded=0;orthogonalLoop=1;jettySize=auto;html=1;" parent="1" source="TnUPyRHLWNfPNA_BWNht-1" target="TnUPyRHLWNfPNA_BWNht-8" edge="1">
          <mxGeometry relative="1" as="geometry">
            <mxPoint x="-785" y="1602" as="targetPoint" />
            <mxPoint x="-770" y="1338" as="sourcePoint" />
          </mxGeometry>
        </mxCell>
        <mxCell id="TnUPyRHLWNfPNA_BWNht-8" value="- Abogado&lt;br&gt;- Ingeniero en Sistemas&lt;br&gt;- Ingeniero Industrial&lt;br&gt;- Contador" style="whiteSpace=wrap;html=1;align=left;fillColor=#99FF99;" parent="1" vertex="1">
          <mxGeometry x="-970" y="1170" width="140" height="76" as="geometry" />
        </mxCell>
        <mxCell id="TnUPyRHLWNfPNA_BWNht-9" value="qm_action (gc_acciones)" style="swimlane;fontStyle=0;childLayout=stackLayout;horizontal=1;startSize=26;fillColor=none;horizontalStack=0;resizeParent=1;resizeParentMax=0;resizeLast=0;collapsible=1;marginBottom=0;" parent="1" vertex="1">
          <mxGeometry x="-1735" y="1904" width="215" height="416" as="geometry" />
        </mxCell>
        <mxCell id="TnUPyRHLWNfPNA_BWNht-10" value="+ id_action: int(11)" style="text;strokeColor=none;fillColor=none;align=left;verticalAlign=top;spacingLeft=4;spacingRight=4;overflow=hidden;rotatable=0;points=[[0,0.5],[1,0.5]];portConstraint=eastwest;" parent="TnUPyRHLWNfPNA_BWNht-9" vertex="1">
          <mxGeometry y="26" width="215" height="26" as="geometry" />
        </mxCell>
        <mxCell id="TnUPyRHLWNfPNA_BWNht-12" value="+ description_finding: text" style="text;strokeColor=none;fillColor=none;align=left;verticalAlign=top;spacingLeft=4;spacingRight=4;overflow=hidden;rotatable=0;points=[[0,0.5],[1,0.5]];portConstraint=eastwest;" parent="TnUPyRHLWNfPNA_BWNht-9" vertex="1">
          <mxGeometry y="52" width="215" height="26" as="geometry" />
        </mxCell>
        <mxCell id="TnUPyRHLWNfPNA_BWNht-15" value="+ analysis_causes: text" style="text;strokeColor=none;fillColor=none;align=left;verticalAlign=top;spacingLeft=4;spacingRight=4;overflow=hidden;rotatable=0;points=[[0,0.5],[1,0.5]];portConstraint=eastwest;" parent="TnUPyRHLWNfPNA_BWNht-9" vertex="1">
          <mxGeometry y="78" width="215" height="26" as="geometry" />
        </mxCell>
        <mxCell id="TnUPyRHLWNfPNA_BWNht-18" value="+ action_registered_date: datetime" style="text;strokeColor=none;fillColor=none;align=left;verticalAlign=top;spacingLeft=4;spacingRight=4;overflow=hidden;rotatable=0;points=[[0,0.5],[1,0.5]];portConstraint=eastwest;" parent="TnUPyRHLWNfPNA_BWNht-9" vertex="1">
          <mxGeometry y="104" width="215" height="26" as="geometry" />
        </mxCell>
        <mxCell id="TnUPyRHLWNfPNA_BWNht-21" value="+ action_modified_date: datetime" style="text;strokeColor=none;fillColor=none;align=left;verticalAlign=top;spacingLeft=4;spacingRight=4;overflow=hidden;rotatable=0;points=[[0,0.5],[1,0.5]];portConstraint=eastwest;" parent="TnUPyRHLWNfPNA_BWNht-9" vertex="1">
          <mxGeometry y="130" width="215" height="26" as="geometry" />
        </mxCell>
        <mxCell id="TnUPyRHLWNfPNA_BWNht-20" value="+ id_employee_registered: bigint(20)" style="text;strokeColor=none;fillColor=none;align=left;verticalAlign=top;spacingLeft=4;spacingRight=4;overflow=hidden;rotatable=0;points=[[0,0.5],[1,0.5]];portConstraint=eastwest;" parent="TnUPyRHLWNfPNA_BWNht-9" vertex="1">
          <mxGeometry y="156" width="215" height="26" as="geometry" />
        </mxCell>
        <mxCell id="TnUPyRHLWNfPNA_BWNht-23" value="+ id_employee_modified: bigint(20)" style="text;strokeColor=none;fillColor=none;align=left;verticalAlign=top;spacingLeft=4;spacingRight=4;overflow=hidden;rotatable=0;points=[[0,0.5],[1,0.5]];portConstraint=eastwest;" parent="TnUPyRHLWNfPNA_BWNht-9" vertex="1">
          <mxGeometry y="182" width="215" height="26" as="geometry" />
        </mxCell>
        <mxCell id="TnUPyRHLWNfPNA_BWNht-24" value="+ id_state_type: int(11)" style="text;strokeColor=none;fillColor=#FFCC99;align=left;verticalAlign=top;spacingLeft=4;spacingRight=4;overflow=hidden;rotatable=0;points=[[0,0.5],[1,0.5]];portConstraint=eastwest;" parent="TnUPyRHLWNfPNA_BWNht-9" vertex="1">
          <mxGeometry y="208" width="215" height="26" as="geometry" />
        </mxCell>
        <mxCell id="TnUPyRHLWNfPNA_BWNht-25" value="+ action_number: int(11)" style="text;strokeColor=none;fillColor=#FFCCCC;align=left;verticalAlign=top;spacingLeft=4;spacingRight=4;overflow=hidden;rotatable=0;points=[[0,0.5],[1,0.5]];portConstraint=eastwest;" parent="TnUPyRHLWNfPNA_BWNht-9" vertex="1">
          <mxGeometry y="234" width="215" height="26" as="geometry" />
        </mxCell>
        <mxCell id="aP_J8ZVIs6XaRMlqfYO1-24" value="+ id_class_type: int(11)" style="text;strokeColor=none;fillColor=none;align=left;verticalAlign=top;spacingLeft=4;spacingRight=4;overflow=hidden;rotatable=0;points=[[0,0.5],[1,0.5]];portConstraint=eastwest;" parent="TnUPyRHLWNfPNA_BWNht-9" vertex="1">
          <mxGeometry y="260" width="215" height="26" as="geometry" />
        </mxCell>
        <mxCell id="TnUPyRHLWNfPNA_BWNht-11" value="+ id_numeral_norm: int(11)" style="text;strokeColor=none;fillColor=none;align=left;verticalAlign=top;spacingLeft=4;spacingRight=4;overflow=hidden;rotatable=0;points=[[0,0.5],[1,0.5]];portConstraint=eastwest;" parent="TnUPyRHLWNfPNA_BWNht-9" vertex="1">
          <mxGeometry y="286" width="215" height="26" as="geometry" />
        </mxCell>
        <mxCell id="TnUPyRHLWNfPNA_BWNht-13" value="+ id_responsible_process: int(11)" style="text;strokeColor=none;fillColor=none;align=left;verticalAlign=top;spacingLeft=4;spacingRight=4;overflow=hidden;rotatable=0;points=[[0,0.5],[1,0.5]];portConstraint=eastwest;" parent="TnUPyRHLWNfPNA_BWNht-9" vertex="1">
          <mxGeometry y="312" width="215" height="26" as="geometry" />
        </mxCell>
        <mxCell id="TnUPyRHLWNfPNA_BWNht-14" value="+ id_impacted_process: int(11)" style="text;strokeColor=none;fillColor=none;align=left;verticalAlign=top;spacingLeft=4;spacingRight=4;overflow=hidden;rotatable=0;points=[[0,0.5],[1,0.5]];portConstraint=eastwest;" parent="TnUPyRHLWNfPNA_BWNht-9" vertex="1">
          <mxGeometry y="338" width="215" height="26" as="geometry" />
        </mxCell>
        <mxCell id="TnUPyRHLWNfPNA_BWNht-16" value="+ id_methodology: int(11)" style="text;strokeColor=none;fillColor=none;align=left;verticalAlign=top;spacingLeft=4;spacingRight=4;overflow=hidden;rotatable=0;points=[[0,0.5],[1,0.5]];portConstraint=eastwest;" parent="TnUPyRHLWNfPNA_BWNht-9" vertex="1">
          <mxGeometry y="364" width="215" height="26" as="geometry" />
        </mxCell>
        <mxCell id="TnUPyRHLWNfPNA_BWNht-17" value="+ id_motive: int(11)" style="text;strokeColor=none;fillColor=none;align=left;verticalAlign=top;spacingLeft=4;spacingRight=4;overflow=hidden;rotatable=0;points=[[0,0.5],[1,0.5]];portConstraint=eastwest;" parent="TnUPyRHLWNfPNA_BWNht-9" vertex="1">
          <mxGeometry y="390" width="215" height="26" as="geometry" />
        </mxCell>
        <mxCell id="TnUPyRHLWNfPNA_BWNht-26" value="qm_activity (gc_actividad)" style="swimlane;fontStyle=0;childLayout=stackLayout;horizontal=1;startSize=26;fillColor=none;horizontalStack=0;resizeParent=1;resizeParentMax=0;resizeLast=0;collapsible=1;marginBottom=0;" parent="1" vertex="1">
          <mxGeometry x="-2050" y="1904" width="230" height="338" as="geometry" />
        </mxCell>
        <mxCell id="TnUPyRHLWNfPNA_BWNht-27" value="+ id_activity: int(11)" style="text;strokeColor=none;fillColor=none;align=left;verticalAlign=top;spacingLeft=4;spacingRight=4;overflow=hidden;rotatable=0;points=[[0,0.5],[1,0.5]];portConstraint=eastwest;" parent="TnUPyRHLWNfPNA_BWNht-26" vertex="1">
          <mxGeometry y="26" width="230" height="26" as="geometry" />
        </mxCell>
        <mxCell id="TnUPyRHLWNfPNA_BWNht-28" value="+ id_action: int(11)" style="text;strokeColor=none;fillColor=none;align=left;verticalAlign=top;spacingLeft=4;spacingRight=4;overflow=hidden;rotatable=0;points=[[0,0.5],[1,0.5]];portConstraint=eastwest;" parent="TnUPyRHLWNfPNA_BWNht-26" vertex="1">
          <mxGeometry y="52" width="230" height="26" as="geometry" />
        </mxCell>
        <mxCell id="TnUPyRHLWNfPNA_BWNht-29" value="+ activity_start_date: datetime" style="text;strokeColor=none;fillColor=none;align=left;verticalAlign=top;spacingLeft=4;spacingRight=4;overflow=hidden;rotatable=0;points=[[0,0.5],[1,0.5]];portConstraint=eastwest;" parent="TnUPyRHLWNfPNA_BWNht-26" vertex="1">
          <mxGeometry y="78" width="230" height="26" as="geometry" />
        </mxCell>
        <mxCell id="TnUPyRHLWNfPNA_BWNht-30" value="+ activity_end_date: datetime" style="text;strokeColor=none;fillColor=none;align=left;verticalAlign=top;spacingLeft=4;spacingRight=4;overflow=hidden;rotatable=0;points=[[0,0.5],[1,0.5]];portConstraint=eastwest;" parent="TnUPyRHLWNfPNA_BWNht-26" vertex="1">
          <mxGeometry y="104" width="230" height="26" as="geometry" />
        </mxCell>
        <mxCell id="TnUPyRHLWNfPNA_BWNht-31" value="+ activity_description: text" style="text;strokeColor=none;fillColor=none;align=left;verticalAlign=top;spacingLeft=4;spacingRight=4;overflow=hidden;rotatable=0;points=[[0,0.5],[1,0.5]];portConstraint=eastwest;" parent="TnUPyRHLWNfPNA_BWNht-26" vertex="1">
          <mxGeometry y="130" width="230" height="26" as="geometry" />
        </mxCell>
        <mxCell id="TnUPyRHLWNfPNA_BWNht-32" value="+ id_employee_responsible: bigint(20)" style="text;strokeColor=none;fillColor=none;align=left;verticalAlign=top;spacingLeft=4;spacingRight=4;overflow=hidden;rotatable=0;points=[[0,0.5],[1,0.5]];portConstraint=eastwest;" parent="TnUPyRHLWNfPNA_BWNht-26" vertex="1">
          <mxGeometry y="156" width="230" height="26" as="geometry" />
        </mxCell>
        <mxCell id="TnUPyRHLWNfPNA_BWNht-33" value="+ activity_registered_date: datetime" style="text;strokeColor=none;fillColor=none;align=left;verticalAlign=top;spacingLeft=4;spacingRight=4;overflow=hidden;rotatable=0;points=[[0,0.5],[1,0.5]];portConstraint=eastwest;" parent="TnUPyRHLWNfPNA_BWNht-26" vertex="1">
          <mxGeometry y="182" width="230" height="26" as="geometry" />
        </mxCell>
        <mxCell id="TnUPyRHLWNfPNA_BWNht-35" value="+ id_employee_registered: bigint(20)" style="text;strokeColor=none;fillColor=none;align=left;verticalAlign=top;spacingLeft=4;spacingRight=4;overflow=hidden;rotatable=0;points=[[0,0.5],[1,0.5]];portConstraint=eastwest;" parent="TnUPyRHLWNfPNA_BWNht-26" vertex="1">
          <mxGeometry y="208" width="230" height="26" as="geometry" />
        </mxCell>
        <mxCell id="TnUPyRHLWNfPNA_BWNht-36" value="+ activity_management: text" style="text;strokeColor=none;fillColor=none;align=left;verticalAlign=top;spacingLeft=4;spacingRight=4;overflow=hidden;rotatable=0;points=[[0,0.5],[1,0.5]];portConstraint=eastwest;" parent="TnUPyRHLWNfPNA_BWNht-26" vertex="1">
          <mxGeometry y="234" width="230" height="26" as="geometry" />
        </mxCell>
        <mxCell id="TnUPyRHLWNfPNA_BWNht-38" value="+ activity_management_date: datetime" style="text;strokeColor=none;fillColor=none;align=left;verticalAlign=top;spacingLeft=4;spacingRight=4;overflow=hidden;rotatable=0;points=[[0,0.5],[1,0.5]];portConstraint=eastwest;" parent="TnUPyRHLWNfPNA_BWNht-26" vertex="1">
          <mxGeometry y="260" width="230" height="26" as="geometry" />
        </mxCell>
        <mxCell id="TnUPyRHLWNfPNA_BWNht-37" value="+ id_state_type: int(11)" style="text;strokeColor=none;fillColor=#FFCC99;align=left;verticalAlign=top;spacingLeft=4;spacingRight=4;overflow=hidden;rotatable=0;points=[[0,0.5],[1,0.5]];portConstraint=eastwest;" parent="TnUPyRHLWNfPNA_BWNht-26" vertex="1">
          <mxGeometry y="286" width="230" height="26" as="geometry" />
        </mxCell>
        <mxCell id="aP_J8ZVIs6XaRMlqfYO1-1" value="+ file_path: string(255)" style="text;strokeColor=none;fillColor=none;align=left;verticalAlign=top;spacingLeft=4;spacingRight=4;overflow=hidden;rotatable=0;points=[[0,0.5],[1,0.5]];portConstraint=eastwest;" parent="TnUPyRHLWNfPNA_BWNht-26" vertex="1">
          <mxGeometry y="312" width="230" height="26" as="geometry" />
        </mxCell>
        <mxCell id="TnUPyRHLWNfPNA_BWNht-58" value="qm_question (gc_revision)" style="swimlane;fontStyle=0;childLayout=stackLayout;horizontal=1;startSize=26;fillColor=none;horizontalStack=0;resizeParent=1;resizeParentMax=0;resizeLast=0;collapsible=1;marginBottom=0;" parent="1" vertex="1">
          <mxGeometry x="-1690" y="1704" width="180" height="104" as="geometry" />
        </mxCell>
        <mxCell id="TnUPyRHLWNfPNA_BWNht-59" value="+ id_question: int(11)" style="text;strokeColor=none;fillColor=none;align=left;verticalAlign=top;spacingLeft=4;spacingRight=4;overflow=hidden;rotatable=0;points=[[0,0.5],[1,0.5]];portConstraint=eastwest;" parent="TnUPyRHLWNfPNA_BWNht-58" vertex="1">
          <mxGeometry y="26" width="180" height="26" as="geometry" />
        </mxCell>
        <mxCell id="TnUPyRHLWNfPNA_BWNht-61" value="+ question_name: string(255)" style="text;strokeColor=none;fillColor=none;align=left;verticalAlign=top;spacingLeft=4;spacingRight=4;overflow=hidden;rotatable=0;points=[[0,0.5],[1,0.5]];portConstraint=eastwest;" parent="TnUPyRHLWNfPNA_BWNht-58" vertex="1">
          <mxGeometry y="52" width="180" height="26" as="geometry" />
        </mxCell>
        <mxCell id="WMeFY94fwu9JhdbWC9ym-2" value="+ question_descriiption: text" style="text;strokeColor=none;fillColor=none;align=left;verticalAlign=top;spacingLeft=4;spacingRight=4;overflow=hidden;rotatable=0;points=[[0,0.5],[1,0.5]];portConstraint=eastwest;" parent="TnUPyRHLWNfPNA_BWNht-58" vertex="1">
          <mxGeometry y="78" width="180" height="26" as="geometry" />
        </mxCell>
        <mxCell id="TnUPyRHLWNfPNA_BWNht-62" value="qm_detailed_review (gc_revision_detalle)" style="swimlane;fontStyle=0;childLayout=stackLayout;horizontal=1;startSize=26;fillColor=none;horizontalStack=0;resizeParent=1;resizeParentMax=0;resizeLast=0;collapsible=1;marginBottom=0;" parent="1" vertex="1">
          <mxGeometry x="-1360" y="1660" width="270" height="208" as="geometry" />
        </mxCell>
        <mxCell id="TnUPyRHLWNfPNA_BWNht-63" value="+ id_detailed_review: int(11)" style="text;strokeColor=none;fillColor=none;align=left;verticalAlign=top;spacingLeft=4;spacingRight=4;overflow=hidden;rotatable=0;points=[[0,0.5],[1,0.5]];portConstraint=eastwest;" parent="TnUPyRHLWNfPNA_BWNht-62" vertex="1">
          <mxGeometry y="26" width="270" height="26" as="geometry" />
        </mxCell>
        <mxCell id="TnUPyRHLWNfPNA_BWNht-65" value="+ id_question: int(11)" style="text;strokeColor=none;fillColor=none;align=left;verticalAlign=top;spacingLeft=4;spacingRight=4;overflow=hidden;rotatable=0;points=[[0,0.5],[1,0.5]];portConstraint=eastwest;" parent="TnUPyRHLWNfPNA_BWNht-62" vertex="1">
          <mxGeometry y="52" width="270" height="26" as="geometry" />
        </mxCell>
        <mxCell id="TnUPyRHLWNfPNA_BWNht-66" value="+ detailed_review_finished: boolean" style="text;strokeColor=none;fillColor=none;align=left;verticalAlign=top;spacingLeft=4;spacingRight=4;overflow=hidden;rotatable=0;points=[[0,0.5],[1,0.5]];portConstraint=eastwest;" parent="TnUPyRHLWNfPNA_BWNht-62" vertex="1">
          <mxGeometry y="78" width="270" height="26" as="geometry" />
        </mxCell>
        <mxCell id="TnUPyRHLWNfPNA_BWNht-67" value="+ detailed_review_observation: text" style="text;strokeColor=none;fillColor=none;align=left;verticalAlign=top;spacingLeft=4;spacingRight=4;overflow=hidden;rotatable=0;points=[[0,0.5],[1,0.5]];portConstraint=eastwest;" parent="TnUPyRHLWNfPNA_BWNht-62" vertex="1">
          <mxGeometry y="104" width="270" height="26" as="geometry" />
        </mxCell>
        <mxCell id="TnUPyRHLWNfPNA_BWNht-69" value="+ detailed_review_registered_date: datetime" style="text;strokeColor=none;fillColor=none;align=left;verticalAlign=top;spacingLeft=4;spacingRight=4;overflow=hidden;rotatable=0;points=[[0,0.5],[1,0.5]];portConstraint=eastwest;" parent="TnUPyRHLWNfPNA_BWNht-62" vertex="1">
          <mxGeometry y="130" width="270" height="26" as="geometry" />
        </mxCell>
        <mxCell id="WMeFY94fwu9JhdbWC9ym-11" value="+ id_employee_registered: bigint(20)" style="text;strokeColor=none;fillColor=none;align=left;verticalAlign=top;spacingLeft=4;spacingRight=4;overflow=hidden;rotatable=0;points=[[0,0.5],[1,0.5]];portConstraint=eastwest;" parent="TnUPyRHLWNfPNA_BWNht-62" vertex="1">
          <mxGeometry y="156" width="270" height="26" as="geometry" />
        </mxCell>
        <mxCell id="TnUPyRHLWNfPNA_BWNht-64" value="+ id_action: int(11)" style="text;strokeColor=none;fillColor=none;align=left;verticalAlign=top;spacingLeft=4;spacingRight=4;overflow=hidden;rotatable=0;points=[[0,0.5],[1,0.5]];portConstraint=eastwest;" parent="TnUPyRHLWNfPNA_BWNht-62" vertex="1">
          <mxGeometry y="182" width="270" height="26" as="geometry" />
        </mxCell>
        <mxCell id="aP_J8ZVIs6XaRMlqfYO1-3" value="" style="edgeStyle=entityRelationEdgeStyle;fontSize=12;html=1;endArrow=ERoneToMany;startArrow=ERmandOne;rounded=0;" parent="1" source="TnUPyRHLWNfPNA_BWNht-10" target="TnUPyRHLWNfPNA_BWNht-64" edge="1">
          <mxGeometry width="100" height="100" relative="1" as="geometry">
            <mxPoint x="-1470" y="1954" as="sourcePoint" />
            <mxPoint x="-1520" y="2054" as="targetPoint" />
          </mxGeometry>
        </mxCell>
        <mxCell id="aP_J8ZVIs6XaRMlqfYO1-4" value="qm_responsible_process" style="swimlane;fontStyle=0;childLayout=stackLayout;horizontal=1;startSize=26;fillColor=none;horizontalStack=0;resizeParent=1;resizeParentMax=0;resizeLast=0;collapsible=1;marginBottom=0;" parent="1" vertex="1">
          <mxGeometry x="-1360" y="2180" width="240" height="104" as="geometry" />
        </mxCell>
        <mxCell id="aP_J8ZVIs6XaRMlqfYO1-5" value="+ id_responsible_process: int(11)" style="text;strokeColor=none;fillColor=none;align=left;verticalAlign=top;spacingLeft=4;spacingRight=4;overflow=hidden;rotatable=0;points=[[0,0.5],[1,0.5]];portConstraint=eastwest;" parent="aP_J8ZVIs6XaRMlqfYO1-4" vertex="1">
          <mxGeometry y="26" width="240" height="26" as="geometry" />
        </mxCell>
        <mxCell id="mGLMu4-98tcpNEE7wflp-12" value="+ responsible_process_name: string(255)" style="text;strokeColor=none;fillColor=none;align=left;verticalAlign=top;spacingLeft=4;spacingRight=4;overflow=hidden;rotatable=0;points=[[0,0.5],[1,0.5]];portConstraint=eastwest;" parent="aP_J8ZVIs6XaRMlqfYO1-4" vertex="1">
          <mxGeometry y="52" width="240" height="26" as="geometry" />
        </mxCell>
        <mxCell id="mGLMu4-98tcpNEE7wflp-13" value="+ responsible_process_description: text" style="text;strokeColor=none;fillColor=none;align=left;verticalAlign=top;spacingLeft=4;spacingRight=4;overflow=hidden;rotatable=0;points=[[0,0.5],[1,0.5]];portConstraint=eastwest;" parent="aP_J8ZVIs6XaRMlqfYO1-4" vertex="1">
          <mxGeometry y="78" width="240" height="26" as="geometry" />
        </mxCell>
        <mxCell id="aP_J8ZVIs6XaRMlqfYO1-7" value="qm_impacted_process" style="swimlane;fontStyle=0;childLayout=stackLayout;horizontal=1;startSize=26;fillColor=none;horizontalStack=0;resizeParent=1;resizeParentMax=0;resizeLast=0;collapsible=1;marginBottom=0;" parent="1" vertex="1">
          <mxGeometry x="-1360" y="2314" width="230" height="104" as="geometry" />
        </mxCell>
        <mxCell id="aP_J8ZVIs6XaRMlqfYO1-8" value="+ id_impacted_process: int(11)" style="text;strokeColor=none;fillColor=none;align=left;verticalAlign=top;spacingLeft=4;spacingRight=4;overflow=hidden;rotatable=0;points=[[0,0.5],[1,0.5]];portConstraint=eastwest;" parent="aP_J8ZVIs6XaRMlqfYO1-7" vertex="1">
          <mxGeometry y="26" width="230" height="26" as="geometry" />
        </mxCell>
        <mxCell id="aP_J8ZVIs6XaRMlqfYO1-9" value="+ impacted_process_name: string(255)" style="text;strokeColor=none;fillColor=none;align=left;verticalAlign=top;spacingLeft=4;spacingRight=4;overflow=hidden;rotatable=0;points=[[0,0.5],[1,0.5]];portConstraint=eastwest;" parent="aP_J8ZVIs6XaRMlqfYO1-7" vertex="1">
          <mxGeometry y="52" width="230" height="26" as="geometry" />
        </mxCell>
        <mxCell id="mGLMu4-98tcpNEE7wflp-6" value="+ impacted_process_description: text" style="text;strokeColor=none;fillColor=none;align=left;verticalAlign=top;spacingLeft=4;spacingRight=4;overflow=hidden;rotatable=0;points=[[0,0.5],[1,0.5]];portConstraint=eastwest;" parent="aP_J8ZVIs6XaRMlqfYO1-7" vertex="1">
          <mxGeometry y="78" width="230" height="26" as="geometry" />
        </mxCell>
        <mxCell id="aP_J8ZVIs6XaRMlqfYO1-10" value="" style="edgeStyle=entityRelationEdgeStyle;fontSize=12;html=1;endArrow=ERoneToMany;startArrow=ERmandOne;rounded=0;" parent="1" source="aP_J8ZVIs6XaRMlqfYO1-5" target="TnUPyRHLWNfPNA_BWNht-13" edge="1">
          <mxGeometry width="100" height="100" relative="1" as="geometry">
            <mxPoint x="-1490" y="1973" as="sourcePoint" />
            <mxPoint x="-1420" y="2154" as="targetPoint" />
          </mxGeometry>
        </mxCell>
        <mxCell id="aP_J8ZVIs6XaRMlqfYO1-11" value="" style="edgeStyle=entityRelationEdgeStyle;fontSize=12;html=1;endArrow=ERoneToMany;startArrow=ERmandOne;rounded=0;" parent="1" source="aP_J8ZVIs6XaRMlqfYO1-8" target="TnUPyRHLWNfPNA_BWNht-14" edge="1">
          <mxGeometry width="100" height="100" relative="1" as="geometry">
            <mxPoint x="-1490" y="2051" as="sourcePoint" />
            <mxPoint x="-1460" y="2344" as="targetPoint" />
          </mxGeometry>
        </mxCell>
        <mxCell id="aP_J8ZVIs6XaRMlqfYO1-12" value="qm_methodology" style="swimlane;fontStyle=0;childLayout=stackLayout;horizontal=1;startSize=26;fillColor=none;horizontalStack=0;resizeParent=1;resizeParentMax=0;resizeLast=0;collapsible=1;marginBottom=0;" parent="1" vertex="1">
          <mxGeometry x="-1360" y="2440" width="215" height="104" as="geometry" />
        </mxCell>
        <mxCell id="aP_J8ZVIs6XaRMlqfYO1-13" value="+ id_methodology: int(11)" style="text;strokeColor=none;fillColor=none;align=left;verticalAlign=top;spacingLeft=4;spacingRight=4;overflow=hidden;rotatable=0;points=[[0,0.5],[1,0.5]];portConstraint=eastwest;" parent="aP_J8ZVIs6XaRMlqfYO1-12" vertex="1">
          <mxGeometry y="26" width="215" height="26" as="geometry" />
        </mxCell>
        <mxCell id="aP_J8ZVIs6XaRMlqfYO1-14" value="+ methodology_name: string(255)" style="text;strokeColor=none;fillColor=none;align=left;verticalAlign=top;spacingLeft=4;spacingRight=4;overflow=hidden;rotatable=0;points=[[0,0.5],[1,0.5]];portConstraint=eastwest;" parent="aP_J8ZVIs6XaRMlqfYO1-12" vertex="1">
          <mxGeometry y="52" width="215" height="26" as="geometry" />
        </mxCell>
        <mxCell id="mGLMu4-98tcpNEE7wflp-7" value="+ desc: text" style="text;strokeColor=none;fillColor=none;align=left;verticalAlign=top;spacingLeft=4;spacingRight=4;overflow=hidden;rotatable=0;points=[[0,0.5],[1,0.5]];portConstraint=eastwest;" parent="aP_J8ZVIs6XaRMlqfYO1-12" vertex="1">
          <mxGeometry y="78" width="215" height="26" as="geometry" />
        </mxCell>
        <mxCell id="aP_J8ZVIs6XaRMlqfYO1-15" value="qm_motive" style="swimlane;fontStyle=0;childLayout=stackLayout;horizontal=1;startSize=26;fillColor=none;horizontalStack=0;resizeParent=1;resizeParentMax=0;resizeLast=0;collapsible=1;marginBottom=0;" parent="1" vertex="1">
          <mxGeometry x="-1360" y="2584" width="180" height="104" as="geometry" />
        </mxCell>
        <mxCell id="aP_J8ZVIs6XaRMlqfYO1-16" value="+ id_motive: int(11)" style="text;strokeColor=none;fillColor=none;align=left;verticalAlign=top;spacingLeft=4;spacingRight=4;overflow=hidden;rotatable=0;points=[[0,0.5],[1,0.5]];portConstraint=eastwest;" parent="aP_J8ZVIs6XaRMlqfYO1-15" vertex="1">
          <mxGeometry y="26" width="180" height="26" as="geometry" />
        </mxCell>
        <mxCell id="aP_J8ZVIs6XaRMlqfYO1-17" value="+ motive_name: string(255)" style="text;strokeColor=none;fillColor=none;align=left;verticalAlign=top;spacingLeft=4;spacingRight=4;overflow=hidden;rotatable=0;points=[[0,0.5],[1,0.5]];portConstraint=eastwest;" parent="aP_J8ZVIs6XaRMlqfYO1-15" vertex="1">
          <mxGeometry y="52" width="180" height="26" as="geometry" />
        </mxCell>
        <mxCell id="mGLMu4-98tcpNEE7wflp-8" value="+ motive_description: text" style="text;strokeColor=none;fillColor=none;align=left;verticalAlign=top;spacingLeft=4;spacingRight=4;overflow=hidden;rotatable=0;points=[[0,0.5],[1,0.5]];portConstraint=eastwest;" parent="aP_J8ZVIs6XaRMlqfYO1-15" vertex="1">
          <mxGeometry y="78" width="180" height="26" as="geometry" />
        </mxCell>
        <mxCell id="aP_J8ZVIs6XaRMlqfYO1-18" value="" style="edgeStyle=entityRelationEdgeStyle;fontSize=12;html=1;endArrow=ERoneToMany;startArrow=ERmandOne;rounded=0;" parent="1" source="aP_J8ZVIs6XaRMlqfYO1-13" target="TnUPyRHLWNfPNA_BWNht-16" edge="1">
          <mxGeometry width="100" height="100" relative="1" as="geometry">
            <mxPoint x="-1390" y="2133" as="sourcePoint" />
            <mxPoint x="-1515" y="2067" as="targetPoint" />
          </mxGeometry>
        </mxCell>
        <mxCell id="aP_J8ZVIs6XaRMlqfYO1-19" value="" style="edgeStyle=entityRelationEdgeStyle;fontSize=12;html=1;endArrow=ERoneToMany;startArrow=ERmandOne;rounded=0;" parent="1" source="aP_J8ZVIs6XaRMlqfYO1-16" target="TnUPyRHLWNfPNA_BWNht-17" edge="1">
          <mxGeometry width="100" height="100" relative="1" as="geometry">
            <mxPoint x="-1390" y="2233" as="sourcePoint" />
            <mxPoint x="-1515" y="2119" as="targetPoint" />
          </mxGeometry>
        </mxCell>
        <mxCell id="aP_J8ZVIs6XaRMlqfYO1-20" value="qm_numeral_norm" style="swimlane;fontStyle=0;childLayout=stackLayout;horizontal=1;startSize=26;fillColor=none;horizontalStack=0;resizeParent=1;resizeParentMax=0;resizeLast=0;collapsible=1;marginBottom=0;" parent="1" vertex="1">
          <mxGeometry x="-1360" y="2054" width="210" height="104" as="geometry" />
        </mxCell>
        <mxCell id="aP_J8ZVIs6XaRMlqfYO1-21" value="+ id_numeral_norm: int(11)" style="text;strokeColor=none;fillColor=none;align=left;verticalAlign=top;spacingLeft=4;spacingRight=4;overflow=hidden;rotatable=0;points=[[0,0.5],[1,0.5]];portConstraint=eastwest;" parent="aP_J8ZVIs6XaRMlqfYO1-20" vertex="1">
          <mxGeometry y="26" width="210" height="26" as="geometry" />
        </mxCell>
        <mxCell id="aP_J8ZVIs6XaRMlqfYO1-22" value="+ numeral_norm_name: string(255)" style="text;strokeColor=none;fillColor=none;align=left;verticalAlign=top;spacingLeft=4;spacingRight=4;overflow=hidden;rotatable=0;points=[[0,0.5],[1,0.5]];portConstraint=eastwest;" parent="aP_J8ZVIs6XaRMlqfYO1-20" vertex="1">
          <mxGeometry y="52" width="210" height="26" as="geometry" />
        </mxCell>
        <mxCell id="mGLMu4-98tcpNEE7wflp-2" value="+ numeral_norm_description: text" style="text;strokeColor=none;fillColor=none;align=left;verticalAlign=top;spacingLeft=4;spacingRight=4;overflow=hidden;rotatable=0;points=[[0,0.5],[1,0.5]];portConstraint=eastwest;" parent="aP_J8ZVIs6XaRMlqfYO1-20" vertex="1">
          <mxGeometry y="78" width="210" height="26" as="geometry" />
        </mxCell>
        <mxCell id="aP_J8ZVIs6XaRMlqfYO1-23" value="" style="edgeStyle=entityRelationEdgeStyle;fontSize=12;html=1;endArrow=ERoneToMany;startArrow=ERmandOne;rounded=0;" parent="1" source="aP_J8ZVIs6XaRMlqfYO1-21" target="TnUPyRHLWNfPNA_BWNht-11" edge="1">
          <mxGeometry width="100" height="100" relative="1" as="geometry">
            <mxPoint x="-1390" y="2033" as="sourcePoint" />
            <mxPoint x="-1515" y="2041" as="targetPoint" />
          </mxGeometry>
        </mxCell>
        <mxCell id="aP_J8ZVIs6XaRMlqfYO1-25" value="qm_class_type" style="swimlane;fontStyle=0;childLayout=stackLayout;horizontal=1;startSize=26;fillColor=none;horizontalStack=0;resizeParent=1;resizeParentMax=0;resizeLast=0;collapsible=1;marginBottom=0;" parent="1" vertex="1">
          <mxGeometry x="-1360" y="1924" width="180" height="104" as="geometry" />
        </mxCell>
        <mxCell id="aP_J8ZVIs6XaRMlqfYO1-26" value="+ id_clase_type: int(11)" style="text;strokeColor=none;fillColor=none;align=left;verticalAlign=top;spacingLeft=4;spacingRight=4;overflow=hidden;rotatable=0;points=[[0,0.5],[1,0.5]];portConstraint=eastwest;" parent="aP_J8ZVIs6XaRMlqfYO1-25" vertex="1">
          <mxGeometry y="26" width="180" height="26" as="geometry" />
        </mxCell>
        <mxCell id="aP_J8ZVIs6XaRMlqfYO1-27" value="+ class_type_name: string(255)" style="text;strokeColor=none;fillColor=none;align=left;verticalAlign=top;spacingLeft=4;spacingRight=4;overflow=hidden;rotatable=0;points=[[0,0.5],[1,0.5]];portConstraint=eastwest;" parent="aP_J8ZVIs6XaRMlqfYO1-25" vertex="1">
          <mxGeometry y="52" width="180" height="26" as="geometry" />
        </mxCell>
        <mxCell id="mGLMu4-98tcpNEE7wflp-1" value="+ class_type_descriiption: text" style="text;strokeColor=none;fillColor=none;align=left;verticalAlign=top;spacingLeft=4;spacingRight=4;overflow=hidden;rotatable=0;points=[[0,0.5],[1,0.5]];portConstraint=eastwest;" parent="aP_J8ZVIs6XaRMlqfYO1-25" vertex="1">
          <mxGeometry y="78" width="180" height="26" as="geometry" />
        </mxCell>
        <mxCell id="aP_J8ZVIs6XaRMlqfYO1-28" value="" style="edgeStyle=entityRelationEdgeStyle;fontSize=12;html=1;endArrow=ERoneToMany;startArrow=ERmandOne;rounded=0;" parent="1" source="aP_J8ZVIs6XaRMlqfYO1-26" target="aP_J8ZVIs6XaRMlqfYO1-24" edge="1">
          <mxGeometry width="100" height="100" relative="1" as="geometry">
            <mxPoint x="-1380" y="2013" as="sourcePoint" />
            <mxPoint x="-1510" y="2005" as="targetPoint" />
          </mxGeometry>
        </mxCell>
        <mxCell id="mGLMu4-98tcpNEE7wflp-11" value="" style="edgeStyle=entityRelationEdgeStyle;fontSize=12;html=1;endArrow=ERoneToMany;startArrow=ERmandOne;rounded=0;" parent="1" source="TnUPyRHLWNfPNA_BWNht-10" target="TnUPyRHLWNfPNA_BWNht-28" edge="1">
          <mxGeometry width="100" height="100" relative="1" as="geometry">
            <mxPoint x="-1800" y="1924" as="sourcePoint" />
            <mxPoint x="-1560" y="2144" as="targetPoint" />
          </mxGeometry>
        </mxCell>
        <mxCell id="WMeFY94fwu9JhdbWC9ym-1" value="" style="edgeStyle=entityRelationEdgeStyle;fontSize=12;html=1;endArrow=ERoneToMany;startArrow=ERmandOne;rounded=0;" parent="1" source="TnUPyRHLWNfPNA_BWNht-59" target="TnUPyRHLWNfPNA_BWNht-65" edge="1">
          <mxGeometry width="100" height="100" relative="1" as="geometry">
            <mxPoint x="-1730" y="1884" as="sourcePoint" />
            <mxPoint x="-1630" y="1784" as="targetPoint" />
          </mxGeometry>
        </mxCell>
        <mxCell id="WMeFY94fwu9JhdbWC9ym-5" value="qm_state_type" style="swimlane;fontStyle=0;childLayout=stackLayout;horizontal=1;startSize=26;fillColor=#FFCC99;horizontalStack=0;resizeParent=1;resizeParentMax=0;resizeLast=0;collapsible=1;marginBottom=0;" parent="1" vertex="1">
          <mxGeometry x="-2040" y="2404" width="240" height="104" as="geometry" />
        </mxCell>
        <mxCell id="WMeFY94fwu9JhdbWC9ym-6" value="+ id_state_type: int(11)" style="text;strokeColor=none;fillColor=#FFCC99;align=left;verticalAlign=top;spacingLeft=4;spacingRight=4;overflow=hidden;rotatable=0;points=[[0,0.5],[1,0.5]];portConstraint=eastwest;" parent="WMeFY94fwu9JhdbWC9ym-5" vertex="1">
          <mxGeometry y="26" width="240" height="26" as="geometry" />
        </mxCell>
        <mxCell id="WMeFY94fwu9JhdbWC9ym-7" value="+ state_type_name: string(255)" style="text;strokeColor=none;fillColor=#FFCC99;align=left;verticalAlign=top;spacingLeft=4;spacingRight=4;overflow=hidden;rotatable=0;points=[[0,0.5],[1,0.5]];portConstraint=eastwest;" parent="WMeFY94fwu9JhdbWC9ym-5" vertex="1">
          <mxGeometry y="52" width="240" height="26" as="geometry" />
        </mxCell>
        <mxCell id="WMeFY94fwu9JhdbWC9ym-8" value="+ state_type_description: text" style="text;strokeColor=none;fillColor=#FFCC99;align=left;verticalAlign=top;spacingLeft=4;spacingRight=4;overflow=hidden;rotatable=0;points=[[0,0.5],[1,0.5]];portConstraint=eastwest;" parent="WMeFY94fwu9JhdbWC9ym-5" vertex="1">
          <mxGeometry y="78" width="240" height="26" as="geometry" />
        </mxCell>
        <mxCell id="WMeFY94fwu9JhdbWC9ym-9" value="" style="edgeStyle=entityRelationEdgeStyle;fontSize=12;html=1;endArrow=ERoneToMany;startArrow=ERmandOne;rounded=0;" parent="1" source="WMeFY94fwu9JhdbWC9ym-6" target="TnUPyRHLWNfPNA_BWNht-37" edge="1">
          <mxGeometry width="100" height="100" relative="1" as="geometry">
            <mxPoint x="-1720" y="2314" as="sourcePoint" />
            <mxPoint x="-1620" y="2214" as="targetPoint" />
          </mxGeometry>
        </mxCell>
        <mxCell id="WMeFY94fwu9JhdbWC9ym-10" value="" style="edgeStyle=entityRelationEdgeStyle;fontSize=12;html=1;endArrow=ERoneToMany;startArrow=ERmandOne;rounded=0;" parent="1" source="WMeFY94fwu9JhdbWC9ym-6" target="TnUPyRHLWNfPNA_BWNht-24" edge="1">
          <mxGeometry width="100" height="100" relative="1" as="geometry">
            <mxPoint x="-1830" y="2403" as="sourcePoint" />
            <mxPoint x="-1810" y="2187" as="targetPoint" />
          </mxGeometry>
        </mxCell>
        <mxCell id="OqHATmE9yE6C7j0-I17L-1" value="document (expe_digital)" style="swimlane;fontStyle=0;childLayout=stackLayout;horizontal=1;startSize=26;fillColor=#FFCCCC;horizontalStack=0;resizeParent=1;resizeParentMax=0;resizeLast=0;collapsible=1;marginBottom=0;" parent="1" vertex="1">
          <mxGeometry x="105" y="-1168" width="280" height="494" as="geometry" />
        </mxCell>
        <mxCell id="OqHATmE9yE6C7j0-I17L-2" value="+ id_document: bigint(20)" style="text;strokeColor=none;fillColor=none;align=left;verticalAlign=top;spacingLeft=4;spacingRight=4;overflow=hidden;rotatable=0;points=[[0,0.5],[1,0.5]];portConstraint=eastwest;" parent="OqHATmE9yE6C7j0-I17L-1" vertex="1">
          <mxGeometry y="26" width="280" height="26" as="geometry" />
        </mxCell>
        <mxCell id="OqHATmE9yE6C7j0-I17L-4" value="+ document_name: string(255)" style="text;strokeColor=none;fillColor=none;align=left;verticalAlign=top;spacingLeft=4;spacingRight=4;overflow=hidden;rotatable=0;points=[[0,0.5],[1,0.5]];portConstraint=eastwest;" parent="OqHATmE9yE6C7j0-I17L-1" vertex="1">
          <mxGeometry y="52" width="280" height="26" as="geometry" />
        </mxCell>
        <mxCell id="OqHATmE9yE6C7j0-I17L-5" value="+ document_creation_date: datetime" style="text;strokeColor=none;fillColor=none;align=left;verticalAlign=top;spacingLeft=4;spacingRight=4;overflow=hidden;rotatable=0;points=[[0,0.5],[1,0.5]];portConstraint=eastwest;" parent="OqHATmE9yE6C7j0-I17L-1" vertex="1">
          <mxGeometry y="78" width="280" height="26" as="geometry" />
        </mxCell>
        <mxCell id="OqHATmE9yE6C7j0-I17L-26" value="+ document_incorporation_date: datetime" style="text;strokeColor=none;fillColor=none;align=left;verticalAlign=top;spacingLeft=4;spacingRight=4;overflow=hidden;rotatable=0;points=[[0,0.5],[1,0.5]];portConstraint=eastwest;" parent="OqHATmE9yE6C7j0-I17L-1" vertex="1">
          <mxGeometry y="104" width="280" height="26" as="geometry" />
        </mxCell>
        <mxCell id="OqHATmE9yE6C7j0-I17L-24" value="+ date_from: datetime" style="text;strokeColor=none;fillColor=#FFCCCC;align=left;verticalAlign=top;spacingLeft=4;spacingRight=4;overflow=hidden;rotatable=0;points=[[0,0.5],[1,0.5]];portConstraint=eastwest;" parent="OqHATmE9yE6C7j0-I17L-1" vertex="1">
          <mxGeometry y="130" width="280" height="26" as="geometry" />
        </mxCell>
        <mxCell id="OqHATmE9yE6C7j0-I17L-25" value="+ date_to: datetime" style="text;strokeColor=none;fillColor=#FFCCCC;align=left;verticalAlign=top;spacingLeft=4;spacingRight=4;overflow=hidden;rotatable=0;points=[[0,0.5],[1,0.5]];portConstraint=eastwest;" parent="OqHATmE9yE6C7j0-I17L-1" vertex="1">
          <mxGeometry y="156" width="280" height="26" as="geometry" />
        </mxCell>
        <mxCell id="OqHATmE9yE6C7j0-I17L-6" value="+ document_orden: int(11)" style="text;strokeColor=none;fillColor=none;align=left;verticalAlign=top;spacingLeft=4;spacingRight=4;overflow=hidden;rotatable=0;points=[[0,0.5],[1,0.5]];portConstraint=eastwest;" parent="OqHATmE9yE6C7j0-I17L-1" vertex="1">
          <mxGeometry y="182" width="280" height="26" as="geometry" />
        </mxCell>
        <mxCell id="OqHATmE9yE6C7j0-I17L-7" value="+ document_pages_number: int(11)" style="text;strokeColor=none;fillColor=none;align=left;verticalAlign=top;spacingLeft=4;spacingRight=4;overflow=hidden;rotatable=0;points=[[0,0.5],[1,0.5]];portConstraint=eastwest;" parent="OqHATmE9yE6C7j0-I17L-1" vertex="1">
          <mxGeometry y="208" width="280" height="26" as="geometry" />
        </mxCell>
        <mxCell id="OqHATmE9yE6C7j0-I17L-8" value="+ document_start_page: int(11)" style="text;strokeColor=none;fillColor=none;align=left;verticalAlign=top;spacingLeft=4;spacingRight=4;overflow=hidden;rotatable=0;points=[[0,0.5],[1,0.5]];portConstraint=eastwest;" parent="OqHATmE9yE6C7j0-I17L-1" vertex="1">
          <mxGeometry y="234" width="280" height="26" as="geometry" />
        </mxCell>
        <mxCell id="OqHATmE9yE6C7j0-I17L-9" value="+ document_end_page: int(11)" style="text;strokeColor=none;fillColor=none;align=left;verticalAlign=top;spacingLeft=4;spacingRight=4;overflow=hidden;rotatable=0;points=[[0,0.5],[1,0.5]];portConstraint=eastwest;" parent="OqHATmE9yE6C7j0-I17L-1" vertex="1">
          <mxGeometry y="260" width="280" height="26" as="geometry" />
        </mxCell>
        <mxCell id="OqHATmE9yE6C7j0-I17L-10" value="+ document_format: string(255)" style="text;strokeColor=none;fillColor=none;align=left;verticalAlign=top;spacingLeft=4;spacingRight=4;overflow=hidden;rotatable=0;points=[[0,0.5],[1,0.5]];portConstraint=eastwest;" parent="OqHATmE9yE6C7j0-I17L-1" vertex="1">
          <mxGeometry y="286" width="280" height="26" as="geometry" />
        </mxCell>
        <mxCell id="OqHATmE9yE6C7j0-I17L-11" value="+ document_size: string(255)" style="text;strokeColor=none;fillColor=none;align=left;verticalAlign=top;spacingLeft=4;spacingRight=4;overflow=hidden;rotatable=0;points=[[0,0.5],[1,0.5]];portConstraint=eastwest;" parent="OqHATmE9yE6C7j0-I17L-1" vertex="1">
          <mxGeometry y="312" width="280" height="26" as="geometry" />
        </mxCell>
        <mxCell id="mON6WonRohZX_aaUOoLF-54" value="+ document_path: string(255)" style="text;strokeColor=none;fillColor=none;align=left;verticalAlign=top;spacingLeft=4;spacingRight=4;overflow=hidden;rotatable=0;points=[[0,0.5],[1,0.5]];portConstraint=eastwest;" parent="OqHATmE9yE6C7j0-I17L-1" vertex="1">
          <mxGeometry y="338" width="280" height="26" as="geometry" />
        </mxCell>
        <mxCell id="OqHATmE9yE6C7j0-I17L-14" value="+ id_employee_registered: bigint(20)" style="text;strokeColor=none;fillColor=#FFCC99;align=left;verticalAlign=top;spacingLeft=4;spacingRight=4;overflow=hidden;rotatable=0;points=[[0,0.5],[1,0.5]];portConstraint=eastwest;" parent="OqHATmE9yE6C7j0-I17L-1" vertex="1">
          <mxGeometry y="364" width="280" height="26" as="geometry" />
        </mxCell>
        <mxCell id="1skcdSYpiU9riw8ruw96-3" value="+ id_employee_modified: bigint(20)" style="text;strokeColor=none;fillColor=#FFCC99;align=left;verticalAlign=top;spacingLeft=4;spacingRight=4;overflow=hidden;rotatable=0;points=[[0,0.5],[1,0.5]];portConstraint=eastwest;" parent="OqHATmE9yE6C7j0-I17L-1" vertex="1">
          <mxGeometry y="390" width="280" height="26" as="geometry" />
        </mxCell>
        <mxCell id="OqHATmE9yE6C7j0-I17L-59" value="+ id_notebook_type: int(11)" style="text;strokeColor=none;fillColor=none;align=left;verticalAlign=top;spacingLeft=4;spacingRight=4;overflow=hidden;rotatable=0;points=[[0,0.5],[1,0.5]];portConstraint=eastwest;" parent="OqHATmE9yE6C7j0-I17L-1" vertex="1">
          <mxGeometry y="416" width="280" height="26" as="geometry" />
        </mxCell>
        <mxCell id="rQy6I5jSdBG7i_t-9aFB-17" value="+ id_origen_type: int(11)" style="text;strokeColor=none;fillColor=none;align=left;verticalAlign=top;spacingLeft=4;spacingRight=4;overflow=hidden;rotatable=0;points=[[0,0.5],[1,0.5]];portConstraint=eastwest;" parent="OqHATmE9yE6C7j0-I17L-1" vertex="1">
          <mxGeometry y="442" width="280" height="26" as="geometry" />
        </mxCell>
        <mxCell id="OqHATmE9yE6C7j0-I17L-3" value="+ id_dossier: bigint(20)" style="text;strokeColor=none;fillColor=none;align=left;verticalAlign=top;spacingLeft=4;spacingRight=4;overflow=hidden;rotatable=0;points=[[0,0.5],[1,0.5]];portConstraint=eastwest;" parent="OqHATmE9yE6C7j0-I17L-1" vertex="1">
          <mxGeometry y="468" width="280" height="26" as="geometry" />
        </mxCell>
        <mxCell id="OqHATmE9yE6C7j0-I17L-31" value="actuation (expe_historial)" style="swimlane;fontStyle=0;childLayout=stackLayout;horizontal=1;startSize=26;fillColor=none;horizontalStack=0;resizeParent=1;resizeParentMax=0;resizeLast=0;collapsible=1;marginBottom=0;" parent="1" vertex="1">
          <mxGeometry x="540" y="-1220" width="270" height="286" as="geometry" />
        </mxCell>
        <mxCell id="OqHATmE9yE6C7j0-I17L-32" value="+ id_actuation: bigint(20)" style="text;strokeColor=none;fillColor=none;align=left;verticalAlign=top;spacingLeft=4;spacingRight=4;overflow=hidden;rotatable=0;points=[[0,0.5],[1,0.5]];portConstraint=eastwest;" parent="OqHATmE9yE6C7j0-I17L-31" vertex="1">
          <mxGeometry y="26" width="270" height="26" as="geometry" />
        </mxCell>
        <mxCell id="rQy6I5jSdBG7i_t-9aFB-6" value="+ actuation_registered_date: datetime" style="text;strokeColor=none;fillColor=none;align=left;verticalAlign=top;spacingLeft=4;spacingRight=4;overflow=hidden;rotatable=0;points=[[0,0.5],[1,0.5]];portConstraint=eastwest;" parent="OqHATmE9yE6C7j0-I17L-31" vertex="1">
          <mxGeometry y="52" width="270" height="26" as="geometry" />
        </mxCell>
        <mxCell id="mON6WonRohZX_aaUOoLF-28" value="+ actuation_modified_date: datetime" style="text;strokeColor=none;fillColor=none;align=left;verticalAlign=top;spacingLeft=4;spacingRight=4;overflow=hidden;rotatable=0;points=[[0,0.5],[1,0.5]];portConstraint=eastwest;" parent="OqHATmE9yE6C7j0-I17L-31" vertex="1">
          <mxGeometry y="78" width="270" height="26" as="geometry" />
        </mxCell>
        <mxCell id="rQy6I5jSdBG7i_t-9aFB-9" value="+ actuation: text" style="text;strokeColor=none;fillColor=none;align=left;verticalAlign=top;spacingLeft=4;spacingRight=4;overflow=hidden;rotatable=0;points=[[0,0.5],[1,0.5]];portConstraint=eastwest;" parent="OqHATmE9yE6C7j0-I17L-31" vertex="1">
          <mxGeometry y="104" width="270" height="26" as="geometry" />
        </mxCell>
        <mxCell id="rQy6I5jSdBG7i_t-9aFB-8" value="+ id_employee_registered: bigint(20)" style="text;strokeColor=none;fillColor=#FFCC99;align=left;verticalAlign=top;spacingLeft=4;spacingRight=4;overflow=hidden;rotatable=0;points=[[0,0.5],[1,0.5]];portConstraint=eastwest;" parent="OqHATmE9yE6C7j0-I17L-31" vertex="1">
          <mxGeometry y="130" width="270" height="26" as="geometry" />
        </mxCell>
        <mxCell id="mON6WonRohZX_aaUOoLF-29" value="+ id_employee_modified: bigint(20)" style="text;strokeColor=none;fillColor=#FFCC99;align=left;verticalAlign=top;spacingLeft=4;spacingRight=4;overflow=hidden;rotatable=0;points=[[0,0.5],[1,0.5]];portConstraint=eastwest;" parent="OqHATmE9yE6C7j0-I17L-31" vertex="1">
          <mxGeometry y="156" width="270" height="26" as="geometry" />
        </mxCell>
        <mxCell id="rQy6I5jSdBG7i_t-9aFB-11" value="+ id_actuation_type: int(11)" style="text;strokeColor=none;fillColor=#FFCC99;align=left;verticalAlign=top;spacingLeft=4;spacingRight=4;overflow=hidden;rotatable=0;points=[[0,0.5],[1,0.5]];portConstraint=eastwest;" parent="OqHATmE9yE6C7j0-I17L-31" vertex="1">
          <mxGeometry y="182" width="270" height="26" as="geometry" />
        </mxCell>
        <mxCell id="rQy6I5jSdBG7i_t-9aFB-13" value="+ id_court: int(11)" style="text;strokeColor=none;fillColor=none;align=left;verticalAlign=top;spacingLeft=4;spacingRight=4;overflow=hidden;rotatable=0;points=[[0,0.5],[1,0.5]];portConstraint=eastwest;" parent="OqHATmE9yE6C7j0-I17L-31" vertex="1">
          <mxGeometry y="208" width="270" height="26" as="geometry" />
        </mxCell>
        <mxCell id="rQy6I5jSdBG7i_t-9aFB-2" value="+ id_document: bigint(20)" style="text;strokeColor=none;fillColor=none;align=left;verticalAlign=top;spacingLeft=4;spacingRight=4;overflow=hidden;rotatable=0;points=[[0,0.5],[1,0.5]];portConstraint=eastwest;" parent="OqHATmE9yE6C7j0-I17L-31" vertex="1">
          <mxGeometry y="234" width="270" height="26" as="geometry" />
        </mxCell>
        <mxCell id="1skcdSYpiU9riw8ruw96-5" value="+ actuation_file: string(255)" style="text;strokeColor=none;fillColor=none;align=left;verticalAlign=top;spacingLeft=4;spacingRight=4;overflow=hidden;rotatable=0;points=[[0,0.5],[1,0.5]];portConstraint=eastwest;" parent="OqHATmE9yE6C7j0-I17L-31" vertex="1">
          <mxGeometry y="260" width="270" height="26" as="geometry" />
        </mxCell>
        <mxCell id="OqHATmE9yE6C7j0-I17L-35" value="notebook_type (expe_cuaderno)" style="swimlane;fontStyle=0;childLayout=stackLayout;horizontal=1;startSize=26;fillColor=none;horizontalStack=0;resizeParent=1;resizeParentMax=0;resizeLast=0;collapsible=1;marginBottom=0;" parent="1" vertex="1">
          <mxGeometry x="532.5" y="-888" width="240" height="156" as="geometry" />
        </mxCell>
        <mxCell id="OqHATmE9yE6C7j0-I17L-36" value="+ id_notebook_type: int(11)" style="text;strokeColor=none;fillColor=none;align=left;verticalAlign=top;spacingLeft=4;spacingRight=4;overflow=hidden;rotatable=0;points=[[0,0.5],[1,0.5]];portConstraint=eastwest;" parent="OqHATmE9yE6C7j0-I17L-35" vertex="1">
          <mxGeometry y="26" width="240" height="26" as="geometry" />
        </mxCell>
        <mxCell id="OqHATmE9yE6C7j0-I17L-37" value="+ notebook_type_name: string(255)" style="text;strokeColor=none;fillColor=none;align=left;verticalAlign=top;spacingLeft=4;spacingRight=4;overflow=hidden;rotatable=0;points=[[0,0.5],[1,0.5]];portConstraint=eastwest;" parent="OqHATmE9yE6C7j0-I17L-35" vertex="1">
          <mxGeometry y="52" width="240" height="26" as="geometry" />
        </mxCell>
        <mxCell id="OqHATmE9yE6C7j0-I17L-38" value="+ notebook_type_description: text" style="text;strokeColor=none;fillColor=none;align=left;verticalAlign=top;spacingLeft=4;spacingRight=4;overflow=hidden;rotatable=0;points=[[0,0.5],[1,0.5]];portConstraint=eastwest;" parent="OqHATmE9yE6C7j0-I17L-35" vertex="1">
          <mxGeometry y="78" width="240" height="26" as="geometry" />
        </mxCell>
        <mxCell id="OqHATmE9yE6C7j0-I17L-57" value="+ notebooke_type_order: int(11) Unique" style="text;strokeColor=none;fillColor=none;align=left;verticalAlign=top;spacingLeft=4;spacingRight=4;overflow=hidden;rotatable=0;points=[[0,0.5],[1,0.5]];portConstraint=eastwest;" parent="OqHATmE9yE6C7j0-I17L-35" vertex="1">
          <mxGeometry y="104" width="240" height="26" as="geometry" />
        </mxCell>
        <mxCell id="OqHATmE9yE6C7j0-I17L-65" value="+ notebooke_type_color: string(255)" style="text;strokeColor=none;fillColor=none;align=left;verticalAlign=top;spacingLeft=4;spacingRight=4;overflow=hidden;rotatable=0;points=[[0,0.5],[1,0.5]];portConstraint=eastwest;" parent="OqHATmE9yE6C7j0-I17L-35" vertex="1">
          <mxGeometry y="130" width="240" height="26" as="geometry" />
        </mxCell>
        <mxCell id="OqHATmE9yE6C7j0-I17L-39" style="edgeStyle=orthogonalEdgeStyle;rounded=0;orthogonalLoop=1;jettySize=auto;html=1;" parent="1" source="aP_J8ZVIs6XaRMlqfYO1-25" target="OqHATmE9yE6C7j0-I17L-40" edge="1">
          <mxGeometry relative="1" as="geometry">
            <mxPoint x="-1100" y="2024" as="targetPoint" />
            <mxPoint x="-1165" y="1970" as="sourcePoint" />
          </mxGeometry>
        </mxCell>
        <mxCell id="OqHATmE9yE6C7j0-I17L-40" value="&lt;div&gt;- Acción Correctiva por una No conformidad&lt;/div&gt;&lt;div&gt;- Acción Correctiva por una Salida No Conforme&lt;/div&gt;&lt;div&gt;- Acción Mejora de Producto o Servicio&lt;/div&gt;&lt;div&gt;- Acción Mejora del SGC&lt;/div&gt;&lt;div&gt;- Observación&lt;/div&gt;" style="whiteSpace=wrap;html=1;align=left;fillColor=#99FF99;" parent="1" vertex="1">
          <mxGeometry x="-1090" y="1940" width="270" height="84" as="geometry" />
        </mxCell>
        <mxCell id="OqHATmE9yE6C7j0-I17L-41" style="edgeStyle=orthogonalEdgeStyle;rounded=0;orthogonalLoop=1;jettySize=auto;html=1;" parent="1" source="aP_J8ZVIs6XaRMlqfYO1-20" target="OqHATmE9yE6C7j0-I17L-42" edge="1">
          <mxGeometry relative="1" as="geometry">
            <mxPoint x="-1080" y="2154" as="targetPoint" />
            <mxPoint x="-1160" y="2106" as="sourcePoint" />
          </mxGeometry>
        </mxCell>
        <mxCell id="OqHATmE9yE6C7j0-I17L-42" value="&lt;div&gt;- Mejora&lt;/div&gt;&lt;div&gt;- Planificación&lt;/div&gt;&lt;div&gt;- Apoyo&lt;/div&gt;&lt;div&gt;- Contexto de la organización&lt;/div&gt;&lt;div&gt;- Evaluación del Desempeño&lt;/div&gt;&lt;div&gt;- Liderazgo&lt;/div&gt;&lt;div&gt;- Operación&lt;/div&gt;" style="whiteSpace=wrap;html=1;align=left;fillColor=#99FF99;" parent="1" vertex="1">
          <mxGeometry x="-1080" y="2040" width="190" height="118" as="geometry" />
        </mxCell>
        <mxCell id="OqHATmE9yE6C7j0-I17L-43" style="edgeStyle=orthogonalEdgeStyle;rounded=0;orthogonalLoop=1;jettySize=auto;html=1;" parent="1" source="aP_J8ZVIs6XaRMlqfYO1-4" target="OqHATmE9yE6C7j0-I17L-44" edge="1">
          <mxGeometry relative="1" as="geometry">
            <mxPoint x="-1060" y="2280" as="targetPoint" />
            <mxPoint x="-1130" y="2232" as="sourcePoint" />
          </mxGeometry>
        </mxCell>
        <mxCell id="OqHATmE9yE6C7j0-I17L-44" value="&lt;div&gt;- Dirección Estratégica&lt;/div&gt;&lt;div&gt;- Gestión Contable&lt;/div&gt;&lt;div&gt;- Gestión de Insumos e Inventarios&lt;/div&gt;&lt;div&gt;- Gestión de Recepción y Reparto de Procesos Judiciales&lt;/div&gt;&lt;div&gt;- Gestión deTecnología, Innovación y Soporte&lt;/div&gt;&lt;div&gt;- Gestión Documental&lt;/div&gt;&lt;div&gt;- Gestión Judicial&lt;/div&gt;&lt;div&gt;- Gestión Talento Humano&lt;/div&gt;&lt;div&gt;- Seguimiento, Control y Mejora de la Gestión&lt;/div&gt;" style="whiteSpace=wrap;html=1;align=left;fillColor=#99FF99;" parent="1" vertex="1">
          <mxGeometry x="-1045" y="2174" width="310" height="140" as="geometry" />
        </mxCell>
        <mxCell id="OqHATmE9yE6C7j0-I17L-45" style="edgeStyle=orthogonalEdgeStyle;rounded=0;orthogonalLoop=1;jettySize=auto;html=1;" parent="1" source="aP_J8ZVIs6XaRMlqfYO1-7" target="rQy6I5jSdBG7i_t-9aFB-1" edge="1">
          <mxGeometry relative="1" as="geometry">
            <mxPoint x="-1040" y="2368" as="targetPoint" />
            <mxPoint x="-1110" y="2368" as="sourcePoint" />
          </mxGeometry>
        </mxCell>
        <mxCell id="OqHATmE9yE6C7j0-I17L-47" style="edgeStyle=orthogonalEdgeStyle;rounded=0;orthogonalLoop=1;jettySize=auto;html=1;" parent="1" source="aP_J8ZVIs6XaRMlqfYO1-12" target="OqHATmE9yE6C7j0-I17L-48" edge="1">
          <mxGeometry relative="1" as="geometry">
            <mxPoint x="-1050" y="2540" as="targetPoint" />
            <mxPoint x="-1130" y="2490" as="sourcePoint" />
          </mxGeometry>
        </mxCell>
        <mxCell id="OqHATmE9yE6C7j0-I17L-48" value="&lt;div&gt;- Cinco Porqué&lt;/div&gt;&lt;div&gt;- Diagrama Causa Efecto y/o Técnica de Grupo Nominal&lt;/div&gt;&lt;div&gt;- Lluvia de Ideas&lt;/div&gt;" style="whiteSpace=wrap;html=1;align=left;fillColor=#99FF99;" parent="1" vertex="1">
          <mxGeometry x="-1020" y="2474" width="320" height="72" as="geometry" />
        </mxCell>
        <mxCell id="OqHATmE9yE6C7j0-I17L-49" style="edgeStyle=orthogonalEdgeStyle;rounded=0;orthogonalLoop=1;jettySize=auto;html=1;" parent="1" source="aP_J8ZVIs6XaRMlqfYO1-15" target="OqHATmE9yE6C7j0-I17L-50" edge="1">
          <mxGeometry relative="1" as="geometry">
            <mxPoint x="-1080" y="2668" as="targetPoint" />
            <mxPoint x="-1175" y="2620" as="sourcePoint" />
          </mxGeometry>
        </mxCell>
        <mxCell id="OqHATmE9yE6C7j0-I17L-50" value="&lt;div&gt;- Auditora de Control Interno&lt;/div&gt;&lt;div&gt;- Auditoria Externa de Calidad&lt;/div&gt;&lt;div&gt;- Auditoria Interna de Calidad&lt;/div&gt;&lt;div&gt;- Autoevaluación&lt;/div&gt;&lt;div&gt;- Incumplimiento de Indicadores&lt;/div&gt;&lt;div&gt;- No conformidad&lt;/div&gt;&lt;div&gt;- Organismos de Control&lt;/div&gt;&lt;div&gt;- Otro&lt;/div&gt;&lt;div&gt;- PQRS&lt;/div&gt;&lt;div&gt;- Revisión por la Dirección&lt;/div&gt;&lt;div&gt;- Salida No conforme&lt;/div&gt;&lt;div&gt;- Valoración riesgos&lt;/div&gt;" style="whiteSpace=wrap;html=1;align=left;fillColor=#99FF99;" parent="1" vertex="1">
          <mxGeometry x="-1065" y="2584" width="330" height="192" as="geometry" />
        </mxCell>
        <mxCell id="OqHATmE9yE6C7j0-I17L-51" style="edgeStyle=orthogonalEdgeStyle;rounded=0;orthogonalLoop=1;jettySize=auto;html=1;" parent="1" source="WMeFY94fwu9JhdbWC9ym-5" target="OqHATmE9yE6C7j0-I17L-52" edge="1">
          <mxGeometry relative="1" as="geometry">
            <mxPoint x="-2280" y="2504" as="targetPoint" />
            <mxPoint x="-2380" y="2472" as="sourcePoint" />
          </mxGeometry>
        </mxCell>
        <mxCell id="OqHATmE9yE6C7j0-I17L-52" value="- Terminada&lt;br&gt;- En proceso" style="whiteSpace=wrap;html=1;align=left;fillColor=#99FF99;" parent="1" vertex="1">
          <mxGeometry x="-2270" y="2420" width="140" height="72" as="geometry" />
        </mxCell>
        <mxCell id="OqHATmE9yE6C7j0-I17L-53" style="edgeStyle=orthogonalEdgeStyle;rounded=0;orthogonalLoop=1;jettySize=auto;html=1;" parent="1" source="TnUPyRHLWNfPNA_BWNht-58" target="OqHATmE9yE6C7j0-I17L-54" edge="1">
          <mxGeometry relative="1" as="geometry">
            <mxPoint x="-1975" y="1804" as="targetPoint" />
            <mxPoint x="-1735" y="1756" as="sourcePoint" />
          </mxGeometry>
        </mxCell>
        <mxCell id="OqHATmE9yE6C7j0-I17L-54" value="&lt;div&gt;- Las actividades propuestas en el plan de acción fueron eficaces (alcanzaron el objetivo)&lt;/div&gt;&lt;div&gt;- Es necesario actualizar los riesgos y oportunidades&lt;/div&gt;&lt;div&gt;- Es necesario hacer cambios al sistema de gestión de calidad&lt;/div&gt;" style="whiteSpace=wrap;html=1;align=left;fillColor=#99FF99;" parent="1" vertex="1">
          <mxGeometry x="-2310" y="1720" width="485" height="72" as="geometry" />
        </mxCell>
        <mxCell id="OqHATmE9yE6C7j0-I17L-58" value="" style="edgeStyle=entityRelationEdgeStyle;fontSize=12;html=1;endArrow=ERoneToMany;startArrow=ERmandOne;rounded=0;" parent="1" source="OqHATmE9yE6C7j0-I17L-36" target="OqHATmE9yE6C7j0-I17L-59" edge="1">
          <mxGeometry width="100" height="100" relative="1" as="geometry">
            <mxPoint x="432.5" y="-970" as="sourcePoint" />
            <mxPoint x="487.5" y="-930" as="targetPoint" />
          </mxGeometry>
        </mxCell>
        <mxCell id="OqHATmE9yE6C7j0-I17L-64" value="" style="edgeStyle=entityRelationEdgeStyle;fontSize=12;html=1;endArrow=ERoneToMany;startArrow=ERmandOne;rounded=0;" parent="1" source="99nmjj4Q9bfn7_SC2MuP-48" target="OqHATmE9yE6C7j0-I17L-3" edge="1">
          <mxGeometry width="100" height="100" relative="1" as="geometry">
            <mxPoint x="275" y="1814" as="sourcePoint" />
            <mxPoint x="225" y="1724" as="targetPoint" />
          </mxGeometry>
        </mxCell>
        <mxCell id="rQy6I5jSdBG7i_t-9aFB-1" value="&lt;div&gt;- Dirección Estratégica&lt;/div&gt;&lt;div&gt;- Gestión Contable&lt;/div&gt;&lt;div&gt;- Gestión de Insumos e Inventarios&lt;/div&gt;&lt;div&gt;- Gestión de Recepción y Reparto de Procesos Judiciales&lt;/div&gt;&lt;div&gt;- Gestión deTecnología, Innovación y Soporte&lt;/div&gt;&lt;div&gt;- Gestión Documental&lt;/div&gt;&lt;div&gt;- Gestión Judicial&lt;/div&gt;&lt;div&gt;- Gestión Talento Humano&lt;/div&gt;&lt;div&gt;- Seguimiento, Control y Mejora de la Gestión&lt;/div&gt;" style="whiteSpace=wrap;html=1;align=left;fillColor=#99FF99;" parent="1" vertex="1">
          <mxGeometry x="-1045" y="2320" width="310" height="140" as="geometry" />
        </mxCell>
        <mxCell id="rQy6I5jSdBG7i_t-9aFB-3" value="" style="edgeStyle=entityRelationEdgeStyle;fontSize=12;html=1;endArrow=ERmandOne;startArrow=ERmandOne;rounded=0;" parent="1" source="OqHATmE9yE6C7j0-I17L-2" target="rQy6I5jSdBG7i_t-9aFB-2" edge="1">
          <mxGeometry width="100" height="100" relative="1" as="geometry">
            <mxPoint x="462.5" y="-920" as="sourcePoint" />
            <mxPoint x="562.5" y="-1020" as="targetPoint" />
          </mxGeometry>
        </mxCell>
        <mxCell id="mON6WonRohZX_aaUOoLF-5" value="actuation_type" style="swimlane;fontStyle=0;childLayout=stackLayout;horizontal=1;startSize=26;fillColor=none;horizontalStack=0;resizeParent=1;resizeParentMax=0;resizeLast=0;collapsible=1;marginBottom=0;" parent="1" vertex="1">
          <mxGeometry x="930" y="-1150" width="220" height="104" as="geometry" />
        </mxCell>
        <mxCell id="mON6WonRohZX_aaUOoLF-6" value="+ id_actuation_type: int(11)" style="text;strokeColor=none;fillColor=none;align=left;verticalAlign=top;spacingLeft=4;spacingRight=4;overflow=hidden;rotatable=0;points=[[0,0.5],[1,0.5]];portConstraint=eastwest;" parent="mON6WonRohZX_aaUOoLF-5" vertex="1">
          <mxGeometry y="26" width="220" height="26" as="geometry" />
        </mxCell>
        <mxCell id="mON6WonRohZX_aaUOoLF-7" value="+ actuation_type_name: string(255)" style="text;strokeColor=none;fillColor=none;align=left;verticalAlign=top;spacingLeft=4;spacingRight=4;overflow=hidden;rotatable=0;points=[[0,0.5],[1,0.5]];portConstraint=eastwest;" parent="mON6WonRohZX_aaUOoLF-5" vertex="1">
          <mxGeometry y="52" width="220" height="26" as="geometry" />
        </mxCell>
        <mxCell id="mON6WonRohZX_aaUOoLF-8" value="+ actuation_type_description: text" style="text;strokeColor=none;fillColor=none;align=left;verticalAlign=top;spacingLeft=4;spacingRight=4;overflow=hidden;rotatable=0;points=[[0,0.5],[1,0.5]];portConstraint=eastwest;" parent="mON6WonRohZX_aaUOoLF-5" vertex="1">
          <mxGeometry y="78" width="220" height="26" as="geometry" />
        </mxCell>
        <mxCell id="mON6WonRohZX_aaUOoLF-9" value="" style="edgeStyle=entityRelationEdgeStyle;fontSize=12;html=1;endArrow=ERoneToMany;startArrow=ERmandOne;rounded=0;" parent="1" source="mON6WonRohZX_aaUOoLF-6" target="rQy6I5jSdBG7i_t-9aFB-11" edge="1">
          <mxGeometry width="100" height="100" relative="1" as="geometry">
            <mxPoint x="832.5" y="-970" as="sourcePoint" />
            <mxPoint x="932.5" y="-1070" as="targetPoint" />
          </mxGeometry>
        </mxCell>
        <mxCell id="mON6WonRohZX_aaUOoLF-10" style="edgeStyle=orthogonalEdgeStyle;rounded=0;orthogonalLoop=1;jettySize=auto;html=1;" parent="1" source="OqHATmE9yE6C7j0-I17L-35" target="mON6WonRohZX_aaUOoLF-11" edge="1">
          <mxGeometry relative="1" as="geometry">
            <mxPoint x="1502.5" y="-636" as="targetPoint" />
            <mxPoint x="787.5" y="-539" as="sourcePoint" />
          </mxGeometry>
        </mxCell>
        <mxCell id="mON6WonRohZX_aaUOoLF-11" value="&lt;div&gt;- Cuaderno principal&lt;/div&gt;&lt;div&gt;- Cuaderno de medidas&lt;/div&gt;&lt;div&gt;- Acumulada 1 cuaderno principal&lt;/div&gt;&lt;div&gt;- Acumulada 2 cuaderno principal&lt;/div&gt;&lt;div&gt;- Acumulada 3 cuaderno principal&lt;/div&gt;&lt;div&gt;- Acumulada 4 cuaderno principal&lt;/div&gt;&lt;div&gt;- Acumulada 5 cuaderno principal&lt;/div&gt;&lt;div&gt;- Acumulada 1 cuaderno de medidas&lt;/div&gt;&lt;div&gt;- Acumulada 2 cuaderno de medidas&lt;/div&gt;&lt;div&gt;- Acumulada 3 cuaderno de medidas&lt;/div&gt;&lt;div&gt;- Acumulada 4 cuaderno de medidas&lt;/div&gt;&lt;div&gt;- Acumulada 5 cuaderno de medidas&lt;/div&gt;&lt;div&gt;- Cuaderno principal incidente 1&lt;/div&gt;&lt;div&gt;- Cuaderno de medidas incidente 1&lt;/div&gt;&lt;div&gt;- Cuaderno de recursos&lt;/div&gt;&lt;div&gt;- Cuaderno de restitucion&lt;/div&gt;&lt;div&gt;- Cuaderno secuestre&lt;/div&gt;&lt;div&gt;- Cuaderno conflicto de competencias&lt;/div&gt;&lt;div&gt;- Cuaderno proceso rendicion espontanea de cuentas&lt;/div&gt;&lt;div&gt;- Cuaderno de titulos&lt;/div&gt;&lt;div&gt;- Cuaderno principal incidente 2&lt;/div&gt;&lt;div&gt;- Cuaderno principal incidente 3&lt;/div&gt;&lt;div&gt;- Cuaderno principal incidente 4&lt;/div&gt;&lt;div&gt;- Despacho comisorio&lt;/div&gt;&lt;div&gt;- Cuaderno pruebas&lt;/div&gt;&lt;div&gt;- Cuaderno de suprogacion&lt;/div&gt;&lt;div&gt;- Cuaderno excepciones previas&lt;/div&gt;&lt;div&gt;- Cuaderno responsabilidad civil extracontractual&lt;/div&gt;&lt;div&gt;- Cuaderno de medidas incidente 2&lt;/div&gt;&lt;div&gt;- Cuaderno de medidas incidente 3&lt;/div&gt;&lt;div&gt;- Cuaderno impedimento&lt;/div&gt;&lt;div&gt;- Cuaderno monitorio&lt;/div&gt;&lt;div&gt;- Cuaderno tutela 1&lt;/div&gt;&lt;div&gt;- Cuaderno responsabilidad civil contractual&lt;/div&gt;&lt;div&gt;- Cuaderno principal de restitucion&lt;/div&gt;&lt;div&gt;- Cuaderno de medidas de restitucion&lt;/div&gt;&lt;div&gt;- Acumulada 6 cuaderno principal&lt;/div&gt;&lt;div&gt;- Acumulada 6 cuaderno de medidas&lt;/div&gt;&lt;div&gt;- Cuaderno ejecutivo a continuacion principal&lt;/div&gt;&lt;div&gt;- Cuaderno ejecutivo a continuacion medidas&lt;/div&gt;&lt;div&gt;- Cuaderno de medidas secuestre&lt;/div&gt;&lt;div&gt;- Cuaderno impugnacion tutela 1&lt;/div&gt;&lt;div&gt;- Cuaderno tutela 2&lt;/div&gt;&lt;div&gt;- Cuaderno impugnacion tutela 2&lt;/div&gt;&lt;div&gt;- Cuaderno proceso verbal&lt;/div&gt;" style="whiteSpace=wrap;html=1;align=left;fillColor=#99FF99;" parent="1" vertex="1">
          <mxGeometry x="1200" y="-1060" width="360" height="646" as="geometry" />
        </mxCell>
        <mxCell id="mON6WonRohZX_aaUOoLF-12" value="origen_type" style="swimlane;fontStyle=0;childLayout=stackLayout;horizontal=1;startSize=26;fillColor=none;horizontalStack=0;resizeParent=1;resizeParentMax=0;resizeLast=0;collapsible=1;marginBottom=0;" parent="1" vertex="1">
          <mxGeometry x="557.5" y="-694" width="220" height="104" as="geometry" />
        </mxCell>
        <mxCell id="mON6WonRohZX_aaUOoLF-13" value="+ id_origen_type: int(11)" style="text;strokeColor=none;fillColor=none;align=left;verticalAlign=top;spacingLeft=4;spacingRight=4;overflow=hidden;rotatable=0;points=[[0,0.5],[1,0.5]];portConstraint=eastwest;" parent="mON6WonRohZX_aaUOoLF-12" vertex="1">
          <mxGeometry y="26" width="220" height="26" as="geometry" />
        </mxCell>
        <mxCell id="mON6WonRohZX_aaUOoLF-14" value="+ origen_type_name: string(255)" style="text;strokeColor=none;fillColor=none;align=left;verticalAlign=top;spacingLeft=4;spacingRight=4;overflow=hidden;rotatable=0;points=[[0,0.5],[1,0.5]];portConstraint=eastwest;" parent="mON6WonRohZX_aaUOoLF-12" vertex="1">
          <mxGeometry y="52" width="220" height="26" as="geometry" />
        </mxCell>
        <mxCell id="mON6WonRohZX_aaUOoLF-15" value="+ origen_type_description: text" style="text;strokeColor=none;fillColor=none;align=left;verticalAlign=top;spacingLeft=4;spacingRight=4;overflow=hidden;rotatable=0;points=[[0,0.5],[1,0.5]];portConstraint=eastwest;" parent="mON6WonRohZX_aaUOoLF-12" vertex="1">
          <mxGeometry y="78" width="220" height="26" as="geometry" />
        </mxCell>
        <mxCell id="mON6WonRohZX_aaUOoLF-16" value="" style="edgeStyle=entityRelationEdgeStyle;fontSize=12;html=1;endArrow=ERoneToMany;startArrow=ERmandOne;rounded=0;" parent="1" source="mON6WonRohZX_aaUOoLF-13" target="rQy6I5jSdBG7i_t-9aFB-17" edge="1">
          <mxGeometry width="100" height="100" relative="1" as="geometry">
            <mxPoint x="502.5" y="-700" as="sourcePoint" />
            <mxPoint x="372.5" y="-560" as="targetPoint" />
          </mxGeometry>
        </mxCell>
        <mxCell id="mON6WonRohZX_aaUOoLF-17" style="edgeStyle=orthogonalEdgeStyle;rounded=0;orthogonalLoop=1;jettySize=auto;html=1;" parent="1" source="mON6WonRohZX_aaUOoLF-12" target="mON6WonRohZX_aaUOoLF-18" edge="1">
          <mxGeometry relative="1" as="geometry">
            <mxPoint x="767.5" y="-562" as="targetPoint" />
            <mxPoint x="752.5" y="-616" as="sourcePoint" />
          </mxGeometry>
        </mxCell>
        <mxCell id="mON6WonRohZX_aaUOoLF-18" value="- Digitalizado&lt;br&gt;- Electrónico" style="whiteSpace=wrap;html=1;align=left;fillColor=#99FF99;" parent="1" vertex="1">
          <mxGeometry x="830" y="-630" width="100" height="40" as="geometry" />
        </mxCell>
        <mxCell id="mON6WonRohZX_aaUOoLF-19" value="court" style="swimlane;fontStyle=0;childLayout=stackLayout;horizontal=1;startSize=26;fillColor=#FFCCCC;horizontalStack=0;resizeParent=1;resizeParentMax=0;resizeLast=0;collapsible=1;marginBottom=0;" parent="1" vertex="1">
          <mxGeometry x="550" y="1055.5" width="220" height="156" as="geometry" />
        </mxCell>
        <mxCell id="mON6WonRohZX_aaUOoLF-20" value="+ id_court: int(11)" style="text;strokeColor=none;fillColor=#FFCCCC;align=left;verticalAlign=top;spacingLeft=4;spacingRight=4;overflow=hidden;rotatable=0;points=[[0,0.5],[1,0.5]];portConstraint=eastwest;" parent="mON6WonRohZX_aaUOoLF-19" vertex="1">
          <mxGeometry y="26" width="220" height="26" as="geometry" />
        </mxCell>
        <mxCell id="mON6WonRohZX_aaUOoLF-21" value="+ court_name: string(255)" style="text;strokeColor=none;fillColor=#FFCCCC;align=left;verticalAlign=top;spacingLeft=4;spacingRight=4;overflow=hidden;rotatable=0;points=[[0,0.5],[1,0.5]];portConstraint=eastwest;" parent="mON6WonRohZX_aaUOoLF-19" vertex="1">
          <mxGeometry y="52" width="220" height="26" as="geometry" />
        </mxCell>
        <mxCell id="xAH6Q3KQfg1zG3wUC4cS-2" value="+ court_email: string(255)" style="text;strokeColor=none;fillColor=#FFCCCC;align=left;verticalAlign=top;spacingLeft=4;spacingRight=4;overflow=hidden;rotatable=0;points=[[0,0.5],[1,0.5]];portConstraint=eastwest;" parent="mON6WonRohZX_aaUOoLF-19" vertex="1">
          <mxGeometry y="78" width="220" height="26" as="geometry" />
        </mxCell>
        <mxCell id="xAH6Q3KQfg1zG3wUC4cS-1" value="+ id_siglo_xxi: int(11)" style="text;strokeColor=none;fillColor=#FFCCCC;align=left;verticalAlign=top;spacingLeft=4;spacingRight=4;overflow=hidden;rotatable=0;points=[[0,0.5],[1,0.5]];portConstraint=eastwest;" parent="mON6WonRohZX_aaUOoLF-19" vertex="1">
          <mxGeometry y="104" width="220" height="26" as="geometry" />
        </mxCell>
        <mxCell id="mON6WonRohZX_aaUOoLF-22" value="+ identification_siglo_xxi: string(255)" style="text;strokeColor=none;fillColor=#FFCCCC;align=left;verticalAlign=top;spacingLeft=4;spacingRight=4;overflow=hidden;rotatable=0;points=[[0,0.5],[1,0.5]];portConstraint=eastwest;" parent="mON6WonRohZX_aaUOoLF-19" vertex="1">
          <mxGeometry y="130" width="220" height="26" as="geometry" />
        </mxCell>
        <mxCell id="mON6WonRohZX_aaUOoLF-23" value="" style="edgeStyle=entityRelationEdgeStyle;fontSize=12;html=1;endArrow=ERoneToMany;startArrow=ERmandOne;rounded=0;" parent="1" source="mON6WonRohZX_aaUOoLF-20" target="rQy6I5jSdBG7i_t-9aFB-13" edge="1">
          <mxGeometry width="100" height="100" relative="1" as="geometry">
            <mxPoint x="1240" y="1700" as="sourcePoint" />
            <mxPoint x="1340" y="1600" as="targetPoint" />
          </mxGeometry>
        </mxCell>
        <mxCell id="mON6WonRohZX_aaUOoLF-52" style="edgeStyle=orthogonalEdgeStyle;rounded=0;orthogonalLoop=1;jettySize=auto;html=1;" parent="1" source="mON6WonRohZX_aaUOoLF-5" target="mON6WonRohZX_aaUOoLF-53" edge="1">
          <mxGeometry relative="1" as="geometry">
            <mxPoint x="1202.5" y="-1052" as="targetPoint" />
            <mxPoint x="1190" y="-1072" as="sourcePoint" />
          </mxGeometry>
        </mxCell>
        <mxCell id="mON6WonRohZX_aaUOoLF-53" value="- Auto requiere&lt;br&gt;- Auto decreta medida&lt;br&gt;- Auto pone conocimiento&lt;br&gt;- Auto termina&lt;br&gt;- Auto agrega" style="whiteSpace=wrap;html=1;align=left;fillColor=#99FF99;" parent="1" vertex="1">
          <mxGeometry x="1265" y="-1160" width="175" height="80" as="geometry" />
        </mxCell>
        <mxCell id="1skcdSYpiU9riw8ruw96-4" value="Cuando un usuario radica un memorial se radica en el expediente?" style="whiteSpace=wrap;html=1;align=left;fillColor=#FFCCCC;" parent="1" vertex="1">
          <mxGeometry x="170" y="-230" width="180" height="73" as="geometry" />
        </mxCell>
        <mxCell id="JLPfwYuVppmMRg6Ym0iC-1" style="edgeStyle=orthogonalEdgeStyle;rounded=0;orthogonalLoop=1;jettySize=auto;html=1;" parent="1" source="JLPfwYuVppmMRg6Ym0iC-3" target="JLPfwYuVppmMRg6Ym0iC-2" edge="1">
          <mxGeometry relative="1" as="geometry">
            <mxPoint x="937.5" y="714" as="targetPoint" />
            <mxPoint x="785" y="680" as="sourcePoint" />
          </mxGeometry>
        </mxCell>
        <mxCell id="JLPfwYuVppmMRg6Ym0iC-2" value="&lt;div&gt;- Pasa para ubicar en juzgado de origen&lt;/div&gt;&lt;div&gt;- Pasa al area de archivo&lt;/div&gt;&lt;div&gt;- Pasa al area de titulos&lt;/div&gt;&lt;div&gt;- Pasa al area de oficios juzgado primero de ejecucion&lt;/div&gt;&lt;div&gt;- Pasa al area de oficios juzgado segundo de ejecucion&lt;/div&gt;&lt;div&gt;- Pasa a memoriales del juzgado primero de ejecucion&lt;/div&gt;&lt;div&gt;- Pasa a memoriales del juzgado segundo de ejecucion&lt;/div&gt;&lt;div&gt;- Pasa al area contador&lt;/div&gt;&lt;div&gt;- Pasa para liquidar costas juzgado primero de ejecucion&lt;/div&gt;&lt;div&gt;- Pasa para liquidar costas juzgado segundo de ejecucion&lt;/div&gt;&lt;div&gt;- Pasa para recurso juzgado primero de ejecucion&lt;/div&gt;&lt;div&gt;- Pasa para recurso juzgado segundo de ejecucion&lt;/div&gt;&lt;div&gt;- Pasa a terminos cuentas finales secuestre&lt;/div&gt;&lt;div&gt;- Pasa al area remates&lt;/div&gt;&lt;div&gt;- Pasa al area de oficios para enviar a juzgados&lt;/div&gt;&lt;div&gt;- Pasa al area de archivo con desglose&lt;/div&gt;&lt;div&gt;- Proceso con orden de pago&lt;/div&gt;&lt;div&gt;- Audiencia&lt;/div&gt;&lt;div&gt;- Remitir expediente digital&lt;/div&gt;" style="whiteSpace=wrap;html=1;align=left;fillColor=#99FF99;" parent="1" vertex="1">
          <mxGeometry x="1110" y="432.5" width="350" height="311.5" as="geometry" />
        </mxCell>
        <mxCell id="JLPfwYuVppmMRg6Ym0iC-3" value="annotation_type" style="swimlane;fontStyle=0;childLayout=stackLayout;horizontal=1;startSize=26;fillColor=none;horizontalStack=0;resizeParent=1;resizeParentMax=0;resizeLast=0;collapsible=1;marginBottom=0;" parent="1" vertex="1">
          <mxGeometry x="990" y="250" width="310" height="104" as="geometry" />
        </mxCell>
        <mxCell id="JLPfwYuVppmMRg6Ym0iC-4" value="+ id_annotation_type: int(11)" style="text;strokeColor=none;fillColor=none;align=left;verticalAlign=top;spacingLeft=4;spacingRight=4;overflow=hidden;rotatable=0;points=[[0,0.5],[1,0.5]];portConstraint=eastwest;" parent="JLPfwYuVppmMRg6Ym0iC-3" vertex="1">
          <mxGeometry y="26" width="310" height="26" as="geometry" />
        </mxCell>
        <mxCell id="JLPfwYuVppmMRg6Ym0iC-5" value="+ annotation_type_name: datetime" style="text;strokeColor=none;fillColor=none;align=left;verticalAlign=top;spacingLeft=4;spacingRight=4;overflow=hidden;rotatable=0;points=[[0,0.5],[1,0.5]];portConstraint=eastwest;" parent="JLPfwYuVppmMRg6Ym0iC-3" vertex="1">
          <mxGeometry y="52" width="310" height="26" as="geometry" />
        </mxCell>
        <mxCell id="JLPfwYuVppmMRg6Ym0iC-6" value="+ annotation_type_description: text" style="text;strokeColor=none;fillColor=none;align=left;verticalAlign=top;spacingLeft=4;spacingRight=4;overflow=hidden;rotatable=0;points=[[0,0.5],[1,0.5]];portConstraint=eastwest;" parent="JLPfwYuVppmMRg6Ym0iC-3" vertex="1">
          <mxGeometry y="78" width="310" height="26" as="geometry" />
        </mxCell>
        <mxCell id="JLPfwYuVppmMRg6Ym0iC-8" value="" style="edgeStyle=entityRelationEdgeStyle;fontSize=12;html=1;endArrow=ERoneToMany;startArrow=ERmandOne;rounded=0;" parent="1" source="JLPfwYuVppmMRg6Ym0iC-4" target="kAV78_8R-8U5BCedtc6I-11" edge="1">
          <mxGeometry width="100" height="100" relative="1" as="geometry">
            <mxPoint x="720" y="450" as="sourcePoint" />
            <mxPoint x="820" y="350" as="targetPoint" />
          </mxGeometry>
        </mxCell>
        <mxCell id="xAH6Q3KQfg1zG3wUC4cS-3" style="edgeStyle=orthogonalEdgeStyle;rounded=0;orthogonalLoop=1;jettySize=auto;html=1;" parent="1" source="mON6WonRohZX_aaUOoLF-19" target="xAH6Q3KQfg1zG3wUC4cS-4" edge="1">
          <mxGeometry relative="1" as="geometry">
            <mxPoint x="987.5" y="937.5" as="targetPoint" />
            <mxPoint x="835" y="903.5" as="sourcePoint" />
          </mxGeometry>
        </mxCell>
        <mxCell id="xAH6Q3KQfg1zG3wUC4cS-4" value="- Juzgado 1 Civil Municipal de Manizales&lt;br&gt;-&amp;nbsp;Juzgado 2 Civil Municipal de Manizales&lt;br&gt;-&amp;nbsp;Juzgado 3 Civil Municipal de Manizales&lt;br&gt;-&amp;nbsp;Juzgado 4 Civil Municipal de Manizales&lt;br&gt;-&amp;nbsp;Juzgado 5 Civil Municipal de Manizales&lt;br&gt;- Juzgado 6 Civil Municipal de Manizales&lt;br&gt;-&amp;nbsp;Juzgado 7 Civil Municipal de Manizales&lt;br&gt;-&amp;nbsp;Juzgado 8 Civil Municipal de Manizales&lt;br&gt;-&amp;nbsp;Juzgado 9 Civil Municipal de Manizales&lt;br&gt;- Juzgado 10 Civil Municipal de Manizales&lt;br&gt;-&amp;nbsp;Juzgado 11 Civil Municipal de Manizales&lt;br&gt;- Juzgado 12 Civil Municipal de Manizales&lt;br&gt;-&amp;nbsp;Juzgado 1 de Ejecución Civil Municipal de Manizales&lt;br&gt;-&amp;nbsp;Juzgado 2 de Ejecución Civil Municipal de Manizales&lt;br&gt;-&amp;nbsp;Oficina de Ejecución Civil Municipal de Manizales" style="whiteSpace=wrap;html=1;align=left;fillColor=#99FF99;" parent="1" vertex="1">
          <mxGeometry x="900" y="1010" width="320" height="236" as="geometry" />
        </mxCell>
        <mxCell id="xAH6Q3KQfg1zG3wUC4cS-6" value="dossier_defendant" style="swimlane;fontStyle=0;childLayout=stackLayout;horizontal=1;startSize=26;fillColor=none;horizontalStack=0;resizeParent=1;resizeParentMax=0;resizeLast=0;collapsible=1;marginBottom=0;" parent="1" vertex="1">
          <mxGeometry x="530" y="568.5" width="220" height="78" as="geometry" />
        </mxCell>
        <mxCell id="xAH6Q3KQfg1zG3wUC4cS-10" value="+ id_dossier: bigint(20)" style="text;strokeColor=none;fillColor=none;align=left;verticalAlign=top;spacingLeft=4;spacingRight=4;overflow=hidden;rotatable=0;points=[[0,0.5],[1,0.5]];portConstraint=eastwest;" parent="xAH6Q3KQfg1zG3wUC4cS-6" vertex="1">
          <mxGeometry y="26" width="220" height="26" as="geometry" />
        </mxCell>
        <mxCell id="xAH6Q3KQfg1zG3wUC4cS-11" value="+ id_defendant: bigint(20)" style="text;strokeColor=none;fillColor=none;align=left;verticalAlign=top;spacingLeft=4;spacingRight=4;overflow=hidden;rotatable=0;points=[[0,0.5],[1,0.5]];portConstraint=eastwest;" parent="xAH6Q3KQfg1zG3wUC4cS-6" vertex="1">
          <mxGeometry y="52" width="220" height="26" as="geometry" />
        </mxCell>
        <mxCell id="xAH6Q3KQfg1zG3wUC4cS-12" value="" style="edgeStyle=entityRelationEdgeStyle;fontSize=12;html=1;endArrow=ERoneToMany;startArrow=ERmandOne;" parent="1" source="99nmjj4Q9bfn7_SC2MuP-35" target="xAH6Q3KQfg1zG3wUC4cS-11" edge="1">
          <mxGeometry width="100" height="100" relative="1" as="geometry">
            <mxPoint x="510" y="1099.5" as="sourcePoint" />
            <mxPoint x="435" y="985" as="targetPoint" />
          </mxGeometry>
        </mxCell>
        <mxCell id="99nmjj4Q9bfn7_SC2MuP-75" value="" style="edgeStyle=entityRelationEdgeStyle;fontSize=12;html=1;endArrow=ERoneToMany;startArrow=ERmandOne;" parent="1" source="99nmjj4Q9bfn7_SC2MuP-48" target="xAH6Q3KQfg1zG3wUC4cS-10" edge="1">
          <mxGeometry width="100" height="100" relative="1" as="geometry">
            <mxPoint x="510" y="980" as="sourcePoint" />
            <mxPoint x="730" y="1074" as="targetPoint" />
          </mxGeometry>
        </mxCell>
        <mxCell id="xAH6Q3KQfg1zG3wUC4cS-13" value="" style="edgeStyle=entityRelationEdgeStyle;fontSize=12;html=1;endArrow=ERoneToMany;startArrow=ERmandOne;" parent="1" source="99nmjj4Q9bfn7_SC2MuP-48" target="xAH6Q3KQfg1zG3wUC4cS-15" edge="1">
          <mxGeometry width="100" height="100" relative="1" as="geometry">
            <mxPoint x="435" y="595" as="sourcePoint" />
            <mxPoint x="530" y="1160" as="targetPoint" />
          </mxGeometry>
        </mxCell>
        <mxCell id="xAH6Q3KQfg1zG3wUC4cS-14" value="dossier_plaintiff" style="swimlane;fontStyle=0;childLayout=stackLayout;horizontal=1;startSize=26;fillColor=none;horizontalStack=0;resizeParent=1;resizeParentMax=0;resizeLast=0;collapsible=1;marginBottom=0;" parent="1" vertex="1">
          <mxGeometry x="530" y="440" width="220" height="78" as="geometry" />
        </mxCell>
        <mxCell id="xAH6Q3KQfg1zG3wUC4cS-15" value="+ id_dossier: bigint(20)" style="text;strokeColor=none;fillColor=none;align=left;verticalAlign=top;spacingLeft=4;spacingRight=4;overflow=hidden;rotatable=0;points=[[0,0.5],[1,0.5]];portConstraint=eastwest;" parent="xAH6Q3KQfg1zG3wUC4cS-14" vertex="1">
          <mxGeometry y="26" width="220" height="26" as="geometry" />
        </mxCell>
        <mxCell id="xAH6Q3KQfg1zG3wUC4cS-16" value="+ id_plaintiff: bigint(20)" style="text;strokeColor=none;fillColor=none;align=left;verticalAlign=top;spacingLeft=4;spacingRight=4;overflow=hidden;rotatable=0;points=[[0,0.5],[1,0.5]];portConstraint=eastwest;" parent="xAH6Q3KQfg1zG3wUC4cS-14" vertex="1">
          <mxGeometry y="52" width="220" height="26" as="geometry" />
        </mxCell>
        <mxCell id="xAH6Q3KQfg1zG3wUC4cS-17" value="" style="edgeStyle=entityRelationEdgeStyle;fontSize=12;html=1;endArrow=ERoneToMany;startArrow=ERmandOne;" parent="1" source="99nmjj4Q9bfn7_SC2MuP-39" target="xAH6Q3KQfg1zG3wUC4cS-16" edge="1">
          <mxGeometry width="100" height="100" relative="1" as="geometry">
            <mxPoint x="810" y="1079" as="sourcePoint" />
            <mxPoint x="742.5" y="1099.5" as="targetPoint" />
          </mxGeometry>
        </mxCell>
        <mxCell id="zX6q9PSeDQ9ZzKakYrvz-1" value="permission (pa_usuario_acciones)" style="swimlane;fontStyle=0;childLayout=stackLayout;horizontal=1;startSize=26;fillColor=#FFCC99;horizontalStack=0;resizeParent=1;resizeParentMax=0;resizeLast=0;collapsible=1;marginBottom=0;" parent="1" vertex="1">
          <mxGeometry x="-1090" y="870" width="220" height="104" as="geometry" />
        </mxCell>
        <mxCell id="zX6q9PSeDQ9ZzKakYrvz-2" value="+ id_permission: int(11)" style="text;strokeColor=none;fillColor=#FFCC99;align=left;verticalAlign=top;spacingLeft=4;spacingRight=4;overflow=hidden;rotatable=0;points=[[0,0.5],[1,0.5]];portConstraint=eastwest;" parent="zX6q9PSeDQ9ZzKakYrvz-1" vertex="1">
          <mxGeometry y="26" width="220" height="26" as="geometry" />
        </mxCell>
        <mxCell id="zX6q9PSeDQ9ZzKakYrvz-3" value="+ permission_name: string(255)" style="text;strokeColor=none;fillColor=#FFCC99;align=left;verticalAlign=top;spacingLeft=4;spacingRight=4;overflow=hidden;rotatable=0;points=[[0,0.5],[1,0.5]];portConstraint=eastwest;" parent="zX6q9PSeDQ9ZzKakYrvz-1" vertex="1">
          <mxGeometry y="52" width="220" height="26" as="geometry" />
        </mxCell>
        <mxCell id="zX6q9PSeDQ9ZzKakYrvz-4" value="+ permission_description: text" style="text;strokeColor=none;fillColor=#FFCC99;align=left;verticalAlign=top;spacingLeft=4;spacingRight=4;overflow=hidden;rotatable=0;points=[[0,0.5],[1,0.5]];portConstraint=eastwest;" parent="zX6q9PSeDQ9ZzKakYrvz-1" vertex="1">
          <mxGeometry y="78" width="220" height="26" as="geometry" />
        </mxCell>
        <mxCell id="zX6q9PSeDQ9ZzKakYrvz-5" value="employee_permission" style="swimlane;fontStyle=0;childLayout=stackLayout;horizontal=1;startSize=26;fillColor=#FFCC99;horizontalStack=0;resizeParent=1;resizeParentMax=0;resizeLast=0;collapsible=1;marginBottom=0;" parent="1" vertex="1">
          <mxGeometry x="-760" y="910" width="180" height="78" as="geometry" />
        </mxCell>
        <mxCell id="zX6q9PSeDQ9ZzKakYrvz-9" value="+ id_employee: bigint(20)" style="text;strokeColor=none;fillColor=#FFCC99;align=left;verticalAlign=top;spacingLeft=4;spacingRight=4;overflow=hidden;rotatable=0;points=[[0,0.5],[1,0.5]];portConstraint=eastwest;" parent="zX6q9PSeDQ9ZzKakYrvz-5" vertex="1">
          <mxGeometry y="26" width="180" height="26" as="geometry" />
        </mxCell>
        <mxCell id="zX6q9PSeDQ9ZzKakYrvz-10" value="+ id_permission: int(11)" style="text;strokeColor=none;fillColor=#FFCC99;align=left;verticalAlign=top;spacingLeft=4;spacingRight=4;overflow=hidden;rotatable=0;points=[[0,0.5],[1,0.5]];portConstraint=eastwest;" parent="zX6q9PSeDQ9ZzKakYrvz-5" vertex="1">
          <mxGeometry y="52" width="180" height="26" as="geometry" />
        </mxCell>
        <mxCell id="zX6q9PSeDQ9ZzKakYrvz-11" value="" style="edgeStyle=entityRelationEdgeStyle;fontSize=12;html=1;endArrow=ERoneToMany;startArrow=ERmandOne;rounded=0;" parent="1" source="99nmjj4Q9bfn7_SC2MuP-8" target="zX6q9PSeDQ9ZzKakYrvz-9" edge="1">
          <mxGeometry width="100" height="100" relative="1" as="geometry">
            <mxPoint x="-410" y="1362" as="sourcePoint" />
            <mxPoint x="-310" y="1262" as="targetPoint" />
          </mxGeometry>
        </mxCell>
        <mxCell id="zX6q9PSeDQ9ZzKakYrvz-12" value="" style="edgeStyle=entityRelationEdgeStyle;fontSize=12;html=1;endArrow=ERoneToMany;startArrow=ERmandOne;rounded=0;" parent="1" source="zX6q9PSeDQ9ZzKakYrvz-2" target="zX6q9PSeDQ9ZzKakYrvz-10" edge="1">
          <mxGeometry width="100" height="100" relative="1" as="geometry">
            <mxPoint x="-500" y="784" as="sourcePoint" />
            <mxPoint x="-600" y="1354" as="targetPoint" />
          </mxGeometry>
        </mxCell>
        <mxCell id="zX6q9PSeDQ9ZzKakYrvz-13" value="&lt;div&gt;Listar Todos los documentos de los usurios, vista documentos_listar.php&lt;/div&gt;&lt;div&gt;Filtro Usuarios, vista documentos_listar.php&lt;/div&gt;&lt;div&gt;En la vista archivo_modificarOtro.php al actualizar solo se toca las tablas actuacion_expediente y actuacion_expediente_historial, si son los usuarios indicados&lt;/div&gt;&lt;div&gt;En la vista siepro_listar_titulos_otrosjuzgados.php que solo los usuarios especificos puedan asignar una fecha de pago&lt;/div&gt;&lt;div&gt;En la vista archivo_modificarOtro.php accion prestamo de proceso en ventanilla&lt;/div&gt;&lt;div&gt;En la vista archivo_filtrar_ubicacion.php para que solo cargue los usuarios de ventanilla en CONSULTA EN VENTANILLA DE PROCESOS&lt;/div&gt;&lt;div&gt;En excelModel.php funcion listarProcesosConMemorialIncorporado reprte if($t_reporte == 7000) identifcar que usuarios pasan con memorial al area de secretaria&lt;/div&gt;&lt;div&gt;ID USUARIOS QUE PUEDEN INGRESAR AL MODULO DE ADMINISTRACION&lt;/div&gt;&lt;div&gt;SE USA LA (D) PARA DESACTIVAR ACCION, ID USURIOS PERTENECIENTES AL JUZGADO J1, J2 ESTO CON EL OBJETO QUE EL USUARIO DE UN JUZGADO NO VEA LA INFORMACION DEL OTRO&lt;/div&gt;&lt;div&gt;SE USA LA (D) PARA DESACTIVAR ACCION,ID USURIOS PERTENECIENTES AL JUZGADO J1, J2&amp;nbsp; QUE NO PUEDEN ENTRAR A OTRO MODULO QUE NO SEA SIEPRO&lt;/div&gt;&lt;div&gt;USUARIOS QUE PUEDEN INCORPORAR MEMORIALES AL PROCESO&lt;/div&gt;&lt;div&gt;ID DE pa_solicitud QUE DEBEN SALIR EN LAS ALERTAS DE INCORPORAR MEMORIALES AL PROCESO&lt;/div&gt;&lt;div&gt;ID USUARIOS QUE PUEDEN GESTIONAR ACCIONES MODULO CALIDAD&lt;/div&gt;&lt;div&gt;ID USUARIOS PARA VISUALIZAR ALERTA REPARTO MASIVO&lt;/div&gt;&lt;div&gt;PARA VISUALIZAR ALERTA VENCE TERMINOS&lt;/div&gt;&lt;div&gt;PARA&amp;nbsp; VISUALIZAR ALERTA EN FIRME PASA A CONTADOR PARA LIQUIDAR&lt;/div&gt;&lt;div&gt;Visualizar Remate Sin Aprobar PARA GENERAR LA ALERTA&lt;/div&gt;&lt;div&gt;ID USUARIOS J2, PARA PARAMETRIZAR LOS DIAS QUE SE GENERA LAS ALERTAS DE PROCESOS EN LA PLATAFORMA ALERTA TUTELAS&lt;/div&gt;&lt;div&gt;ID USUARIO JUEZ JEFE J2 DE EJECUCION Y SUS SERVIDORES JUDICIALES&lt;/div&gt;&lt;div&gt;ID USUARIO JUEZ JEFE J2 DE EJECUCION Y SUS SERVIDORES JUDICIALES, PARA VISTA juz_adicionar_obs.php&lt;/div&gt;&lt;div&gt;ID USUARIOS QUE PUEDEN VER MENU&amp;nbsp; &amp;nbsp;REPORTES PERMISOS&lt;/div&gt;&lt;div&gt;ID USUARIOS QUE PUEDEN VER Y APROBAR TODOS LOS PERMISOS&lt;/div&gt;&lt;div&gt;ID USUARIOS QUE PUEDEN VER TODA LA LISTA DE JUZGADOS MUNICIPALES PARA GENERAR NUEVO EXCEL EN LA VISTA siepro_estado_masivo_autos.php&lt;/div&gt;&lt;div&gt;ID USUARIOS QUE PUEDEN VER ALERTA Y AGENDA AUDIENCIAS&lt;/div&gt;&lt;div&gt;ID USUARIOS QUE PUEDEN VER TODAS LAS SOLICITUDES DE SOPORTE TECNICO DE USUARIOS Y VER LA LISTA Usuario DE LA VISTA so_ticket.php DE LA CARPETA popupbox&lt;/div&gt;&lt;div&gt;ID USUARIOS QUE PUEDEN VER Y REGISTRAR&amp;nbsp; AUDIENCIAS, TANTO DEL J1 Y J2 DE EJECUCION, Y PERSONAL OECM, DIRECTORA(8), SECRETARIO(19), ING SISTEMAS(38)&lt;/div&gt;&lt;div&gt;ID USUARIOS QUE PUEDEN ARCHIVAR Y SE VISUALIZA CAMPOS FOLIOS Y CUADERNOS&lt;/div&gt;&lt;div&gt;ID USUARIOS QUE PUEDEN VISUALIZAR ALERTA DE EN TITULOS&lt;/div&gt;&lt;div&gt;ID USUARIOS QUE PUEDEN VISUALIZAR&amp;nbsp; HOJA CONTROL DE ENTREGA DE TITULOS&lt;/div&gt;&lt;div&gt;ID USUARIOS QUE PUEDEN VISUALIZAR&amp;nbsp; REPORTE EXCEL VARIAS SOLICITUDES&lt;/div&gt;&lt;div&gt;ID USUARIOS QUE PUDEN VISUALIZAR EXPEDIENTE DIGITAL&lt;/div&gt;&lt;div&gt;ID USUARIOS, QUE CARGAN AUTOS AL EXPEDIENTE DIGITAL Y SE IDENTIFICA PARA EL ESTADO DEL DIA SIGUIENTE&lt;/div&gt;&lt;div&gt;ID USUARIOS, QUE ENTRAN A LA VISTA DE A DESPACHO JUZGADOS Y SOLO VEN SUS TAREAS&lt;/div&gt;&lt;div&gt;ID USUARIOS, QUE CARGAN AUTOS AL EXPEDIENTE DIGITAL Y AL CARGAR EL AUTO SE CIERRA LA TAREA AUTOMATICAMENTE&lt;/div&gt;&lt;div&gt;ID USUARIOS, PARA VISUALIZAR ALERTA DE TAREAS QUE AUN NO SE HAN CERRARDO, EN EL AREA DESPACHOS&lt;/div&gt;&lt;div&gt;ID USUARIOS, QUE CARGAN AUTOS AL EXPEDIENTE DIGITAL Y AL CARGAR EL AUTO SE VISUALIZA OPCION REVISAR, YA QUE EN LA VISTA DELJUEZ LOS IDENTIFICA COMO PROCESOS QUE LE ENTRARON MEMORIALES Y AUN SUS COSTAS NO ESTAN HECHAS&lt;/div&gt;&lt;div&gt;ID USUARIOS, PARA VISUALIZAR SOLICITUDES DE EXPEDIENTES A DIGITALIZAR Y CREAR USUARIOS PARA LA CONSULTA DE EXPEDIENTES POR ABOGADOS&lt;/div&gt;&lt;div&gt;ID USUARIOS, PARA VISUALIZAR MEMORIALES RADICADOS DESDE LA PLATAFORMA PUBLICACIONES&lt;/div&gt;&lt;div&gt;ID USUARIOS, PARA VISUALIZAR PROGRAMACION Y CONSULTA DE TITULOS DESDE LA PLATAFORMA PUBLICACIONES&lt;/div&gt;&lt;div&gt;ID USUARIOS, QUE VISUALIZAN LA ALERTA DE SOLICITUD DE USURIOS DESDE EL PORTAL PUBLICACIONES&lt;/div&gt;&lt;div&gt;ID USUARIOS, QUE NO VISUALIZAN EL MENU ADMINISTAR&lt;/div&gt;&lt;div&gt;ID USUARIOS, QUE VISUALIZAN LISTA DEPENDENCIA VISTA NUEVO Y EDITA FOLIO&lt;/div&gt;&lt;div&gt;ID USUARIOS, QUE VISUALIZAN LISTA DEPENDENCIA 1 AL 12 JUZGADO MUNICIPAL&amp;nbsp; Y OFICINA DE EJECUCION&lt;/div&gt;&lt;div&gt;ID USUARIOS, QUE VISUALIZAN LISTA DEPENDENCIA 1 JUZGADO EJECUCION&amp;nbsp; Y OFICINA DE EJECUCION&lt;/div&gt;&lt;div&gt;ID USUARIOS, QUE VISUALIZAN LISTA DEPENDENCIA 2 JUZGADO EJECUCION&amp;nbsp; Y OFICINA DE EJECUCION&lt;/div&gt;&lt;div&gt;ID USUARIOS, QUE VISUALIZAN LISTA DEPENDENCIA 1 Y 2&amp;nbsp; JUZGADO EJECUCION&amp;nbsp; Y OFICINA DE EJECUCION&lt;/div&gt;&lt;div&gt;ID USUARIOS, QUE PERTENECEN AL J1 JUZGADO1 DE EJECUCION&amp;nbsp; Y NO QUE VISUALIZAN LISTA DEPENDENCIA YA QUE EL SISTEMA AUTOMATICAMENTE ASIGNA 15 EN id_dependencia DE LA TABLA pa_usuario&lt;/div&gt;&lt;div&gt;ID USUARIOS, QUE PERTENECEN AL J2 JUZGADO1 DE EJECUCION&amp;nbsp; Y NO QUE VISUALIZAN LISTA DEPENDENCIA YA QUE EL SISTEMA AUTOMATICAMENTE ASIGNA 16 EN id_dependencia DE LA TABLA pa_usuario&lt;/div&gt;&lt;div&gt;ID USUARIOS, QUE VISUALIZAN BOTONES CARGAR INDICE ELECTRONICO Y LISTAR INDICE ELECTRONICO, Y REALIZAR DICHAS TAREAS&lt;/div&gt;&lt;div&gt;ID USUARIOS, QUE VISUALIZAN BOTON ORDENAR EXPEDIENTE&lt;/div&gt;&lt;div&gt;ID USUARIOS, QUE VISUALIZAN BOTON PARA RENOMBRAR LOS ARCHIVOS DE UN EXPEDIENTE&lt;/div&gt;&lt;div&gt;ID USUARIOS, QUE PUEDEN BLOQUEAR Y DESBLOQUEAR PROCESOS&lt;/div&gt;&lt;div&gt;ID USUARIOS, QUE VISUALIZAN EN EL EXPEDIENTE DIGITAL SI ALGUN ARCHIVO NO ES ENCONTRADO EN LA UBICACION QUE TIENE GUARDADA EN SU COLUMNA ruta DE LA TABLA expe_digital&lt;/div&gt;&lt;div&gt;ID USUARIOS, QUE VISUALIZAN EL MENU SOLICITUD VISUALIZAR EXPEDIENTE ENTEDIDAD Y TERCEROS&lt;/div&gt;" style="whiteSpace=wrap;html=1;align=left;fillColor=#99FF99;" parent="1" vertex="1">
          <mxGeometry x="-2530" y="500" width="1280" height="844" as="geometry" />
        </mxCell>
        <mxCell id="zX6q9PSeDQ9ZzKakYrvz-14" style="edgeStyle=orthogonalEdgeStyle;rounded=0;orthogonalLoop=1;jettySize=auto;html=1;" parent="1" source="zX6q9PSeDQ9ZzKakYrvz-1" target="zX6q9PSeDQ9ZzKakYrvz-13" edge="1">
          <mxGeometry relative="1" as="geometry">
            <mxPoint x="-850" y="1092" as="targetPoint" />
            <mxPoint x="-760" y="1092" as="sourcePoint" />
          </mxGeometry>
        </mxCell>
      </root>
    </mxGraphModel>
  </diagram>
</mxfile>
